<?xml version="1.0" encoding="utf-8"?>
<!-- Generator: Adobe Illustrator 24.0.3, SVG Export Plug-In . SVG Version: 6.00 Build 0)  -->
<svg version="1.1" id="Layer_1" xmlns="http://www.w3.org/2000/svg" xmlns:xlink="http://www.w3.org/1999/xlink" x="0px" y="0px"
	 viewBox="0 0 671.5 612" style="enable-background:new 0 0 671.5 612;" xml:space="preserve">
<style type="text/css">
	.st0{fill:#ED918A;stroke:#EF553B;}
	.st1{fill:#F7FBFF;}
	.st2{fill:#EBF3FB;}
	.st3{fill:#DFECF7;}
	.st4{fill:#D4E4F4;}
	.st5{fill:#C9DDF0;}
	.st6{fill:#B8D5EA;}
	.st7{fill:#A5CDE3;}
	.st8{fill:#8FC2DE;}
	.st9{fill:#77B5D9;}
	.st10{fill:#61A7D2;}
	.st11{fill:#4E9ACB;}
	.st12{fill:#3C8CC3;}
	.st13{fill:#2D7DBB;}
	.st14{fill:#1E6DB2;}
	.st15{fill:#125EA6;}
	.st16{fill:#084F99;}
	.st17{fill:#084082;}
	.st18{fill:#08306B;}
	.st19{fill-opacity:0;}
	.st20{fill:#E3EEF9;}
	.st21{fill:#D0E1F2;}
	.st22{fill:#B6D4E9;}
	.st23{fill:#94C4DF;}
	.st24{fill:#6BAED6;}
	.st25{fill:#4A98C9;}
	.st26{fill:#2E7EBC;}
	.st27{fill:#1764AB;}
	.st28{fill:#084A92;}
	.st29{fill:none;}
	.st30{fill:#E8F1FA;}
	.st31{fill:#D8E7F5;}
	.st32{fill:#CADDF0;}
	.st33{fill:#B4D3E9;}
	.st34{fill:#9AC8E0;}
	.st35{fill:#7BB7D9;}
	.st36{fill:#5EA5D1;}
	.st37{fill:#4594C7;}
	.st38{fill:#3080BD;}
	.st39{fill:#1D6CB1;}
	.st40{fill:#0E58A2;}
	.st41{fill:#084489;}
	.st42{stroke:#000000;stroke-width:2;}
	.st43{stroke:#FFFFFF;stroke-width:2;}
	.st44{clip-path:url(#SVGID_2_);}
	.st45{clip-path:url(#SVGID_4_);}
	.st46{font-family:'Avenir-Heavy';}
	.st47{font-size:15px;}
	.st48{font-size:16.0759px;}
	.st49{clip-path:url(#SVGID_6_);}
	.st50{fill:none;stroke:#000000;stroke-width:2;stroke-miterlimit:10;}
	.st51{fill:none;stroke:#6D6E71;stroke-width:2;stroke-miterlimit:10;}
	.st52{fill:#A9E0D0;stroke:#00CC96;}
	.st53{fill:#939DF9;stroke:#636EFA;}
</style>
<path class="st0" d="M339,197.4v-1.5c1.3-0.7,2.2-1.3,2.7-1.9c1-0.9,1.9-2.1,2.7-3.5c1-1.6,1.9-3.6,2.7-5.7c1-2.5,1.9-5.4,2.7-8.3
	c1-3.3,1.8-7,2.7-10.5c0.9-3.7,1.8-7.7,2.7-11.3c0.9-3.4,1.7-7,2.7-9.8c0.8-2.2,1.5-5,2.7-5.8c0.8-0.5,1.9-0.7,2.7-0.2
	c1.2,0.7,1.9,3.3,2.7,5.4c1.1,2.7,1.9,6.2,2.7,9.6c0.9,3.6,1.8,7.6,2.7,11.3c0.9,3.6,1.8,7.3,2.7,10.7c0.9,3,1.7,6,2.7,8.5
	c0.8,2.1,1.7,4.2,2.7,5.8c0.8,1.3,1.7,2.5,2.7,3.3c0.8,0.6,1.8,1.1,2.7,1.1c0.9,0,1.9-0.3,2.7-0.8c1-0.6,1.9-1.8,2.7-3
	c1-1.5,1.9-3.5,2.7-5.5c1-2.5,1.9-5.4,2.7-8.4c1-3.4,1.8-7.2,2.7-10.9c0.9-3.9,1.8-8.1,2.7-12.1c0.9-3.7,1.7-7.7,2.7-11
	c0.8-2.7,1.5-5.8,2.7-7.2c0.8-0.9,1.9-1.7,2.7-1.5c1.1,0.3,1.9,2.8,2.7,4.7c1.1,2.6,1.9,6.2,2.7,9.5c1,3.7,1.8,8,2.7,11.9
	c0.9,3.9,1.8,8,2.7,11.7c0.9,3.4,1.7,6.8,2.7,9.7c0.9,2.5,1.7,4.9,2.7,6.9c0.8,1.7,1.7,3.2,2.7,4.4c0.6,0.7,1.5,1.5,2.7,2.4v2"/>
<g>
	<g>
	</g>
	<g>
	</g>
</g>
<g>
</g>
<g>
</g>
<g>
</g>
<g>
</g>
<g>
</g>
<g>
</g>
<g>
</g>
<g>
</g>
<g>
	<g>
	</g>
	<g>
	</g>
</g>
<g>
</g>
<g>
	<g>
	</g>
	<g>
	</g>
</g>
<g>
	<g>
	</g>
	<g>
	</g>
</g>
<g>
	<g>
	</g>
	<g>
	</g>
</g>
<g>
</g>
<g>
</g>
<g>
</g>
<g>
</g>
<g>
</g>
<g>
	<path class="st0" d="M312.6,529.5v-1.3c1.4-0.6,2.4-1,3-1.5c1-0.7,2.1-1.5,3-2.5c1.1-1.1,2.1-2.4,3-3.8c1.1-1.6,2.1-3.4,3-5.3
		c1.1-2,2-4.3,3-6.5c1-2.3,2-4.8,3-7.2c1-2.4,2-4.8,3-7.1c1-2.2,2-4.3,3-6.3c1-1.8,2-3.5,3-5.1c1-1.4,2-2.7,3-3.9c1-1.1,2-2.1,3-3
		c1-0.9,2-1.8,3-2.7c1-0.9,2-1.8,3-2.7c1-0.9,2-1.8,3-2.8c1-0.9,2-1.9,3-2.7c1-0.8,2-1.7,3-2.4c1-0.7,2-1.3,3-1.8c1-0.5,2-0.8,3-1
		c1-0.2,2-0.3,3-0.3s2,0.1,3,0.2c1,0.1,2,0.4,3,0.6c1,0.3,2,0.6,3,1c1,0.4,2,0.8,3,1.3c1,0.5,2,1.1,3,1.7c1,0.6,2,1.4,3,2.1
		c1,0.7,2,1.5,3,2.3c1,0.7,2,1.5,3,2.2c1,0.7,2,1.3,3,1.8c1,0.5,2,0.8,3,1.1c1,0.2,2,0.3,3,0.3c1,0,2-0.1,3-0.1c1,0,2-0.1,3,0.1
		c1,0.2,2.1,0.6,3,1.3c1.1,0.8,2.1,2,3,3.3c1.1,1.6,2.1,3.5,3,5.6c1.1,2.3,2,4.9,3,7.5c1,2.7,2,5.7,3,8.5c1,2.8,2,5.7,3,8.4
		c1,2.5,1.9,5,3,7.2c1,2,1.9,3.9,3,5.5c0.9,1.4,1.9,2.7,3,3.7c0.6,0.6,1.6,1.3,3,2.2v2.1"/>
</g>
<g>
</g>
<g>
</g>
<g>
</g>
<g>
</g>
<g>
</g>
<g>
</g>
<g>
</g>
<g>
</g>
<g>
</g>
<g>
</g>
<g>
</g>
<g>
	<g>
	</g>
	<g>
	</g>
</g>
<g>
	<g>
	</g>
	<g>
	</g>
</g>
<g>
	<g>
	</g>
	<g>
	</g>
</g>
<g>
	<g>
	</g>
	<g>
	</g>
</g>
<g>
</g>
<g>
</g>
<g>
</g>
<g>
</g>
<g>
</g>
<g>
</g>
<path class="st1" d="M495.4,446.7h121.4v129.4H495.4V446.7z"/>
<g>
	<path class="st2" d="M532.4,569.7c-3.2-1.3-5.9-7.5-8.2-11.7c-2.3-4.2-4.1-8.8-5.5-13.3c-1.3-4.4-1.4-9-2.7-13.3
		c-1.4-4.5-4.1-8.8-5.5-13.3c-1.3-4.4-4-9.9-2.7-13.3c1.1-3,5.5-4.4,8.2-6.7c2.7-2.2,7.7-3.8,8.2-6.7c0.6-3.5-7.2-8.7-8.2-13.3
		c-0.9-4.3,0.2-9.3,1.6-13.3c1.4-3.9,3.7-8.7,6.6-10.7c2.3-1.6,5.5-1.3,8.2-1.5c2.7-0.2,5.5,0.2,8.2,0.3c2.7,0,5.5-0.1,8.2,0
		c2.7,0.1,5.5,0.8,8.2,0.7c2.7-0.1,5.5-1.2,8.2-1.3c2.7-0.1,5.5,0.5,8.2,0.7c2.7,0.2,5.5-0.2,8.2,0.6c2.8,0.8,6.1,2.5,8.2,4.4
		c1.9,1.8,4.1,4.4,4.1,6.7s-2.3,4.6-4.1,6.7c-2.1,2.4-7.3,3.7-8.2,6.7c-1,3.4,4.1,8.9,4.1,13.3s-4.3,8.9-4.1,13.3
		c0.2,4.5,3.7,10.4,5.5,13.3c0.9,1.6,1.6,1.9,2.7,3.3c2,2.4,7.2,6.2,8.2,10c1.1,3.9-0.6,9.3-2.1,13.3c-1.4,3.7-4.4,7.6-6.1,10
		c-1,1.5-1.7,1.9-2.7,3.3c-1.6,2.2-3,7.1-5.5,8.9c-2.2,1.7-5.4,1.7-8.2,2.2c-2.7,0.5-5.5,0.6-8.2,0.7c-2.7,0.1-5.5,0-8.2,0.1
		c-2.7,0.1-5.5,0.9-8.2,0.6c-2.8-0.3-5.4-2.4-8.2-2.6C537.9,567.9,534.8,570.7,532.4,569.7z"/>
	<path class="st3" d="M532.4,568.1c-2.8-0.8-5.7-6.9-7-10c-1-2.3-0.5-4.5-1.2-6.7c-0.7-2.3-2.5-4-2.7-6.7c-0.3-3.6,2.3-8.9,2.7-13.3
		c0.4-4.4,0-8.9,0-13.3s-0.2-8.9,0-13.3c0.2-4.5,1.2-9.7,1-13.3c-0.1-2.6-0.2-4.5-1-6.7c-0.8-2.3-3.2-3.9-4.1-6.7
		c-1.1-3.6-1.8-9.6-0.8-13.3c0.8-3.2,2.7-6.2,4.9-8c2.2-1.8,5.4-2.5,8.2-2.9c2.7-0.4,5.5,0.4,8.2,0.5c2.7,0.1,5.5-0.2,8.2,0
		c2.7,0.2,5.5,1.6,8.2,1.5c2.8-0.2,5.4-2.4,8.2-2.5c2.7-0.2,5.5,1,8.2,1.4c2.7,0.4,5.7-0.2,8.2,1.1c3,1.6,8.1,5.7,8.2,8.9
		c0.2,3.3-6.4,8.3-8.2,10.7c-0.9,1.2-1.7,1.3-2,2.7c-0.7,2.7,1.9,8.9,2,13.3c0.1,4.4-1.5,9.7-1.4,13.3c0.1,2.6,0.7,4.5,1.4,6.7
		c0.7,2.3,1.5,4.5,2.7,6.7c1.4,2.3,3.7,4.4,5.5,6.7c1.8,2.2,4.6,3.8,5.5,6.7c1.1,3.5-0.2,9.8-1.4,13.3c-0.9,2.7-2.6,4.5-4.1,6.7
		c-1.6,2.3-4,4.6-5.5,6.7c-1.1,1.6-1.3,3.1-2.7,4.4c-1.9,1.8-5.4,3.5-8.2,4.4c-2.7,0.9-5.5,1.2-8.2,1.5c-2.7,0.3-5.5,0.1-8.2,0.3
		c-2.7,0.2-5.6,1.8-8.2,1.2c-2.9-0.6-5.4-4.9-8.2-5.2C537.9,564.5,534.8,568.8,532.4,568.1z M581.6,544.7v-13.3V544.7z M516,524.7
		c-1.5-0.4-2.5-4-2.7-6.7c-0.3-3.6,1-13,2.7-13.3c1.8-0.3,8.8,9.8,8.2,13.3C523.7,520.9,517.8,525.2,516,524.7z"/>
	<path class="st4" d="M532.4,566.4c-2.4-0.5-5.7-5.3-5.9-8.3c-0.2-3.4,4.8-8.8,5.9-11.1c0.5-1,0.9-1.4,0.9-2.2c0.1-1-0.3-2-0.9-3.3
		c-1.1-2.5-5.1-6.3-6.2-10c-1.1-4,0.1-8.9,0-13.3s-0.4-8.9-0.4-13.3s0.7-8.9,0.4-13.3c-0.3-4.5-1.2-8.9-2-13.3
		c-0.9-4.5-3.8-10-3.3-13.3c0.4-2.3,1.7-3.8,3.3-5.3c2-1.8,5.4-3.8,8.2-4.4c2.7-0.5,5.5,0.7,8.2,0.8c2.7,0.1,5.5-0.4,8.2,0
		c2.8,0.4,5.5,2.5,8.2,2.2c2.8-0.2,5.4-3.6,8.2-3.8c2.7-0.2,5.5,1.5,8.2,2.1c2.7,0.6,5.8,0.3,8.2,1.7c2.5,1.4,6.1,4.3,6.2,6.7
		c0.1,2.5-4.3,5.6-6.2,8c-1.5,2-3.5,3-4.1,5.3c-0.9,3.3,1.8,8.9,2,13.3c0.2,4.4-1,8.9-0.7,13.3c0.3,4.5,2.5,8.9,2.7,13.3
		c0.3,4.4-1,8.9-1.2,13.3c-0.1,4.4,0.2,8.9,0.4,13.3s2.3,9.9,0.8,13.3c-1.3,3-5.3,5.2-8.2,6.7c-2.6,1.3-5.4,1.8-8.2,2.2
		c-2.7,0.4-5.5,0.1-8.2,0.4c-2.8,0.4-5.6,2.5-8.2,1.8c-3-0.8-5.3-7.5-8.2-7.8C538,561.1,534.7,566.9,532.4,566.4z M589.8,548.1
		c-1.1,0.2-3.3-1.6-4.1-3.3c-1.3-2.8-1.3-10.5,0-13.3c0.8-1.8,2.9-3.5,4.1-3.3c1.1,0.1,2.2,1.7,2.7,3.3c0.9,2.9,0.2,10.4-0.7,13.3
		C591.4,546.3,590.7,547.9,589.8,548.1z"/>
	<path class="st5" d="M532.4,564.7c-2-0.3-4.5-4.2-4.7-6.7c-0.2-2.7,3.5-6.4,4.7-8.9c0.8-1.7,1.7-2.8,1.8-4.4c0.1-2-0.9-4.5-1.8-6.7
		c-1-2.3-3.3-3.9-4.1-6.7c-1-3.6,0.1-8.9,0-13.3c-0.1-4.4-0.6-8.9-0.8-13.3c-0.2-4.4,0-8.9-0.2-13.3c-0.2-4.5-0.3-9.7-1-13.3
		c-0.5-2.6-1.4-4.4-2-6.7c-0.6-2.2-1.9-5-1.6-6.7c0.2-1.1,0.7-1.7,1.6-2.7c1.6-1.7,5.3-5.1,8.2-5.8c2.6-0.6,5.5,0.9,8.2,1.1
		c2.7,0.2,5.5-0.5,8.2,0c2.8,0.5,5.5,3.2,8.2,3c2.8-0.3,5.4-4.8,8.2-5.1c2.7-0.3,5.5,2,8.2,2.9c2.7,0.8,6.1,0.9,8.2,2.2
		c1.8,1.1,4,2.9,4.1,4.4c0.1,1.7-2.6,3.4-4.1,5.3c-1.8,2.4-5.3,4.8-6.2,8c-1,3.7,1.7,8.9,2.1,13.3c0.3,4.4-0.3,8.9,0,13.3
		c0.3,4.5,1.8,8.9,2,13.3c0.3,4.4-0.4,8.9-0.3,13.3c0.1,4.4,0.8,8.9,0.7,13.3s0.5,10.3-1.1,13.3c-1.2,2.2-3.3,3.2-5.5,4.4
		c-2.4,1.3-5.4,2.4-8.2,3c-2.7,0.6-5.5,0.1-8.2,0.6c-2.8,0.5-5.7,3.2-8.2,2.4c-3.1-1-5.3-10.1-8.2-10.4
		C538,557.8,534.6,565.1,532.4,564.7z"/>
	<path class="st6" d="M532.4,563.1c-1.5-0.2-3.4-3.2-3.5-5c-0.1-2,2.5-4.4,3.5-6.7c1-2.2,2.6-4.2,2.7-6.7c0.2-3-1.7-7.6-2.7-10
		c-0.6-1.5-1.6-1.8-2-3.3c-0.8-2.9,0.2-8.9,0-13.3c-0.2-4.5-0.9-8.9-1.2-13.3c-0.3-4.4-0.7-8.9-0.8-13.3c-0.1-4.4,0.7-8.9,0-13.3
		c-0.7-4.5-5.1-9.8-4.1-13.3c0.9-3.1,5.3-6.4,8.2-7.3c2.6-0.7,5.5,1.1,8.2,1.3c2.7,0.2,5.5-0.6,8.2,0c2.8,0.6,5.6,4,8.2,3.7
		c2.8-0.3,5.4-6,8.2-6.3c2.6-0.3,5.4,2.5,8.2,3.6c2.7,1,6.5,1.6,8.2,2.8c1,0.7,2,1.4,2.1,2.2c0,0.8-1.1,1.5-2.1,2.7
		c-1.8,2.4-7.2,6.7-8.2,10.7c-1,4,1.6,8.9,2,13.3c0.5,4.4,0.3,8.9,0.7,13.3c0.3,4.5,1,8.9,1.4,13.3c0.3,4.4,0.3,8.9,0.6,13.3
		c0.3,4.4,1.4,8.9,1.1,13.3c-0.3,4.5-1.5,10.9-3,13.3c-0.8,1.2-1.5,1.5-2.7,2.2c-2,1.2-5.4,3-8.2,3.7c-2.7,0.7-5.5,0.1-8.2,0.7
		c-2.8,0.6-5.7,3.7-8.2,3c-3-0.9-5.9-10-7.9-10.6c-0.9-0.3-1.4,0.4-2.3,1C536.9,559,534.1,563.3,532.4,563.1z"/>
	<path class="st7" d="M532.4,561.4c-1-0.1-2.3-2.1-2.3-3.3c-0.1-1.3,1.5-2.7,2.3-4.4c1.1-2.4,3.4-5.6,3.6-8.9c0.2-4-3-8.8-3.6-13.3
		c-0.6-4.4,0.3-8.9,0-13.3c-0.3-4.5-1.1-8.9-1.6-13.3s-1.4-8.9-1.4-13.3c-0.1-4.4,1.6-9,1-13.3c-0.6-4.5-5.7-10-4.8-13.3
		c0.7-2.7,4.3-5.4,6.8-6.1c2.5-0.7,5.5,1.3,8.2,1.6c2.7,0.3,5.6-0.7,8.2,0c2.8,0.7,5.6,4.8,8.2,4.4c2.9-0.4,5.3-7.2,8.2-7.6
		c2.6-0.4,5.4,3,8.2,4.3c2.7,1.3,7.8,1.6,8.2,3.3c0.5,2.1-6.3,6.4-8.2,8.9c-1.3,1.7-2.4,2.5-2.7,4.4c-0.6,3.2,2,8.9,2.7,13.3
		c0.7,4.4,1,8.9,1.4,13.3c0.3,4.4,0.3,8.9,0.7,13.3c0.4,4.5,1,8.9,1.5,13.3c0.5,4.4,2,9,1.4,13.3c-0.6,4.5-2.3,10.3-4.9,13.3
		c-2.1,2.4-5.4,3.6-8.2,4.4c-2.7,0.8-5.5,0.2-8.2,0.9c-2.8,0.7-5.8,4.2-8.2,3.6c-2.7-0.7-5.7-6.4-7-8.9c-0.8-1.5-0.4-3.6-1.2-3.8
		c-0.9-0.2-2.7,2.6-4.1,3.8C535.1,559.3,533.5,561.6,532.4,561.4z M538.5,491.4c0.1,1.7,1.6,4.5,2,4.4c0.5-0.1,0.9-2.8,0.9-4.4
		c0.1-2-0.4-6.6-0.9-6.7C540.1,484.7,538.4,489.4,538.5,491.4z"/>
	<path class="st8" d="M532.4,559.7c-0.5-0.1-1.1-1.1-1.2-1.7c0-0.7,0.7-2.2,1.2-2.2c0.5-0.1,2.1,1.6,2,2.2
		C534.4,558.7,532.9,559.8,532.4,559.7z M548.8,566.2c-2.5-0.6-5.1-5.5-6.4-8.1c-1-2-1-3.7-1.8-5.7c-0.9-2.4-2.7-4.7-3.6-7.6
		c-1.2-3.8-3-9-2.5-13.3c0.6-4.5,6.4-9,6.2-13.3c-0.3-4.5-6.5-8.7-8.2-13.3c-1.6-4.3-2-8.9-2-13.3s1-13.3,2-13.3
		c1-0.1,2.6,9.4,4.1,13.3c1.3,3.3,3.1,9,4.1,8.9c1-0.1,1.7-5.6,1.8-8.9c0.1-4,0.4-11.4-1.8-13.3c-1.7-1.5-6.1,1.4-8.2,0
		c-2.9-1.9-6.2-10.2-5.5-13.3c0.5-2.3,3.3-4.3,5.5-4.8c2.3-0.6,5.5,1.6,8.2,1.9c2.7,0.3,5.8-0.6,8.2,0c2.1,0.5,3.8,2.4,5.5,3
		c1.2,0.4,2,1.1,3.2,0.7c2.2-0.6,5-7.1,7.7-7.4c2.6-0.3,5.9,3.8,8.2,5c1.6,0.8,3.9,0.8,4.1,1.7c0.2,1-2.7,2.6-4.1,4.4
		c-1.8,2.4-5,5.5-5.5,8.9c-0.5,3.9,2.9,8.9,3.8,13.3c0.9,4.4,1.4,8.9,1.6,13.3c0.3,4.4-0.4,8.9,0,13.3c0.4,4.5,1.7,8.9,2.3,13.3
		c0.7,4.4,2.2,9.1,1.8,13.3c-0.4,3.9-2.5,8.9-4.1,11.1c-0.9,1.2-1.6,1.5-2.7,2.2c-1.5,1-3.4,2.3-5.5,3c-2.4,0.8-5.5,0.2-8.2,1
		C554.2,562.9,551.2,566.8,548.8,566.2z"/>
	<path class="st9" d="M548.8,565.5c-2.3-0.4-4.5-4.8-5.9-7.4c-1.3-2.4-1.4-5.3-2.3-7.6c-0.8-2.1-2.1-3.3-2.7-5.7
		c-1-3.5-2-9.4-1.4-13.3c0.6-3.3,2-6.7,4.1-8.9c2-2.2,7.6-2.1,8.2-4.4c0.8-3-7.4-8.7-8.2-13.3c-0.8-4.3,2.5-8.9,2.7-13.3
		c0.3-4.4-0.5-9.7-1.1-13.3c-0.4-2.6-0.2-5.9-1.6-6.7c-1.6-0.8-6.2,4.2-8.2,3.3c-2.2-0.9-4.7-7.6-4.1-10c0.4-1.7,2.4-3.2,4.1-3.6
		c2.2-0.5,5.4,1.8,8.2,2.2c2.7,0.4,6.2-0.5,8.2,0c1.2,0.3,1.7,0.9,2.7,1.5c1.5,0.8,4.2,3.3,5.5,3c1-0.2,1.1-1.9,2-3
		c1.4-1.7,3.9-5.6,6.2-5.7c2.5-0.2,7.7,3.1,8.2,5.7c0.7,3.3-7.8,8.8-8.2,13.3c-0.4,4.3,4.9,8.9,4.9,13.3s-4.8,8.9-4.9,13.3
		c-0.1,4.4,2.5,9.7,4.1,13.3c1.2,2.7,3.2,4.4,4.1,6.7c0.8,2.1,0.7,4.1,1.2,6.7c0.6,3.7,2.5,9.4,2.1,13.3c-0.3,3.3-1.6,6.6-3.3,8.9
		c-1.4,2-3.9,3.4-5.5,4.4c-1,0.7-1.5,1.1-2.7,1.5c-2,0.6-5.6,0.3-8.2,1.2C554.2,561.7,551.1,565.9,548.8,565.5z M532.4,498.1
		c-0.5,0-1-4.4-1-6.7s0.5-6.6,1-6.7c0.5,0,2,4.4,2,6.7S532.9,498.1,532.4,498.1z"/>
	<path class="st10" d="M548.8,564.7c-2.1-0.4-3.9-4.1-5.3-6.7c-1.5-2.8-2-7.1-2.9-9.5c-0.6-1.6-1.4-2.1-1.8-3.8
		c-0.7-3-0.9-10.1-0.2-13.3c0.4-1.9,0.8-4,2-4.4c1.7-0.6,6.2,5.3,8.2,4.4c2.5-1,5-10.5,4.1-13.3c-0.5-1.7-2.7-1.8-4.1-3.3
		c-2-2.3-5.3-6.3-6.2-10c-0.9-4,1.4-8.9,1.6-13.3c0.2-4.4-1.1-9-0.4-13.3c0.7-4.5,2.3-12.4,4.9-13.3c2.1-0.8,6.3,4.9,8.2,4.4
		c1.5-0.4,1.8-3,3.1-4.4c1.4-1.6,3.2-4.6,5.1-4.8c2.1-0.1,6.4,2.6,6.8,4.8c0.6,2.8-5.5,8.8-6.8,11.1c-0.6,1-1.1,1.3-1.2,2.2
		c-0.1,1.2,0.6,2.7,1.2,4.4c0.8,2.5,3.3,5.9,3.3,8.9c0,3-2.4,6.4-3.3,8.9c-0.6,1.7-1.4,2.5-1.6,4.4c-0.4,3.2,1.4,8.9,1.6,13.3
		c0.3,4.4,0,8.9,0,13.3c0,4.4,0,8.9,0,13.3s1.9,11.1,0,13.3c-1.5,1.8-5.6,0.3-8.2,1.3C554.2,560.5,551.1,565.1,548.8,564.7z
		 M573.4,551.4c-1.8,0.5-7.7-3.8-8.2-6.7c-0.6-3.5,6.4-13.7,8.2-13.3c1.7,0.3,2.8,9.7,2.5,13.3C575.7,547.4,574.9,551,573.4,551.4z
		 M532.4,471.4c-1.5-0.4-3.1-5.1-2.7-6.7c0.3-1.1,1.5-2.1,2.7-2.4c1.9-0.4,7.9,1.1,8.2,2.4C540.9,466.3,534.2,471.9,532.4,471.4z"/>
	<path class="st11" d="M548.8,564c-1.9-0.3-3.4-3.4-4.7-5.9c-1.7-3.3-3.4-8.1-4-12.4c-0.6-4.5-1.5-13.2,0.5-14.3
		c1.6-0.9,6.3,4.9,8.2,4.4c1.4-0.4,1.8-2.5,2.7-4.4c1.6-3.2,3.7-13.3,5.5-13.3c1.8,0,4.8,8.8,5.5,13.3c0.6,4.4-0.5,8.9-1.4,13.3
		c-0.9,4.5-1.7,10-4.1,13.3C555,560.9,551,564.3,548.8,564z M573.4,549.2c-1.2,0.3-5.1-2.5-5.5-4.4c-0.4-2.3,4.3-9.1,5.5-8.9
		c1.1,0.2,1.9,6.5,1.6,8.9C574.9,546.5,574.4,548.9,573.4,549.2z M548.8,511.4c-1.8-2.1-3.4-3.9-4.1-6.7c-0.9-3.6,0.3-8.9,0.5-13.3
		s-0.4-9.4,0.4-13.3c0.6-3.3,1.2-7.7,3.3-8.9c1.9-1.1,6.1,2.3,8.2,1.5c1.9-0.8,2.6-4.2,4.1-5.9c1.3-1.5,2.6-3.7,4.1-3.8
		c1.7-0.1,5.1,2.1,5.5,3.8c0.5,2.2-4.1,6.4-5.5,8.9c-1,1.7-2.1,2.7-2.3,4.4c-0.3,2.4,1.6,6.4,2.3,8.9c0.6,1.8,1.6,3,1.6,4.4
		s-1,2.7-1.6,4.4c-0.9,2.5-2.1,5.6-3.3,8.9c-1.5,4-2.5,12.7-4.9,13.3C554.9,518.7,550.9,513.8,548.8,511.4z M532.4,468.1
		c-0.8-0.2-1.6-2.5-1.4-3.3c0.1-0.6,0.7-1.1,1.4-1.2c1-0.2,4,0.5,4.1,1.2C536.6,465.5,533.3,468.3,532.4,468.1z"/>
	<path class="st12" d="M548.8,563.3c-1.7-0.2-2.9-2.9-4.1-5.2c-1.7-3.3-5.3-10.3-4.1-13.3c1-2.5,6-2.3,8.2-4.4
		c2.4-2.2,4-6.1,5.5-8.9c1.2-2.3,1.8-6.7,2.7-6.7c0.9,0,2.5,4,2.7,6.7c0.3,3.6-2.1,8.9-2.7,13.3c-0.6,4.4,0.7,10.2-1,13.3
		C554.5,560.7,550.8,563.5,548.8,563.3z M573.4,547c-0.6,0.2-2.6-1.3-2.7-2.2c-0.2-1.2,2.1-4.6,2.7-4.4c0.5,0.1,0.9,3.2,0.8,4.4
		C574.2,545.6,573.9,546.8,573.4,547z M548.8,508.1c-1.1-1.1-1.6-1.8-2-3.3c-0.9-2.9-0.8-8.9-0.7-13.3c0.1-4.4,0.4-10.1,1.1-13.3
		c0.4-1.9,0.4-3.4,1.6-4.4c1.6-1.3,6-2.3,8.2-1.5c2.1,0.8,3.4,3.4,4.7,5.9c1.7,3.4,3.7,8.9,3.5,13.3c-0.2,4.5-3.5,9.3-4.9,13.3
		c-1.2,3.3-1.4,8.3-3.3,8.9C555.1,514.2,550.5,509.9,548.8,508.1z M565.2,471.4c-1.2-0.1-3.4-5-3.1-6.7c0.3-1.3,1.9-2.8,3.1-2.9
		c1.2-0.1,3.8,1.5,4.1,2.9C569.7,466.4,566.4,471.5,565.2,471.4z"/>
	<path class="st13" d="M548.8,562.5c-1.4-0.2-3.1-2.4-3.5-4.4c-0.7-3.1,1.9-13.2,3.5-13.3c1.6-0.1,7,10.3,6.2,13.3
		C554.4,560.3,550.5,562.8,548.8,562.5z M557,509.2c-1.6,0.6-6.5-2-8.2-4.4c-2.1-3-1.8-8.9-1.8-13.3s-0.3-10.3,1.8-13.3
		c1.7-2.5,6.2-4.9,8.2-4.4c1.6,0.3,2.8,2.4,3.5,4.4c1.2,3.1,0.9,8.9,0.6,13.3c-0.3,4.5-1.6,10.1-2.5,13.3
		C558.1,506.6,558.1,508.8,557,509.2z M565.2,469.2c-0.8,0-2.3-3.3-2-4.4c0.2-0.8,1.3-1.9,2-1.9c0.8-0.1,2.6,1,2.7,1.9
		C568.2,465.8,566,469.2,565.2,469.2z"/>
	<path class="st14" d="M548.8,561.8c-1.2-0.2-2.6-2-2.9-3.7c-0.5-2.6,1.6-11,2.9-11.1c1.4-0.1,5.8,8.6,5.1,11.1
		C553.4,559.9,550.2,562,548.8,561.8z M548.8,498.1c-1.1-0.4-0.9-4.4-0.9-6.7s0.3-4.5,0.9-6.7c0.6-2.3,1.3-5,2.7-6.7
		c1.4-1.5,4.1-3.2,5.5-3c1.1,0.2,2,1.5,2.3,3c0.7,2.8-0.3,9.9-2.3,13.3C555.2,494.4,550.2,498.6,548.8,498.1z M565.2,467
		c-0.4,0-1.1-1.7-1-2.2c0.1-0.4,0.6-0.9,1-1c0.4,0,1.3,0.5,1.4,1C566.7,465.3,565.6,467,565.2,467z"/>
	<path class="st15" d="M548.8,561c-1-0.1-2.1-1.6-2.3-3c-0.4-2.1,1.3-8.8,2.3-8.9c1.1-0.1,4.6,6.9,4.1,8.9
		C552.5,559.5,549.9,561.2,548.8,561z M557,484.7c-0.7,0.1-3.2-5.3-2.7-6.7c0.3-0.9,2.1-1.6,2.7-1.5c0.5,0.1,1,0.8,1.2,1.5
		C558.5,479.4,557.6,484.7,557,484.7z"/>
	<path class="st16" d="M548.8,560.3c-0.7-0.1-1.5-1.2-1.8-2.2c-0.3-1.6,1-6.6,1.8-6.7c0.8-0.1,3.5,5.1,3.1,6.7
		C551.6,559.2,549.6,560.4,548.8,560.3z"/>
	<path class="st17" d="M548.8,559.6c-0.5-0.1-1-0.8-1.2-1.5c-0.2-1,0.6-4.4,1.2-4.4c0.5,0,2.3,3.4,2.1,4.4
		C550.7,558.8,549.4,559.6,548.8,559.6z"/>
	<path class="st18" d="M548.8,558.8c-0.2,0-0.5-0.4-0.6-0.7c-0.1-0.5,0.3-2.2,0.6-2.2c0.3,0,1.2,1.7,1,2.2
		C549.7,558.4,549.1,558.9,548.8,558.8z"/>
</g>
<g>
</g>
<g>
</g>
<g>
</g>
<g>
</g>
<g>
</g>
<g>
</g>
<g>
</g>
<g>
</g>
<g>
</g>
<g>
</g>
<g>
</g>
<g>
	<g>
	</g>
	<g>
	</g>
</g>
<g>
	<g>
	</g>
	<g>
	</g>
</g>
<g>
	<g>
	</g>
	<g>
	</g>
</g>
<g>
	<g>
	</g>
	<g>
	</g>
</g>
<g>
</g>
<path class="st19" d="M485.6,72.2"/>
<path class="st19" d="M485.6,72.2"/>
<g>
</g>
<g>
</g>
<g>
</g>
<g>
</g>
<g>
</g>
<path class="st1" d="M494.1,115.1h122.7v128.7H494.1V115.1z"/>
<g>
	<path class="st20" d="M520.7,233.8c-5.3,0-15.6-11.7-15.6-17.6c0-6.1,10.9-12.3,16.5-18.6c5.7-6.4,11.6-13,17.3-19.6
		c5.8-6.5,11.6-13.1,17.4-19.6c5.8-6.5,11.7-13.1,17.5-19.5c5.6-6.2,11-18.4,16.4-18.4c5.2,0,15.5,11.5,15.5,17.4
		c0,6.1-10.8,12.2-16.3,18.5c-5.7,6.5-11.6,13.1-17.4,19.7c-5.8,6.5-11.6,13.1-17.4,19.6c-5.8,6.5-11.7,13.1-17.4,19.5
		C531.6,221.5,526.1,233.8,520.7,233.8z"/>
	<path class="st21" d="M520.7,231.9c-4.6,0-13.9-10.4-13.9-15.6c0-5.2,10.8-12.2,13.9-15.6c1.5-1.7,1.9-2.2,3.5-3.9
		c3.1-3.5,10.9-12.2,13.9-15.6c1.5-1.7,1.8-2.2,3.3-3.9c3.1-3.5,11-12.4,14.1-15.8c1.5-1.7,1.9-2.1,3.4-3.7
		c3.1-3.4,10.8-12.3,14-15.8c1.6-1.7,2.2-2.1,3.8-3.8c3.2-3.4,9.1-15.3,13.6-15.3s13.6,10.2,13.6,15.3s-10.6,11.7-13.6,15.3
		c-1.5,1.8-1.8,2.4-3.4,4.3c-3,3.6-11,12.3-14,15.8c-1.5,1.7-1.8,2.1-3.3,3.8c-3.1,3.5-10.9,12.4-14.1,15.8c-1.5,1.7-1.9,2-3.5,3.7
		c-3.1,3.4-10.8,12.2-13.9,15.6c-1.5,1.7-1.9,2.2-3.5,3.9C531.5,219.7,525.3,231.9,520.7,231.9z"/>
	<path class="st22" d="M520.7,229.9c-4.1,0-12.2-9.1-12.2-13.7c0-4.6,9-10.1,12.2-13.7c2.1-2.4,3.1-3.5,5.2-5.9
		c3.2-3.6,9-10.1,12.2-13.7c2-2.4,2.9-3.5,5-5.9c3.2-3.7,9.2-10.4,12.4-14c2.1-2.3,3-3.3,5.1-5.6c3.2-3.6,9-10.3,12.3-13.9
		c2.2-2.4,3.5-3.4,5.7-5.7c3.2-3.5,7.8-13.2,11.7-13.2s11.7,8.8,11.7,13.2s-8.7,9.5-11.7,13.2c-2.1,2.5-3,3.9-5.1,6.4
		c-3.2,3.8-9.1,10.2-12.3,13.9c-2,2.3-2.9,3.4-5,5.7c-3.2,3.6-9.1,10.4-12.4,14c-2.1,2.3-3.1,3.3-5.2,5.6c-3.2,3.5-9,10.1-12.2,13.7
		c-2.1,2.4-3.1,3.5-5.2,5.9C529.6,219.8,524.7,229.9,520.7,229.9z"/>
	<path class="st23" d="M520.7,228c-3.5,0-10.4-7.8-10.4-11.7c0-3.9,7.3-8.2,10.4-11.7c2.6-2.9,4.4-4.9,7-7.8
		c3.1-3.5,7.4-8.2,10.4-11.7c2.5-2.9,4.1-4.9,6.6-7.8c3.1-3.6,7.6-8.6,10.8-12.1c2.5-2.8,4.3-4.7,6.7-7.4c3.1-3.5,7.3-8.5,10.6-12
		c2.7-2.9,4.9-4.8,7.6-7.6c3.1-3.3,6.5-11.1,9.8-11.1s9.8,7.4,9.8,11.1s-6.9,7.6-9.8,11.1c-2.5,3-4.2,5.5-6.7,8.5
		c-3.1,3.7-7.5,8.4-10.6,12c-2.5,2.8-4.1,4.8-6.6,7.6c-3.1,3.6-7.5,8.6-10.8,12.1c-2.6,2.8-4.4,4.7-7,7.4
		c-3.1,3.5-7.3,8.2-10.4,11.7c-2.6,2.9-4.4,4.9-7,7.8C528,219.8,524.2,228,520.7,228z"/>
	<path class="st24" d="M520.7,226c-2.9,0-8.7-6.5-8.7-9.8c0-3.3,5.8-6.5,8.7-9.8c2.9-3.3,5.8-6.5,8.7-9.8c2.9-3.3,5.8-6.5,8.7-9.8
		c2.8-3.2,5.4-6.5,8.3-9.8c2.9-3.4,6.1-6.9,9.1-10.2c2.9-3.2,5.6-6.1,8.4-9.3c2.9-3.3,6-10.1,8.9-10.1s8.9,6.7,8.9,10.1
		s-6,6.7-8.9,10.1c-2.8,3.2-5.4,6.3-8.3,9.5c-3,3.4-6.1,6.9-9.1,10.2c-2.9,3.2-5.8,6.2-8.7,9.3c-2.9,3.2-5.8,6.5-8.7,9.8
		c-2.9,3.3-5.8,6.5-8.7,9.8C526.5,219.5,523.6,226,520.7,226z M590.2,146.9c-2.6,0-7.9-6-7.9-8.9s5.3-8.9,7.9-8.9s7.9,6,7.9,8.9
		S592.9,146.9,590.2,146.9z"/>
	<path class="st25" d="M520.7,224.1c-2.3,0-7-5.2-7-7.8c0-2.6,4.6-7.8,7-7.8c2.3,0,7,5.2,7,7.8C527.6,218.8,523,224.1,520.7,224.1z
		 M538.1,204.5c-2.3,0-7-5.2-7-7.8c0-2.6,4.6-7.8,7-7.8c2.3,0,7,5.2,7,7.8C545,199.3,540.4,204.5,538.1,204.5z M555.4,185.5
		c-2.5,0-7.4-5.6-7.4-8.4c0-2.8,5-8.4,7.4-8.4c2.5,0,7.4,5.6,7.4,8.4C562.9,179.9,557.9,185.5,555.4,185.5z M572.8,165.7
		c-2.4,0-7.3-5.4-7.3-8.2c0-2.7,4.8-8.2,7.3-8.2c2.4,0,7.3,5.4,7.3,8.2C580.1,160.3,575.2,165.7,572.8,165.7z M590.2,144.8
		c-2,0-6-4.5-6-6.8c0-2.3,4-6.8,6-6.8s6,4.5,6,6.8C596.3,140.3,592.2,144.8,590.2,144.8z"/>
	<path class="st26" d="M520.7,222.1c-1.7,0-5.2-3.9-5.2-5.9c0-2,3.5-5.9,5.2-5.9c1.7,0,5.2,3.9,5.2,5.9
		C525.9,218.2,522.4,222.1,520.7,222.1z M538.1,202.5c-1.7,0-5.2-3.9-5.2-5.9c0-2,3.5-5.9,5.2-5.9c1.7,0,5.2,3.9,5.2,5.9
		C543.3,198.6,539.8,202.5,538.1,202.5z M555.4,183.6c-1.9,0-5.8-4.3-5.8-6.5c0-2.2,3.9-6.5,5.8-6.5c1.9,0,5.8,4.3,5.8,6.5
		C561.2,179.3,557.4,183.6,555.4,183.6z M572.8,163.8c-1.9,0-5.6-4.2-5.6-6.3s3.7-6.3,5.6-6.3c1.9,0,5.6,4.2,5.6,6.3
		S574.7,163.8,572.8,163.8z M590.2,142.7c-1.4,0-4.2-3.1-4.2-4.7c0-1.6,2.8-4.7,4.2-4.7c1.4,0,4.2,3.1,4.2,4.7
		C594.4,139.6,591.6,142.7,590.2,142.7z"/>
	<path class="st27" d="M520.7,220.1c-1.2,0-3.5-2.6-3.5-3.9c0-1.3,2.3-3.9,3.5-3.9c1.2,0,3.5,2.6,3.5,3.9
		C524.2,217.5,521.8,220.1,520.7,220.1z M538.1,200.6c-1.2,0-3.5-2.6-3.5-3.9c0-1.3,2.3-3.9,3.5-3.9c1.2,0,3.5,2.6,3.5,3.9
		C541.5,198,539.2,200.6,538.1,200.6z M555.4,181.8c-1.4,0-4.1-3.1-4.1-4.7c0-1.6,2.8-4.7,4.1-4.7c1.4,0,4.1,3.1,4.1,4.7
		C559.6,178.7,556.8,181.8,555.4,181.8z M572.8,161.9c-1.3,0-3.9-2.9-3.9-4.4c0-1.5,2.6-4.4,3.9-4.4c1.3,0,3.9,2.9,3.9,4.4
		C576.7,159,574.1,161.9,572.8,161.9z M590.2,140.6c-0.8,0-2.3-1.7-2.3-2.6c0-0.8,1.5-2.6,2.3-2.6c0.8,0,2.3,1.7,2.3,2.6
		C592.5,138.9,591,140.6,590.2,140.6z"/>
	<path class="st28" d="M520.7,218.2c-0.6,0-1.7-1.3-1.7-2c0-0.6,1.2-2,1.7-2c0.6,0,1.7,1.3,1.7,2
		C522.4,216.9,521.3,218.2,520.7,218.2z M538.1,198.6c-0.6,0-1.7-1.3-1.7-2c0-0.7,1.2-2,1.7-2c0.6,0,1.7,1.3,1.7,2
		C539.8,197.3,538.6,198.6,538.1,198.6z M555.4,179.9c-0.8,0-2.5-1.9-2.5-2.8s1.7-2.8,2.5-2.8c0.8,0,2.5,1.9,2.5,2.8
		S556.3,179.9,555.4,179.9z M572.8,160c-0.7,0-2.2-1.6-2.2-2.5s1.5-2.5,2.2-2.5c0.7,0,2.2,1.6,2.2,2.5S573.6,160,572.8,160z
		 M590.2,138.4c-0.1,0-0.4-0.3-0.4-0.4c0-0.1,0.3-0.4,0.4-0.4s0.4,0.3,0.4,0.4C590.6,138.1,590.3,138.4,590.2,138.4z"/>
	<path class="st18" d="M555.4,178.1c-0.3,0-0.8-0.6-0.8-0.9c0-0.3,0.6-0.9,0.8-0.9c0.3,0,0.8,0.6,0.8,0.9
		C556.3,177.4,555.7,178.1,555.4,178.1z M572.8,158.1c-0.2,0-0.5-0.4-0.5-0.6c0-0.2,0.3-0.6,0.5-0.6c0.2,0,0.5,0.4,0.5,0.6
		C573.3,157.8,573,158.1,572.8,158.1z"/>
</g>
<g>
</g>
<path class="st29" d="M485.6,72.2"/>
<path class="st29" d="M485.6,72.2"/>
<g>
</g>
<g>
</g>
<g>
</g>
<g>
</g>
<g>
</g>
<g>
</g>
<g>
</g>
<g>
</g>
<g>
</g>
<g>
</g>
<g>
	<g>
	</g>
	<g>
	</g>
</g>
<g>
	<g>
	</g>
	<g>
	</g>
</g>
<g>
	<g>
	</g>
	<g>
	</g>
</g>
<g>
	<g>
	</g>
	<g>
	</g>
</g>
<g>
</g>
<g>
</g>
<g>
</g>
<g>
</g>
<g>
</g>
<path class="st1" d="M494.3,275.7h122.5v129.7H494.3V275.7z"/>
<path class="st30" d="M526,394.9c-6,0-15.4-6.6-18.1-11.3c-2-3.6-0.1-8.2-0.1-12.3c0-4.1,0-8.2,0-12.3s-1.8-8.7,0.3-12.3
	c2.7-4.8,15.8-6.9,18.7-11.7c2.2-3.7-1.4-9.2,0.8-12.9c2.8-4.7,12.9-9.5,18-11.3c3.3-1.2,7.2,0.8,8.9-1c2-2.1-1-9.2,0.9-12.3
	c1.8-3,5.8-4.4,9.8-6.2c5.3-2.3,13.5-6.1,19.7-5.1c6.4,1,15.5,6.6,18,11.3c1.9,3.6,1.6,8.8-0.4,12.3c-2.7,4.6-11.3,9.1-17.6,11
	c-6.2,1.8-16.7-2.6-19.9,0.4c-2.6,2.5,1.4,9.4-0.9,13.2c-3,5-16.6,6.8-19.5,11.8c-2.2,3.7-0.5,8.6-0.6,12.8c-0.1,4.1,0,8.2,0,12.3
	c0,4.1,1.9,8.7-0.1,12.3C541.5,388.3,532.1,394.9,526,394.9z"/>
<path class="st31" d="M526,393.8c-5.5,0-14-5.9-16.5-10.3c-2-3.5-0.2-8.2-0.2-12.3c0-4.1-0.1-8.2,0-12.3c0.1-4.1-1.5-8.8,0.5-12.3
	c2.5-4.3,12.8-7.9,16.1-10.1c1.5-1,2.6-0.9,3.3-2.2c1.2-2.3-1.9-8.8,0-12.3c2.4-4.4,10.5-8.2,16.3-10.2c5.6-2,14.8,0.9,17.9-2.1
	c2.6-2.5-0.7-8.9,1.8-12.3c3.3-4.6,13.5-10.5,19.7-10.3c5.8,0.2,14.2,5.9,16.4,10.3c1.8,3.5,1.2,8.9-0.8,12.3
	c-2.5,4.2-10,9.3-15.6,9.7c-6.1,0.5-16.4-9.8-19.7-8c-2.4,1.3-1.7,6.9-2.1,10.5c-0.5,3.9,1.5,8.8-0.6,12.3
	c-2.6,4.4-13.4,8.1-16.9,10.2c-1.6,1-2.9,0.8-3.6,2.1c-1.2,2.3,0.4,8.2,0.5,12.3c0.1,4.1,0.1,8.2,0,12.3c0,4.1,1.7,8.8-0.2,12.3
	C540,387.9,531.5,393.8,526,393.8z"/>
<path class="st32" d="M526,392.8c-4.9,0-12.5-5.2-14.8-9.3c-2-3.4-0.3-8.2-0.4-12.3c0-4.1-0.1-8.2,0.1-12.3s-1.2-8.9,0.8-12.3
	c2.4-4,10.8-6.7,14.3-8.9c2.1-1.4,4-1.5,5-3.4c1.4-2.6-1.9-8.9,0-12.3c2.2-4,9.7-9.1,14.7-9.2c5.1-0.1,13.5,5.1,15.7,9.2
	c1.8,3.4,1.5,8.9-0.6,12.3c-2.4,4.1-11.4,6.9-15.2,9.2c-2.2,1.3-4.4,1.3-5.4,3.1c-1.4,2.6,0.7,8.2,0.8,12.3s0.1,8.2,0.1,12.3
	c0,4.1,1.6,8.9-0.4,12.3C538.6,387.6,531,392.8,526,392.8z M585.1,318.2c-5.4,0.3-14.9-4.3-17.6-8.5c-2.1-3.3-2.2-8.9-0.2-12.3
	c2.6-4.3,12.1-9.4,17.7-9.2c5.2,0.2,12.8,5.2,14.8,9.2c1.7,3.4,0.8,9-1.2,12.3C596.3,313.6,590,317.9,585.1,318.2z"/>
<path class="st33" d="M526,391.8c-4.4,0-11.1-4.5-13.2-8.3c-1.9-3.3-0.4-8.2-0.5-12.3c-0.1-4.1-0.1-8.2,0.1-12.3
	c0.2-4.1-0.9-9,1.1-12.3c2.2-3.6,9-5.6,12.5-7.8c2.6-1.7,5.4-2.2,6.7-4.5c1.5-2.9-1.8-9,0-12.3c2.1-3.7,8.6-8.1,13-8.1
	c4.5-0.1,11.9,4.4,14,8.1c1.8,3.3,1.5,9-0.5,12.3c-2.2,3.7-9.7,5.9-13.5,8.1c-2.8,1.6-6,1.9-7.2,4.2c-1.4,2.8,0.9,8.2,1.1,12.3
	c0.2,4.1,0.2,8.2,0.1,12.3c-0.1,4.1,1.4,9-0.5,12.3C537.1,387.3,530.5,391.8,526,391.8z M585.1,316.9c-4.6,0.3-12.4-3.5-14.9-7.2
	c-2.1-3.2-2.7-9-0.8-12.3c2.2-3.9,10.8-8.4,15.7-8.2c4.6,0.2,11.4,4.5,13.1,8.2c1.6,3.3,0.4,9.1-1.6,12.3
	C594.4,313.1,589.2,316.7,585.1,316.9z"/>
<path class="st34" d="M526,390.8c-3.9,0-9.6-3.9-11.6-7.3c-1.9-3.2-0.5-8.2-0.6-12.3c-0.1-4.1-0.1-8.2,0.1-12.3
	c0.3-4.1-0.6-9.1,1.4-12.3c2-3.2,7.4-4.5,10.7-6.7c3-1.9,6.9-2.9,8.3-5.6c1.6-3-1.8-9.1,0-12.3c1.9-3.3,7.5-7,11.3-7.1
	c4-0.1,10.3,3.7,12.2,7.1c1.8,3.2,1.5,9.1-0.4,12.3c-2,3.4-8.1,4.9-11.7,7.1c-3.2,1.9-7.6,2.5-8.9,5.2c-1.5,3,1.1,8.2,1.4,12.3
	c0.2,4.1,0.2,8.2,0.1,12.3c-0.1,4.1,1.3,9.1-0.6,12.3C535.7,387,529.9,390.8,526,390.8z M585.1,315.7c-3.8,0.2-10-2.7-12.2-5.9
	c-2.2-3-3.2-9.1-1.5-12.3c1.9-3.6,9.4-7.3,13.8-7.2c4,0.2,10,3.8,11.5,7.2c1.5,3.2,0,9.2-2.1,12.3
	C592.6,312.6,588.5,315.5,585.1,315.7z"/>
<path class="st35" d="M526,389.8c-3.3,0-8.2-3.2-10-6.3c-1.8-3.1-0.6-8.2-0.7-12.3c-0.1-4.1-0.2-8.2,0.1-12.3
	c0.3-4.1-0.3-9.3,1.6-12.3c1.8-2.8,6-5.6,8.9-5.6s7.2,2.8,8.9,5.6c1.9,3,1.4,8.2,1.6,12.3c0.3,4.1,0.2,8.2,0.1,12.3
	c-0.1,4.1,1.1,9.2-0.7,12.3C534.2,386.6,529.4,389.8,526,389.8z M545.7,340.4c-3.3,0-8-3.1-9.7-6c-1.7-3.1-1.7-9.2,0-12.3
	c1.6-3,6.4-6,9.7-6c3.4-0.1,8.7,3,10.4,6c1.7,3.1,1.4,9.2-0.4,12.3C554,337.4,549,340.4,545.7,340.4z M585.1,314.4
	c-2.9,0.2-7.6-2-9.6-4.6c-2.2-2.8-3.7-9.2-2.2-12.3c1.5-3.2,8.1-6.3,11.8-6.2c3.5,0.1,8.6,3.2,9.8,6.2c1.3,3.1-0.5,9.4-2.5,12.3
	C590.8,312.2,587.7,314.2,585.1,314.4z"/>
<path class="st36" d="M526,388.8c-2.8,0-6.8-2.6-8.4-5.2c-1.8-3-0.7-8.2-0.9-12.3c-0.1-4.1-0.2-8.2,0.2-12.3c0.3-4.1,0-9.5,1.9-12.3
	c1.5-2.3,4.8-4.5,7.2-4.5s5.6,2.1,7.2,4.5c1.9,2.8,1.6,8.2,1.9,12.3c0.3,4.1,0.3,8.2,0.2,12.3c-0.1,4.1,0.9,9.3-0.9,12.3
	C532.8,386.2,528.8,388.8,526,388.8z M545.7,339.4c-2.7,0-6.6-2.4-8-5c-1.6-2.9-1.6-9.4,0-12.3c1.4-2.6,5.3-5,8-5
	c2.8,0,7.1,2.4,8.6,5c1.6,2.9,1.4,9.4-0.3,12.3C552.5,337,548.5,339.4,545.7,339.4z M585.1,313.1c-2.1,0.1-5.3-1.3-6.9-3.3
	c-2.1-2.6-4.3-9.4-2.9-12.3c1.3-2.7,6.7-5.2,9.8-5.1c2.9,0.1,7.1,2.5,8.2,5.1c1.2,3-1,9.7-2.9,12.3C589.1,311.6,587,313,585.1,313.1
	z"/>
<path class="st37" d="M526,387.8c-2.3,0-5.4-2-6.8-4.2c-1.7-2.8-0.8-8.2-1-12.3c-0.1-4.1-0.2-8.2,0.2-12.3c0.4-4.1,0.4-9.7,2.2-12.3
	c1.3-1.9,3.6-3.4,5.4-3.4s4.1,1.5,5.4,3.4c1.8,2.6,1.8,8.2,2.2,12.3c0.4,4.1,0.3,8.2,0.2,12.3c-0.1,4.1,0.7,9.5-1,12.3
	C531.5,385.8,528.3,387.8,526,387.8z M545.7,338.3c-2.1,0-5.2-1.8-6.3-4c-1.5-2.7-1.5-9.6,0-12.3c1.2-2.1,4.2-3.9,6.3-4
	c2.2,0,5.6,1.8,6.8,4c1.5,2.7,1.3,9.6-0.2,12.3C551,336.5,547.9,338.3,545.7,338.3z M585.1,311.8c-1.3,0.1-3.1-0.7-4.3-2.1
	c-1.9-2.2-4.8-9.5-3.6-12.3c1-2.3,5.4-4.2,7.9-4.1c2.3,0.1,5.7,1.9,6.6,4.1c1.1,2.8-1.6,10-3.3,12.3
	C587.4,311,586.3,311.7,585.1,311.8z"/>
<path class="st38" d="M526,386.8c-1.7,0-4-1.4-5.2-3.2c-1.6-2.6-1-8.2-1.1-12.3c-0.1-4.1-0.2-8.2,0.2-12.3c0.4-4.1,0.9-10,2.5-12.3
	c0.9-1.3,2.4-2.2,3.6-2.2s2.6,0.9,3.6,2.2c1.6,2.3,2,8.2,2.5,12.3c0.4,4.1,0.4,8.2,0.2,12.3c-0.1,4.1,0.5,9.7-1.1,12.3
	C530.1,385.4,527.8,386.8,526,386.8z M545.7,337.3c-1.6,0-3.7-1.2-4.7-2.9c-1.4-2.5-1.4-9.8,0-12.3c0.9-1.7,3.1-2.9,4.7-2.9
	c1.6,0,4,1.2,5,2.9c1.4,2.5,1.3,9.8-0.2,12.3C549.6,336.1,547.3,337.3,545.7,337.3z M585.1,310.5c-0.5,0.2-1.1-0.2-1.6-0.8
	c-1.4-1.6-5.3-9.8-4.3-12.3c0.7-1.8,4-3.1,5.9-3.1c1.7,0.1,4.3,1.4,4.9,3.1C590.9,300.1,586.6,309.9,585.1,310.5z"/>
<path class="st39" d="M526,385.8c-1.2,0-2.7-0.9-3.6-2.2c-1.4-2.3-1.1-8.2-1.2-12.3c-0.2-4.1-0.5-8.2,0.2-12.3
	c0.7-4.2,2.6-12.5,4.1-12.6c1.5,0,4.1,8.3,5,12.6c0.8,4.1,0.4,8.2,0.2,12.3c-0.2,4.1,0.2,10-1.2,12.3
	C528.8,384.9,527.2,385.8,526,385.8z M545.7,336.2c-1,0-2.3-0.7-3-1.9c-1.2-2.2-1.2-10.1,0-12.3c0.7-1.2,2-1.9,3-1.9
	c1.1,0,2.5,0.7,3.2,1.9c1.2,2.2,1.1,10.1-0.1,12.3C548.2,335.6,546.7,336.2,545.7,336.2z M585.1,307.7c-1.2,0-4.7-8.3-3.9-10.3
	c0.5-1.3,2.7-2.1,3.9-2.1c1.2,0,2.8,0.9,3.3,2.1C589.1,299.5,586.3,307.7,585.1,307.7z"/>
<path class="st40" d="M525.1,384.2c-1.1-0.1-2-8.6-2.3-12.9c-0.3-4.1-0.3-8.2,0.3-12.3c0.5-4.1,2-12.3,3-12.3s2.5,8.2,3,12.3
	c0.5,4.1,0.9,8.2,0.3,12.3C528.7,375.6,526.2,384.2,525.1,384.2z M545.7,335.2c-0.4,0-1-0.2-1.3-0.8c-0.9-1.7-0.9-10.6,0-12.3
	c0.3-0.6,0.9-0.8,1.3-0.8c0.5,0,1.1,0.2,1.4,0.8c0.9,1.7,0.9,10.6-0.1,12.3C546.8,335,546.2,335.2,545.7,335.2z M585.1,302.6
	c-0.6,0-2.3-4.1-2-5.1c0.2-0.6,1.4-1,2-1c0.6,0,1.4,0.4,1.6,1C587.1,298.5,585.7,302.6,585.1,302.6z"/>
<path class="st41" d="M525.7,383.6c-0.6,0-1.3-8.2-1.5-12.3c-0.2-4.1-0.2-8.9,0.3-12.3c0.3-2.4,1-6.2,1.5-6.2s1.2,3.7,1.5,6.2
	c0.4,3.4,0.6,8.2,0.3,12.3C527.5,375.4,526.3,383.6,525.7,383.6z"/>
<path class="st18" d="M526,373.7c-0.1,0-0.2-1.3-0.3-2.5c-0.1-2.5,0.2-12.3,0.3-12.3s0.4,9.8,0.3,12.3
	C526.3,372.4,526.1,373.7,526,373.7z"/>
<g>
</g>
<g>
</g>
<g>
</g>
<g>
</g>
<g>
</g>
<g>
</g>
<g>
</g>
<g>
</g>
<g>
</g>
<g>
</g>
<g>
</g>
<g>
	<g>
	</g>
	<g>
	</g>
</g>
<g>
	<g>
	</g>
	<g>
	</g>
</g>
<g>
	<g>
	</g>
	<g>
	</g>
</g>
<g>
	<g>
	</g>
	<g>
	</g>
</g>
<g>
</g>
<g>
</g>
<g>
</g>
<g>
</g>
<g>
</g>
<g>
</g>
<g>
</g>
<g>
</g>
<g>
</g>
<g>
</g>
<g>
</g>
<g>
</g>
<g>
</g>
<g>
</g>
<g>
</g>
<g>
</g>
<g>
	<g>
	</g>
	<g>
	</g>
</g>
<g>
	<g>
	</g>
	<g>
	</g>
</g>
<g>
	<g>
	</g>
	<g>
	</g>
</g>
<g>
	<g>
	</g>
	<g>
	</g>
</g>
<g>
</g>
<path class="st19" d="M302.6,64.6"/>
<path class="st19" d="M302.6,64.6"/>
<g>
</g>
<g>
</g>
<g>
</g>
<g>
</g>
<g>
</g>
<path class="st29" d="M302.6,64.6"/>
<path class="st29" d="M302.6,64.6"/>
<g>
</g>
<g>
</g>
<g>
</g>
<g>
</g>
<g>
</g>
<g>
</g>
<g>
</g>
<g>
</g>
<g>
</g>
<g>
</g>
<g>
	<g>
	</g>
	<g>
	</g>
</g>
<g>
	<g>
	</g>
	<g>
	</g>
</g>
<g>
	<g>
	</g>
	<g>
	</g>
</g>
<g>
	<g>
		<path class="st42" d="M149.6,115.1v127.8"/>
		<path class="st42" d="M183.2,115.1v127.8"/>
		<path class="st42" d="M216.8,115.1v127.8"/>
		<path class="st42" d="M250.4,115.1v127.8"/>
	</g>
	<g>
		<path class="st43" d="M132.8,226.9h134.5"/>
		<path class="st43" d="M132.8,195h134.5"/>
		<path class="st43" d="M132.8,163h134.5"/>
		<path class="st43" d="M132.8,131h134.5"/>
	</g>
</g>
<g>
</g>
<path class="st43" d="M109.6,78.5"/>
<path class="st43" d="M109.6,78.5"/>
<g>
</g>
<g>
</g>
<g>
</g>
<g>
</g>
<g>
	<defs>
		<rect id="SVGID_1_" x="132.8" y="115.1" width="134.5" height="127.8"/>
	</defs>
	<clipPath id="SVGID_2_">
		<use xlink:href="#SVGID_1_"  style="overflow:visible;"/>
	</clipPath>
	<g transform="translate(80, 100)" class="st44">
		<g>
			<g>
				
					<image style="overflow:visible;enable-background:new    ;" width="240" height="220" xlink:href="60FE9AB21BF51A5C.png"  transform="matrix(0.5602 0 0 0.5811 52.7997 15.0614)">
				</image>
			</g>
		</g>
	</g>
</g>
<g>
</g>
<path class="st29" d="M109.6,78.5"/>
<path class="st29" d="M109.6,78.5"/>
<g>
</g>
<g>
</g>
<g>
</g>
<g>
</g>
<g>
</g>
<g>
</g>
<g>
</g>
<g>
</g>
<g>
</g>
<g>
</g>
<g>
	<g>
	</g>
	<g>
	</g>
</g>
<g>
</g>
<g>
	<rect x="132.8" y="275.7" class="st19" width="134.5" height="129.4"/>
</g>
<g>
	<g>
	</g>
	<g>
	</g>
</g>
<g>
	<g>
	</g>
	<g>
	</g>
</g>
<g>
	<g>
		<path class="st42" d="M149.6,275.7V405"/>
		<path class="st42" d="M183.2,275.7V405"/>
		<path class="st42" d="M216.8,275.7V405"/>
		<path class="st42" d="M250.4,275.7V405"/>
	</g>
	<g>
		<path class="st43" d="M132.8,383.5h134.5"/>
		<path class="st43" d="M132.8,340.3h134.5"/>
		<path class="st43" d="M132.8,297.2h134.5"/>
	</g>
</g>
<g>
</g>
<g>
</g>
<g>
</g>
<g>
</g>
<g>
</g>
<g>
	<defs>
		<rect id="SVGID_3_" x="132.8" y="275.7" width="134.5" height="129.4"/>
	</defs>
	<clipPath id="SVGID_4_">
		<use xlink:href="#SVGID_3_"  style="overflow:visible;"/>
	</clipPath>
	<g transform="translate(80, 100)" class="st45">
		<g>
			<g>
				
					<image style="overflow:visible;enable-background:new    ;" width="240" height="220" xlink:href="60FE9AB21BF51A5F.png"  transform="matrix(0.5602 0 0 0.588 52.7997 175.6612)">
				</image>
			</g>
		</g>
	</g>
</g>
<g>
</g>
<g>
</g>
<g>
</g>
<g>
</g>
<g>
</g>
<g>
</g>
<g>
</g>
<g>
</g>
<g>
</g>
<g>
</g>
<g>
</g>
<g>
	<g>
	</g>
	<g>
	</g>
</g>
<text transform="matrix(1 0 0 1 164.4322 79.1843)"><tspan x="0" y="0" class="st46 st47">Discrete v.</tspan><tspan x="8.3" y="18" class="st46 st47">Discrete</tspan></text>
<text transform="matrix(1 0 0 1 64.9328 516.6691)" class="st46 st47">Low</text>
<text transform="matrix(1 0 0 1 60.7326 168.7809)" class="st46 st47">High</text>
<text transform="matrix(1 0 0 1 301.6831 38.2145)" class="st46 st48">FEATURE PAIR TYPE</text>
<text transform="matrix(1 0 0 1 32.322 326.8117)"><tspan x="0" y="0" class="st46 st48">MUTUAL</tspan><tspan x="22.6" y="19.3" class="st46 st48">INFO.</tspan></text>
<text transform="matrix(1 0 0 1 340.333 79.1843)"><tspan x="0" y="0" class="st46 st47">Discrete v.</tspan><tspan x="-2.3" y="18" class="st46 st47">Continuous</tspan></text>
<text transform="matrix(1 0 0 1 506.8759 79.1843)"><tspan x="0" y="0" class="st46 st47">Continuous v.</tspan><tspan x="8.3" y="18" class="st46 st47">Continuous</tspan></text>
<g>
	<rect x="133.5" y="447.5" class="st19" width="133.7" height="129.6"/>
</g>
<g>
	<g>
	</g>
	<g>
	</g>
</g>
<g>
	<g>
	</g>
	<g>
	</g>
</g>
<g>
	<g>
		<path class="st42" d="M155.8,447.5v129.6"/>
		<path class="st42" d="M200.4,447.5v129.6"/>
		<path class="st42" d="M245,447.5v129.6"/>
	</g>
	<g>
		<path class="st43" d="M133.5,544.7h133.7"/>
		<path class="st43" d="M133.5,479.9h133.7"/>
	</g>
</g>
<g>
</g>
<g>
</g>
<g>
</g>
<g>
</g>
<g>
</g>
<g>
	<defs>
		<rect id="SVGID_5_" x="133.5" y="447.5" width="133.7" height="129.6"/>
	</defs>
	<clipPath id="SVGID_6_">
		<use xlink:href="#SVGID_5_"  style="overflow:visible;"/>
	</clipPath>
	<g transform="translate(80, 100)" class="st49">
		<g>
			<g>
				
					<image style="overflow:visible;enable-background:new    ;" width="240" height="220" xlink:href="60FE9AB21BF51A5A.png"  transform="matrix(0.5573 0 0 0.5889 53.5074 347.5157)">
				</image>
			</g>
		</g>
	</g>
</g>
<g>
</g>
<g>
</g>
<g>
</g>
<g>
</g>
<g>
</g>
<g>
</g>
<g>
</g>
<g>
</g>
<g>
</g>
<g>
</g>
<g>
</g>
<g>
	<g>
	</g>
	<g>
	</g>
</g>
<g>
	<g>
		<line class="st50" x1="81.3" y1="293" x2="81.3" y2="193.3"/>
		<g>
			<polygon points="88.7,198.9 81.3,195.8 73.9,198.9 81.3,181.4 			"/>
		</g>
	</g>
</g>
<g>
	<g>
		<line class="st50" x1="81.3" y1="369.6" x2="81.3" y2="477.2"/>
		<g>
			<polygon points="73.9,471.6 81.3,474.8 88.7,471.6 81.3,489.2 			"/>
		</g>
	</g>
</g>
<polyline class="st51" points="494.3,275.7 494.3,405.4 616.8,405.4 "/>
<polyline class="st51" points="304.7,275.7 304.7,405.4 447.1,405.4 "/>
<polyline class="st51" points="132.8,275.7 132.8,405.4 267.3,405.4 "/>
<polyline class="st51" points="132.8,113.2 132.8,242.9 267.3,242.9 "/>
<polyline class="st51" points="132.8,447.5 132.8,577.2 267.3,577.2 "/>
<polyline class="st51" points="494.3,115.1 494.3,244.8 616.8,244.8 "/>
<polyline class="st51" points="494.3,446.7 494.3,576.4 616.8,576.4 "/>
<path class="st52" d="M421.2,341.1v-0.8c0.2-0.3,0.3-0.6,0.4-0.8c0.1-0.4,0.3-0.8,0.4-1.3c0.1-0.6,0.3-1.3,0.4-2
	c0.1-0.9,0.3-1.8,0.4-2.8c0.1-1.1,0.3-2.4,0.4-3.6c0.1-1.4,0.3-2.9,0.4-4.4c0.1-1.6,0.3-3.4,0.4-5.1c0.1-1.8,0.3-3.7,0.4-5.6
	c0.1-1.9,0.3-3.8,0.4-5.7c0.1-1.8,0.3-3.7,0.4-5.4c0.1-1.6,0.3-3.2,0.4-4.6c0.1-1.2,0.2-2.5,0.4-3.5c0.1-0.8,0.2-1.6,0.4-2.2
	c0.1-0.4,0.2-0.8,0.4-0.9c0.1-0.1,0.3,0,0.4,0c0.2,0.1,0.3,0.4,0.4,0.6c0.1,0.2,0.3,0.5,0.4,0.8c0.1,0.3,0.3,0.5,0.4,0.8
	c0.1,0.3,0.3,0.6,0.4,0.9c0.1,0.4,0.3,0.7,0.4,1.2c0.1,0.5,0.3,1,0.4,1.5c0.1,0.6,0.3,1.2,0.4,1.8c0.1,0.6,0.3,1.3,0.4,2
	c0.1,0.7,0.3,1.3,0.4,2c0.1,0.7,0.3,1.4,0.4,2.1c0.1,0.8,0.3,1.7,0.4,2.6c0.1,1.1,0.3,2.2,0.4,3.4c0.1,1.4,0.3,2.9,0.4,4.4
	c0.1,1.6,0.3,3.4,0.4,5.1c0.1,1.7,0.3,3.5,0.4,5.2c0.1,1.6,0.3,3.2,0.4,4.7c0.1,1.3,0.3,2.6,0.4,3.8c0.1,1,0.2,1.9,0.4,2.6
	c0.1,0.4,0.2,1,0.4,1.6v1.7"/>
<line class="st51" x1="304.7" y1="340.6" x2="447.1" y2="340.6"/>
<path class="st0" d="M401.8,373.6v-0.8c0.3-0.3,0.6-0.6,0.7-0.8c0.3-0.4,0.5-0.8,0.7-1.3c0.3-0.6,0.5-1.3,0.7-2.1
	c0.3-0.9,0.5-1.8,0.7-2.8c0.2-1.1,0.5-2.3,0.7-3.5c0.2-1.3,0.5-2.7,0.7-4c0.2-1.4,0.5-2.8,0.7-4.1c0.2-1.3,0.5-2.6,0.7-3.9
	c0.2-1.2,0.5-2.3,0.7-3.4c0.2-1,0.5-1.9,0.7-2.8c0.2-0.8,0.5-1.5,0.7-2.2c0.2-0.6,0.4-1.2,0.7-1.7c0.2-0.5,0.5-0.9,0.7-1.3
	c0.2-0.3,0.5-0.6,0.7-0.9c0.2-0.2,0.5-0.4,0.7-0.6c0.2-0.2,0.5-0.4,0.7-0.6c0.2-0.3,0.5-0.6,0.7-0.9c0.3-0.4,0.5-1,0.7-1.5
	c0.3-0.7,0.5-1.4,0.7-2.2c0.2-0.8,0.5-1.7,0.7-2.6c0.2-0.8,0.4-1.7,0.7-2.5c0.2-0.6,0.4-1.4,0.7-1.8c0.2-0.3,0.5-0.5,0.7-0.5
	c0.3,0,0.5,0.6,0.7,1c0.3,0.6,0.5,1.5,0.7,2.4c0.3,1.1,0.5,2.3,0.7,3.6c0.2,1.4,0.5,2.9,0.7,4.4c0.2,1.6,0.5,3.3,0.7,5
	c0.2,1.7,0.5,3.5,0.7,5.3c0.2,1.8,0.5,3.6,0.7,5.4c0.2,1.7,0.5,3.5,0.7,5.2c0.2,1.6,0.5,3.2,0.7,4.7c0.2,1.4,0.5,2.7,0.7,3.9
	c0.2,1.1,0.4,2.1,0.7,3c0.2,0.8,0.4,1.5,0.7,2.1c0.2,0.5,0.4,1,0.7,1.4c0.1,0.2,0.4,0.5,0.7,0.8v0.7"/>
<line class="st51" x1="304.7" y1="373.2" x2="447.1" y2="373.2"/>
<line class="st51" x1="304.7" y1="197.1" x2="447.1" y2="197.1"/>
<path class="st53" d="M310.5,405.9v-1.1c1.1-0.4,2-0.8,2.5-1.1c0.9-0.5,1.7-1.2,2.5-1.9c0.9-0.8,1.7-1.8,2.5-2.9
	c0.9-1.2,1.7-2.6,2.5-4c0.9-1.5,1.7-3.2,2.5-4.8c0.9-1.7,1.7-3.5,2.5-5.3c0.8-1.7,1.7-3.5,2.5-5.2c0.8-1.6,1.6-3.2,2.5-4.7
	c0.8-1.4,1.6-2.7,2.5-3.9c0.8-1.1,1.6-2.2,2.5-3.1c0.8-0.9,1.6-1.7,2.5-2.3c0.8-0.6,1.6-1.2,2.5-1.7c0.8-0.4,1.7-0.8,2.5-1.1
	c0.8-0.3,1.7-0.4,2.5-0.6c0.8-0.1,1.7-0.2,2.5-0.2s1.7-0.1,2.5-0.1s1.7-0.2,2.5-0.3c0.8-0.2,1.7-0.4,2.5-0.6
	c0.8-0.3,1.7-0.6,2.5-0.9c0.8-0.3,1.7-0.7,2.5-1s1.7-0.7,2.5-1c0.8-0.3,1.7-0.6,2.5-0.7c0.8-0.2,1.7-0.3,2.5-0.4s1.7,0,2.5,0.1
	c0.8,0.1,1.7,0.3,2.5,0.5c0.8,0.2,1.7,0.5,2.5,0.7s1.7,0.5,2.5,0.8c0.8,0.2,1.7,0.5,2.5,0.7c0.8,0.2,1.7,0.4,2.5,0.5
	s1.7,0.2,2.5,0.2c0.8,0.1,1.7,0.1,2.5,0.1s1.7,0,2.5,0.1c0.8,0.1,1.7,0.2,2.5,0.4c0.9,0.2,1.7,0.6,2.5,1.1c0.9,0.6,1.7,1.3,2.5,2.2
	c0.9,1,1.7,2.3,2.5,3.6c0.9,1.5,1.7,3.3,2.5,5.1c0.9,1.9,1.7,4.1,2.5,6.1c0.8,2.1,1.7,4.4,2.5,6.5c0.8,2.1,1.6,4.2,2.5,6.1
	c0.8,1.8,1.6,3.5,2.5,5.1c0.8,1.4,1.6,2.7,2.5,3.8c0.8,1,1.6,1.8,2.5,2.5c0.5,0.4,1.4,0.9,2.5,1.5v1.4"/>
<polyline class="st51" points="304.7,446.3 304.7,576 417.2,576 "/>
<line class="st51" x1="304.7" y1="528.7" x2="447.1" y2="528.7"/>
<g>
	<path class="st53" d="M312.4,576.1v-1.6c1.4-0.6,2.4-1.2,3-1.6c1.1-0.7,2.1-1.6,3-2.7c1.1-1.2,2.1-2.5,3-4c1.1-1.7,2.1-3.5,3-5.5
		c1.1-2.1,2-4.4,3-6.8c1-2.5,2-5.1,3-7.6c1-2.6,2-5.3,3-7.9c1-2.5,2-5.1,3-7.5c1-2.3,2-4.5,3-6.6c1-1.8,1.9-3.6,3-5.1
		c1-1.3,1.9-2.5,3-3.5c1-0.8,2-1.5,3-1.9c1-0.4,2-0.6,3-0.7c1-0.1,2,0,3,0.1c1,0.1,2,0.2,3,0.3c1,0.1,2,0.2,3,0.2c1,0.1,2,0.1,3,0.1
		s2,0.1,3,0.2s2,0.2,3,0.3c1,0.1,2,0.3,3,0.5c1,0.2,2,0.4,3,0.5c1,0.1,2,0.2,3,0.1c1-0.1,2-0.3,3-0.6c1-0.4,2-0.9,3-1.5
		c1-0.6,2-1.4,3-2.1c1-0.7,2-1.5,3-2.2c1-0.7,2-1.4,3-1.8c1-0.5,2-0.9,3-1c1-0.2,2-0.2,3,0c1,0.2,2.1,0.7,3,1.2
		c1.1,0.7,2.1,1.6,3,2.6c1.1,1.2,2.1,2.6,3,4.1c1.1,1.7,2.1,3.7,3,5.8c1.1,2.3,2,4.8,3,7.3c1,2.7,2,5.6,3,8.5c1,2.9,2,6,3,8.9
		c1,2.9,2,5.8,3,8.5c1,2.6,2,5.1,3,7.4c1,2.1,1.9,4.1,3,5.8c1,1.5,1.9,3,3,4.1c1,1,2,1.9,3,2.6c0.6,0.4,1.7,0.9,3,1.5v1.4"/>
</g>
<g>
	<path class="st53" d="M316.9,245.4V243c1.2-1.1,2.1-1.9,2.7-2.7c1-1.3,1.9-2.9,2.7-4.7c1-2.1,1.9-4.6,2.7-7.3c1-3,1.8-6.5,2.7-9.9
		c0.9-3.7,1.8-7.8,2.7-11.7c0.9-3.9,1.7-8,2.7-11.6c0.9-3.2,1.6-6.7,2.7-9c0.8-1.7,1.7-3.9,2.7-4c0.8-0.1,1.9,1,2.7,2.1
		c1.2,1.6,1.9,4.8,2.7,7.6c1,3.3,1.8,7.3,2.7,11.1c0.9,3.9,1.8,8.1,2.7,12c0.9,3.7,1.7,7.4,2.7,10.7c0.9,2.9,1.7,5.7,2.7,8.1
		c0.8,2,1.7,3.9,2.7,5.3c0.8,1.2,1.7,2.2,2.7,2.8c0.8,0.5,1.8,0.8,2.7,0.7c0.9-0.1,1.9-0.6,2.7-1.3c1-0.8,1.9-2.1,2.7-3.4
		c1-1.7,1.9-3.8,2.7-6c1-2.6,1.8-5.7,2.7-8.8c1-3.4,1.8-7.3,2.7-11c0.9-3.8,1.8-7.9,2.7-11.6c0.9-3.5,1.7-7.1,2.7-10
		c0.8-2.2,1.5-5,2.7-5.8c0.8-0.5,1.9-0.6,2.7-0.1c1.2,0.7,1.9,3.4,2.7,5.6c1,2.8,1.8,6.4,2.7,9.8c0.9,3.7,1.8,7.8,2.7,11.6
		c0.9,3.7,1.8,7.6,2.7,11c0.9,3.1,1.7,6.2,2.7,8.9c0.8,2.3,1.7,4.5,2.7,6.3c0.8,1.5,1.7,2.8,2.7,3.9c0.6,0.6,1.5,1.3,2.7,2.1v1.8"/>
</g>
<polyline class="st51" points="304.7,115.1 304.7,244.8 447.1,244.8 "/>
<line class="st51" x1="304.7" y1="405.4" x2="447.1" y2="405.4"/>
<line class="st51" x1="304.7" y1="576" x2="447.1" y2="576"/>
</svg>
