<svg class="main-svg" xmlns="http://www.w3.org/2000/svg" xmlns:xlink="http://www.w3.org/1999/xlink" width="400" height="400" viewBox="0 0 400 400"><rect x="0" y="0" width="400" height="400" style="fill: rgb(0, 0, 0); fill-opacity: 0;"/><defs id="defs-783b71"><g class="clips"><clipPath id="clip783b71xyplot" class="plotclip"><rect width="240" height="220"/></clipPath><clipPath class="axesclip" id="clip783b71x"><rect x="80" y="0" width="240" height="400"/></clipPath><clipPath class="axesclip" id="clip783b71y"><rect x="0" y="100" width="400" height="220"/></clipPath><clipPath class="axesclip" id="clip783b71xy"><rect x="80" y="100" width="240" height="220"/></clipPath></g><g class="gradients"/></defs><g class="bglayer"><rect class="bg" x="80" y="100" width="240" height="220" style="fill: rgb(0, 0, 0); fill-opacity: 0; stroke-width: 0;"/></g><g class="layer-below"><g class="imagelayer"/><g class="shapelayer"/></g><g class="cartesianlayer"><g class="subplot xy"><g class="layer-subplot"><g class="shapelayer"/><g class="imagelayer"/></g><g class="gridlayer"><g class="x"/><g class="y"/></g><g class="zerolinelayer"/><path class="xlines-below"/><path class="ylines-below"/><g class="overlines-below"/><g class="xaxislayer-below"/><g class="yaxislayer-below"/><g class="overaxes-below"/><g class="plot" transform="translate(80, 100)" clip-path="url('#clip783b71xyplot')"><g class="violinlayer mlayer"><g class="trace violins" style="opacity: 1;"><path class="violin" d="M12,209L12,208.8Q12.02,208.69 12.03,208.62C12.04,208.54 12.05,208.45 12.06,208.36C12.07,208.25 12.08,208.14 12.09,208.02C12.1,207.89 12.11,207.76 12.12,207.63C12.13,207.49 12.14,207.35 12.15,207.21C12.16,207.08 12.17,206.94 12.18,206.81C12.19,206.68 12.2,206.56 12.21,206.43C12.22,206.3 12.23,206.17 12.24,206.04C12.25,205.9 12.26,205.75 12.27,205.6C12.28,205.43 12.29,205.24 12.3,205.05C12.31,204.83 12.32,204.59 12.33,204.35C12.34,204.08 12.36,203.8 12.37,203.51C12.38,203.19 12.39,202.87 12.4,202.52C12.41,202.14 12.42,201.75 12.43,201.32C12.44,200.83 12.45,200.31 12.46,199.73C12.47,199.03 12.48,198.26 12.49,197.42C12.5,196.4 12.51,195.26 12.52,194.05C12.53,192.62 12.54,191.03 12.55,189.38C12.56,187.53 12.57,185.51 12.58,183.49C12.59,181.34 12.6,179.05 12.61,176.82C12.62,174.56 12.63,172.23 12.64,170.01C12.65,167.88 12.66,165.74 12.67,163.74C12.68,161.9 12.69,160.11 12.7,158.45C12.71,156.98 12.72,155.58 12.73,154.29C12.74,153.16 12.75,152.12 12.76,151.12C12.77,150.22 12.78,149.42 12.79,148.57C12.8,147.73 12.81,146.94 12.82,146.06C12.83,145.07 12.84,144.05 12.85,142.91C12.86,141.55 12.87,140.06 12.88,138.46C12.89,136.59 12.9,134.51 12.91,132.37C12.92,129.98 12.93,127.37 12.94,124.77C12.95,122.03 12.96,119.14 12.97,116.33C12.98,113.54 12.99,110.67 13,107.98C13.01,105.46 13.02,102.94 13.03,100.66C13.04,98.67 13.06,96.71 13.07,95.05C13.08,93.73 13.09,92.4 13.1,91.51C13.11,90.97 13.12,90.2 13.13,90.2C13.14,90.2 13.15,90.75 13.16,91.16C13.18,91.91 13.18,93.16 13.19,94.36C13.2,95.9 13.21,97.75 13.22,99.63C13.23,101.78 13.24,104.16 13.25,106.55C13.26,109.1 13.27,111.82 13.28,114.48C13.29,117.17 13.3,119.94 13.31,122.6C13.32,125.17 13.33,127.74 13.34,130.19C13.35,132.49 13.36,134.73 13.37,136.89C13.38,138.91 13.39,140.85 13.4,142.77C13.41,144.62 13.42,146.4 13.43,148.23C13.44,150.07 13.45,151.9 13.46,153.78C13.47,155.74 13.48,157.73 13.49,159.76C13.5,161.87 13.51,164.04 13.52,166.21C13.53,168.42 13.54,170.69 13.55,172.9C13.56,175.08 13.57,177.29 13.58,179.39C13.59,181.38 13.6,183.36 13.61,185.2C13.62,186.87 13.63,188.49 13.64,189.96C13.65,191.24 13.66,192.44 13.67,193.53C13.68,194.44 13.69,195.28 13.7,196.04C13.71,196.68 13.72,197.26 13.73,197.82C13.74,198.33 13.76,198.79 13.77,199.27C13.78,199.74 13.79,200.19 13.8,200.66C13.81,201.13 13.82,201.61 13.83,202.08C13.84,202.55 13.85,203.02 13.86,203.47C13.87,203.89 13.88,204.32 13.89,204.7C13.9,205.04 13.91,205.37 13.92,205.66C13.93,205.9 13.94,206.13 13.95,206.33C13.96,206.49 13.97,206.64 13.98,206.78C13.99,206.9 14,207.01 14.01,207.12C14.02,207.23 14.03,207.33 14.04,207.44C14.05,207.55 14.06,207.66 14.07,207.77C14.08,207.88 14.09,207.99 14.1,208.1C14.11,208.2 14.12,208.31 14.13,208.4C14.14,208.48 14.15,208.57 14.16,208.64Q14.17,208.7 14.19,208.8L14.19,209" style="vector-effect: non-scaling-stroke; stroke-width: 2px; stroke: rgb(99, 110, 250); stroke-opacity: 1; fill: rgb(99, 110, 250); fill-opacity: 0.5;"/></g><g class="trace violins" style="opacity: 1;"><path class="violin" d="M225.89,129.8L225.89,129.41Q225.91,129.2 225.92,129.08C225.93,128.94 225.94,128.78 225.95,128.61C225.96,128.42 225.97,128.21 225.98,128.01C225.99,127.8 226,127.58 226.01,127.37C226.02,127.17 226.03,126.97 226.04,126.79C226.05,126.63 226.06,126.48 226.07,126.33C226.08,126.2 226.09,126.08 226.1,125.95C226.11,125.8 226.12,125.66 226.13,125.48C226.14,125.24 226.15,124.97 226.16,124.65C226.17,124.23 226.18,123.73 226.19,123.19C226.2,122.51 226.21,121.72 226.22,120.9C226.23,119.95 226.24,118.89 226.25,117.81C226.26,116.63 226.27,115.35 226.28,114.08C226.29,112.75 226.3,111.37 226.31,110.01C226.32,108.63 226.34,107.24 226.35,105.85C226.36,104.46 226.37,103.09 226.38,101.69C226.39,100.27 226.4,98.86 226.41,97.38C226.42,95.82 226.43,94.25 226.44,92.57C226.45,90.73 226.46,88.81 226.47,86.78C226.48,84.52 226.49,82.13 226.5,79.64C226.51,76.9 226.52,73.98 226.53,71.01C226.54,67.84 226.55,64.5 226.56,61.18C226.57,57.78 226.58,54.26 226.59,50.85C226.6,47.52 226.61,44.13 226.62,40.96C226.63,38.01 226.64,35.09 226.65,32.44C226.66,30.12 226.67,27.87 226.68,25.9C226.69,24.29 226.7,22.77 226.71,21.49C226.72,20.5 226.73,19.62 226.74,18.87C226.75,18.3 226.76,17.84 226.77,17.38C226.78,16.99 226.79,16.67 226.8,16.3C226.81,15.91 226.83,15.51 226.84,15.08C226.85,14.59 226.86,14.05 226.87,13.53C226.88,13.01 226.89,12.41 226.9,11.95C226.91,11.59 226.92,11 226.93,11C226.94,11 226.95,11.26 226.96,11.48C226.98,11.99 226.98,13.05 226.99,14.03C227,15.39 227.01,17.11 227.02,18.86C227.03,20.93 227.04,23.28 227.05,25.64C227.06,28.21 227.07,30.97 227.08,33.69C227.09,36.48 227.1,39.36 227.11,42.17C227.12,44.95 227.13,47.75 227.14,50.48C227.15,53.13 227.16,55.74 227.17,58.32C227.18,60.83 227.19,63.29 227.2,65.75C227.21,68.19 227.22,70.59 227.23,73.02C227.24,75.46 227.25,77.9 227.26,80.34C227.27,82.79 227.29,85.26 227.3,87.7C227.31,90.12 227.32,92.55 227.33,94.91C227.34,97.18 227.35,99.44 227.36,101.58C227.37,103.57 227.38,105.53 227.39,107.35C227.4,108.98 227.41,110.56 227.42,112C227.43,113.25 227.44,114.43 227.45,115.51C227.46,116.43 227.47,117.27 227.48,118.06C227.49,118.74 227.5,119.36 227.51,119.97C227.52,120.52 227.53,121.04 227.54,121.55C227.55,122.04 227.56,122.51 227.57,122.99C227.58,123.46 227.59,123.93 227.6,124.38C227.61,124.81 227.62,125.24 227.63,125.64C227.64,126 227.65,126.36 227.66,126.68C227.67,126.95 227.68,127.21 227.69,127.42C227.7,127.58 227.71,127.73 227.72,127.84C227.73,127.91 227.73,127.97 227.75,128.02C227.76,128.05 227.78,128.07 227.79,128.09C227.8,128.12 227.81,128.14 227.82,128.17C227.83,128.21 227.84,128.27 227.85,128.33C227.86,128.4 227.87,128.49 227.88,128.58C227.89,128.68 227.9,128.79 227.91,128.89C227.92,128.99 227.93,129.09 227.94,129.18C227.95,129.26 227.96,129.35 227.97,129.42Q227.98,129.48 228,129.59L228,129.8" style="vector-effect: non-scaling-stroke; stroke-width: 2px; stroke: rgb(239, 85, 59); stroke-opacity: 1; fill: rgb(239, 85, 59); fill-opacity: 0.5;"/></g></g></g><g class="overplot"/><path class="xlines-above crisp" d="M0,0" style="fill: none;"/><path class="ylines-above crisp" d="M0,0" style="fill: none;"/><g class="overlines-above"/><g class="xaxislayer-above"><g class="xtick"><text text-anchor="middle" x="0" y="333" transform="translate(93.09,0)" style="font-family: 'Open Sans', verdana, arial, sans-serif; font-size: 12px; fill: rgb(42, 63, 95); fill-opacity: 1; white-space: pre;">2</text></g><g class="xtick"><text text-anchor="middle" x="0" y="333" transform="translate(146.53,0)" style="font-family: 'Open Sans', verdana, arial, sans-serif; font-size: 12px; fill: rgb(42, 63, 95); fill-opacity: 1; white-space: pre;">4</text></g><g class="xtick"><text text-anchor="middle" x="0" y="333" transform="translate(199.98000000000002,0)" style="font-family: 'Open Sans', verdana, arial, sans-serif; font-size: 12px; fill: rgb(42, 63, 95); fill-opacity: 1; white-space: pre;">6</text></g><g class="xtick"><text text-anchor="middle" x="0" y="333" transform="translate(253.42,0)" style="font-family: 'Open Sans', verdana, arial, sans-serif; font-size: 12px; fill: rgb(42, 63, 95); fill-opacity: 1; white-space: pre;">8</text></g><g class="xtick"><text text-anchor="middle" x="0" y="333" transform="translate(306.87,0)" style="font-family: 'Open Sans', verdana, arial, sans-serif; font-size: 12px; fill: rgb(42, 63, 95); fill-opacity: 1; white-space: pre;">10</text></g></g><g class="yaxislayer-above"><g class="ytick"><text text-anchor="end" x="79" y="4.199999999999999" transform="translate(0,309)" style="font-family: 'Open Sans', verdana, arial, sans-serif; font-size: 12px; fill: rgb(42, 63, 95); fill-opacity: 1; white-space: pre;">C</text></g><g class="ytick"><text text-anchor="end" x="79" y="4.199999999999999" transform="translate(0,229.8)" style="font-family: 'Open Sans', verdana, arial, sans-serif; font-size: 12px; fill: rgb(42, 63, 95); fill-opacity: 1; white-space: pre;">D</text></g></g><g class="overaxes-above"/></g></g><g class="polarlayer"/><g class="ternarylayer"/><g class="geolayer"/><g class="funnelarealayer"/><g class="pielayer"/><g class="treemaplayer"/><g class="sunburstlayer"/><g class="glimages"/><defs id="topdefs-783b71"><g class="clips"/></defs><g class="layer-above"><g class="imagelayer"/><g class="shapelayer"/></g><g class="infolayer"><g class="g-gtitle"/><g class="g-xtitle"><text class="xtitle" x="200" y="361.3" text-anchor="middle" style="font-family: 'Open Sans', verdana, arial, sans-serif; font-size: 14px; fill: rgb(42, 63, 95); opacity: 1; font-weight: normal; white-space: pre;">Continuous Binary Normal 2</text></g><g class="g-ytitle"><text class="ytitle" transform="rotate(-90,45.45,210)" x="45.45" y="210" text-anchor="middle" style="font-family: 'Open Sans', verdana, arial, sans-serif; font-size: 14px; fill: rgb(42, 63, 95); opacity: 1; font-weight: normal; white-space: pre;">Binary Balanced 2</text></g></g></svg>