<svg class="main-svg" xmlns="http://www.w3.org/2000/svg" xmlns:xlink="http://www.w3.org/1999/xlink" width="400" height="400" viewBox="0 0 400 400"><rect x="0" y="0" width="400" height="400" style="fill: rgb(0, 0, 0); fill-opacity: 0;"/><defs id="defs-7c9581"><g class="clips"><clipPath id="clip7c9581xyplot" class="plotclip"><rect width="240" height="220"/></clipPath><clipPath class="axesclip" id="clip7c9581x"><rect x="80" y="0" width="240" height="400"/></clipPath><clipPath class="axesclip" id="clip7c9581y"><rect x="0" y="100" width="400" height="220"/></clipPath><clipPath class="axesclip" id="clip7c9581xy"><rect x="80" y="100" width="240" height="220"/></clipPath></g><g class="gradients"/></defs><g class="bglayer"><rect class="bg" x="80" y="100" width="240" height="220" style="fill: rgb(0, 0, 0); fill-opacity: 0; stroke-width: 0;"/></g><g class="layer-below"><g class="imagelayer"/><g class="shapelayer"/></g><g class="cartesianlayer"><g class="subplot xy"><g class="layer-subplot"><g class="shapelayer"/><g class="imagelayer"/></g><g class="gridlayer"><g class="x"/><g class="y"/></g><g class="zerolinelayer"/><path class="xlines-below"/><path class="ylines-below"/><g class="overlines-below"/><g class="xaxislayer-below"/><g class="yaxislayer-below"/><g class="overaxes-below"/><g class="plot" transform="translate(80, 100)" clip-path="url('#clip7c9581xyplot')"><g class="violinlayer mlayer"><g class="trace violins" style="opacity: 1;"><path class="violin" d="M12,209L12,204.59Q15.51,201.61 17.08,199.59C18.95,197.18 20.59,194.14 22.15,190.82C24.02,186.84 25.64,182.12 27.23,177.18C29.06,171.49 30.68,165.03 32.31,158.54C34.08,151.52 35.7,143.85 37.39,136.52C39.08,129.22 40.65,121.46 42.46,114.67C44.06,108.65 45.46,102.17 47.54,97.77C49.03,94.61 50.75,90.51 52.62,90.2C54.19,89.94 56.24,92.07 57.7,94.07C59.94,97.14 61.2,103.06 62.77,108.3C64.64,114.54 66.19,122.03 67.85,129.11C69.58,136.45 71.19,144.33 72.93,151.6C74.58,158.48 76.19,165.45 78,171.64C79.6,177.1 81.2,182.4 83.08,186.88C84.65,190.61 86.24,194.15 88.16,196.83C89.71,198.99 91.38,200.98 93.24,202.06C94.81,202.97 96.65,203.52 98.31,203.36C100.03,203.2 101.83,202.21 103.39,200.97C105.28,199.47 106.92,197.07 108.47,194.5C110.38,191.35 111.98,187.37 113.55,183.2C115.41,178.28 117.01,172.56 118.62,166.74C120.41,160.28 122.03,153.12 123.7,146.14C125.42,138.96 127.02,131.26 128.78,124.27C130.41,117.77 131.91,110.88 133.85,105.54C135.38,101.32 136.68,96.07 138.93,94.56C140.39,93.58 142.55,93.45 144.01,94.32C146.23,95.64 147.56,100.79 149.09,104.88C151.05,110.11 152.53,116.92 154.16,123.35C155.92,130.3 157.53,137.99 159.24,145.16C160.91,152.16 162.53,159.37 164.32,165.88C165.94,171.78 167.55,177.57 169.4,182.61C170.98,186.92 172.59,190.99 174.47,194.36C176.03,197.17 177.7,199.68 179.55,201.64Q181.13,203.32 184.63,205.65L184.63,209" style="vector-effect: non-scaling-stroke; stroke-width: 2px; stroke: rgb(99, 110, 250); stroke-opacity: 1; fill: rgb(99, 110, 250); fill-opacity: 0.5;"/></g><g class="trace violins" style="opacity: 1;"><path class="violin" d="M53.58,129.8L53.58,126.99Q57.11,124.98 58.71,123.48C60.56,121.75 62.26,119.5 63.84,116.95C65.74,113.89 67.38,110.15 68.97,106.16C70.84,101.48 72.47,96.05 74.1,90.49C75.91,84.3 77.55,77.41 79.23,70.69C80.97,63.74 82.59,56.26 84.36,49.45C86.02,43.09 87.53,36.33 89.49,31.07C91.04,26.88 92.36,21.72 94.62,20.15C96.1,19.13 98.27,18.9 99.75,19.73C101.96,20.97 103.33,25.97 104.88,29.94C106.86,35.01 108.36,41.67 110.01,47.93C111.79,54.69 113.41,62.18 115.14,69.14C116.83,75.92 118.46,82.89 120.27,89.16C121.9,94.81 123.52,100.36 125.4,105.12C126.99,109.15 128.61,113 130.53,116.01C132.1,118.46 133.76,120.76 135.66,122.14C137.24,123.29 139.07,124.15 140.79,124.23C142.49,124.3 144.33,123.65 145.92,122.65C147.8,121.46 149.49,119.35 151.05,117.07C152.98,114.26 154.6,110.59 156.18,106.72C158.07,102.09 159.69,96.63 161.31,91.02C163.14,84.69 164.77,77.58 166.44,70.58C168.19,63.23 169.82,55.28 171.57,47.92C173.24,40.89 174.79,33.43 176.7,27.34C178.28,22.3 179.52,16.45 181.83,13.8C183.3,12.12 185.43,10.57 186.96,11C188.98,11.56 190.57,16.22 192.09,19.77C194.15,24.58 195.59,31.33 197.22,37.65C199.03,44.67 200.63,52.61 202.35,60.04C204.05,67.41 205.69,75.09 207.48,82.06C209.12,88.44 210.75,94.76 212.61,100.28C214.21,105.03 215.84,109.55 217.74,113.31C219.32,116.43 220.99,119.26 222.87,121.48Q224.46,123.35 228,126.01L228,129.8" style="vector-effect: non-scaling-stroke; stroke-width: 2px; stroke: rgb(239, 85, 59); stroke-opacity: 1; fill: rgb(239, 85, 59); fill-opacity: 0.5;"/></g></g></g><g class="overplot"/><path class="xlines-above crisp" d="M0,0" style="fill: none;"/><path class="ylines-above crisp" d="M0,0" style="fill: none;"/><g class="overlines-above"/><g class="xaxislayer-above"><g class="xtick"><text text-anchor="middle" x="0" y="333" transform="translate(89.76,0)" style="font-family: 'Open Sans', verdana, arial, sans-serif; font-size: 12px; fill: rgb(42, 63, 95); fill-opacity: 1; white-space: pre;">0</text></g><g class="xtick"><text text-anchor="middle" x="0" y="333" transform="translate(177.57,0)" style="font-family: 'Open Sans', verdana, arial, sans-serif; font-size: 12px; fill: rgb(42, 63, 95); fill-opacity: 1; white-space: pre;">2</text></g><g class="xtick"><text text-anchor="middle" x="0" y="333" transform="translate(265.37,0)" style="font-family: 'Open Sans', verdana, arial, sans-serif; font-size: 12px; fill: rgb(42, 63, 95); fill-opacity: 1; white-space: pre;">4</text></g></g><g class="yaxislayer-above"><g class="ytick"><text text-anchor="end" x="79" y="4.199999999999999" transform="translate(0,309)" style="font-family: 'Open Sans', verdana, arial, sans-serif; font-size: 12px; fill: rgb(42, 63, 95); fill-opacity: 1; white-space: pre;">C</text></g><g class="ytick"><text text-anchor="end" x="79" y="4.199999999999999" transform="translate(0,229.8)" style="font-family: 'Open Sans', verdana, arial, sans-serif; font-size: 12px; fill: rgb(42, 63, 95); fill-opacity: 1; white-space: pre;">D</text></g></g><g class="overaxes-above"/></g></g><g class="polarlayer"/><g class="ternarylayer"/><g class="geolayer"/><g class="funnelarealayer"/><g class="pielayer"/><g class="treemaplayer"/><g class="sunburstlayer"/><g class="glimages"/><defs id="topdefs-7c9581"><g class="clips"/></defs><g class="layer-above"><g class="imagelayer"/><g class="shapelayer"/></g><g class="infolayer"><g class="g-gtitle"/><g class="g-xtitle"><text class="xtitle" x="200" y="361.3" text-anchor="middle" style="font-family: 'Open Sans', verdana, arial, sans-serif; font-size: 14px; fill: rgb(42, 63, 95); opacity: 1; font-weight: normal; white-space: pre;">Continuous Quaternary Normal</text></g><g class="g-ytitle"><text class="ytitle" transform="rotate(-90,45.45,210)" x="45.45" y="210" text-anchor="middle" style="font-family: 'Open Sans', verdana, arial, sans-serif; font-size: 14px; fill: rgb(42, 63, 95); opacity: 1; font-weight: normal; white-space: pre;">Binary Balanced 2</text></g></g></svg>