<svg class="main-svg" xmlns="http://www.w3.org/2000/svg" xmlns:xlink="http://www.w3.org/1999/xlink" width="400" height="400" viewBox="0 0 400 400"><rect x="0" y="0" width="400" height="400" style="fill: rgb(0, 0, 0); fill-opacity: 0;"/><defs id="defs-532edd"><g class="clips"><clipPath id="clip532eddxyplot" class="plotclip"><rect width="240" height="220"/></clipPath><clipPath class="axesclip" id="clip532eddx"><rect x="80" y="0" width="240" height="400"/></clipPath><clipPath class="axesclip" id="clip532eddy"><rect x="0" y="100" width="400" height="220"/></clipPath><clipPath class="axesclip" id="clip532eddxy"><rect x="80" y="100" width="240" height="220"/></clipPath></g><g class="gradients"/></defs><g class="bglayer"><rect class="bg" x="80" y="100" width="240" height="220" style="fill: rgb(0, 0, 0); fill-opacity: 0; stroke-width: 0;"/></g><g class="layer-below"><g class="imagelayer"/><g class="shapelayer"/></g><g class="cartesianlayer"><g class="subplot xy"><g class="layer-subplot"><g class="shapelayer"/><g class="imagelayer"/></g><g class="gridlayer"><g class="x"/><g class="y"/></g><g class="zerolinelayer"/><path class="xlines-below"/><path class="ylines-below"/><g class="overlines-below"/><g class="xaxislayer-below"/><g class="yaxislayer-below"/><g class="overaxes-below"/><g class="plot" transform="translate(80, 100)" clip-path="url('#clip532eddxyplot')"><g class="violinlayer mlayer"><g class="trace violins" style="opacity: 1;"><path class="violin" d="M131.06,209L131.06,208.62Q131.58,208.4 131.83,208.24C132.1,208.07 132.36,207.86 132.61,207.62C132.88,207.35 133.14,207.04 133.38,206.69C133.65,206.3 133.9,205.87 134.15,205.4C134.42,204.88 134.68,204.31 134.93,203.71C135.2,203.05 135.45,202.34 135.7,201.6C135.97,200.8 136.22,199.96 136.47,199.09C136.74,198.17 137,197.2 137.25,196.21C137.51,195.18 137.77,194.1 138.02,193.02C138.28,191.91 138.53,190.77 138.79,189.63C139.05,188.47 139.31,187.29 139.57,186.11C139.83,184.91 140.09,183.71 140.34,182.49C140.6,181.24 140.86,179.98 141.11,178.69C141.37,177.37 141.63,176.03 141.89,174.67C142.15,173.27 142.4,171.85 142.66,170.42C142.92,168.98 143.17,167.51 143.43,166.07C143.69,164.63 143.95,163.19 144.21,161.78C144.46,160.41 144.72,159.05 144.98,157.73C145.23,156.46 145.49,155.21 145.75,154C146,152.85 146.26,151.72 146.53,150.63C146.78,149.61 147.03,148.6 147.3,147.66C147.55,146.8 147.79,145.93 148.07,145.2C148.31,144.58 148.53,143.9 148.85,143.52C149.08,143.25 149.38,142.96 149.62,143C149.9,143.04 150.17,143.55 150.39,143.99C150.72,144.64 150.93,145.67 151.17,146.67C151.46,147.9 151.7,149.38 151.94,150.85C152.21,152.48 152.45,154.28 152.71,156.03C152.97,157.82 153.23,159.68 153.49,161.46C153.74,163.18 153.99,164.9 154.26,166.53C154.51,168.04 154.76,169.5 155.03,170.91C155.28,172.23 155.55,173.47 155.81,174.72C156.06,175.94 156.33,177.1 156.58,178.31C156.84,179.54 157.1,180.77 157.35,182.03C157.61,183.34 157.87,184.68 158.13,186.02C158.39,187.38 158.64,188.78 158.9,190.13C159.15,191.44 159.4,192.77 159.67,194.01C159.92,195.17 160.18,196.31 160.45,197.35C160.69,198.28 160.94,199.17 161.22,199.96C161.46,200.65 161.71,201.29 161.99,201.86C162.23,202.35 162.5,202.78 162.77,203.18C163.02,203.54 163.28,203.85 163.54,204.15C163.79,204.43 164.05,204.68 164.31,204.93C164.57,205.18 164.83,205.42 165.09,205.66C165.35,205.9 165.6,206.14 165.86,206.38C166.12,206.61 166.38,206.85 166.64,207.07C166.9,207.29 167.15,207.5 167.41,207.69C167.66,207.87 167.92,208.04 168.18,208.18C168.43,208.32 168.7,208.43 168.96,208.53Q169.21,208.62 169.73,208.76L169.73,209" style="vector-effect: non-scaling-stroke; stroke-width: 2px; stroke: rgb(99, 110, 250); stroke-opacity: 1; fill: rgb(99, 110, 250); fill-opacity: 0.5;"/></g><g class="trace violins" style="opacity: 1;"><path class="violin" d="M68.12,165L68.12,164.8Q68.6,164.7 68.84,164.63C69.08,164.56 69.32,164.48 69.56,164.39C69.8,164.3 70.04,164.19 70.28,164.09C70.52,163.98 70.75,163.87 70.99,163.76C71.23,163.65 71.47,163.54 71.71,163.44C71.95,163.34 72.19,163.25 72.43,163.16C72.67,163.06 72.91,162.98 73.15,162.87C73.39,162.76 73.64,162.64 73.87,162.48C74.12,162.31 74.36,162.11 74.59,161.88C74.84,161.62 75.08,161.31 75.31,160.98C75.56,160.61 75.8,160.19 76.03,159.76C76.28,159.3 76.51,158.79 76.74,158.28C76.98,157.74 77.23,157.19 77.46,156.61C77.71,156 77.95,155.39 78.18,154.73C78.43,154.03 78.67,153.3 78.9,152.52C79.15,151.65 79.39,150.72 79.62,149.72C79.88,148.6 80.11,147.39 80.34,146.12C80.59,144.71 80.83,143.19 81.06,141.64C81.31,139.98 81.54,138.23 81.78,136.49C82.02,134.71 82.26,132.86 82.5,131.08C82.74,129.33 82.96,127.57 83.21,125.89C83.44,124.3 83.68,122.75 83.93,121.27C84.16,119.9 84.4,118.57 84.65,117.3C84.88,116.11 85.12,114.98 85.37,113.86C85.6,112.79 85.85,111.76 86.09,110.73C86.33,109.71 86.57,108.71 86.81,107.71C87.05,106.73 87.28,105.74 87.53,104.79C87.76,103.89 87.99,102.98 88.25,102.17C88.48,101.44 88.7,100.7 88.97,100.13C89.19,99.68 89.39,99.16 89.68,99C89.89,98.88 90.19,98.89 90.4,99.01C90.7,99.18 90.91,99.74 91.12,100.24C91.41,100.9 91.62,101.79 91.84,102.69C92.1,103.75 92.33,104.97 92.56,106.21C92.81,107.58 93.05,109.07 93.28,110.56C93.53,112.14 93.76,113.8 94,115.44C94.24,117.11 94.48,118.82 94.72,120.51C94.96,122.19 95.2,123.87 95.44,125.53C95.68,127.15 95.91,128.77 96.15,130.35C96.39,131.89 96.63,133.41 96.87,134.89C97.11,136.32 97.34,137.73 97.59,139.1C97.82,140.4 98.06,141.68 98.31,142.91C98.54,144.07 98.78,145.19 99.03,146.27C99.26,147.28 99.5,148.26 99.75,149.21C99.98,150.1 100.22,150.95 100.47,151.78C100.7,152.57 100.95,153.34 101.19,154.1C101.43,154.83 101.67,155.53 101.91,156.23C102.14,156.91 102.38,157.57 102.62,158.22C102.85,158.84 103.09,159.45 103.34,160.03C103.57,160.57 103.81,161.1 104.06,161.58C104.29,162.02 104.53,162.44 104.78,162.81C105.01,163.14 105.25,163.44 105.5,163.7C105.73,163.93 105.97,164.14 106.22,164.3Q106.45,164.45 106.94,164.65L106.94,165" style="vector-effect: non-scaling-stroke; stroke-width: 2px; stroke: rgb(239, 85, 59); stroke-opacity: 1; fill: rgb(239, 85, 59); fill-opacity: 0.5;"/></g><g class="trace violins" style="opacity: 1;"><path class="violin" d="M189.23,121L189.23,120.65Q189.75,120.43 190,120.27C190.27,120.09 190.53,119.87 190.78,119.61C191.06,119.32 191.31,118.96 191.55,118.58C191.83,118.14 192.08,117.64 192.33,117.11C192.6,116.52 192.85,115.85 193.1,115.18C193.37,114.45 193.63,113.67 193.88,112.89C194.14,112.07 194.39,111.21 194.65,110.37C194.91,109.52 195.17,108.66 195.43,107.81C195.69,106.98 195.94,106.14 196.2,105.33C196.45,104.54 196.72,103.77 196.98,103.01C197.24,102.26 197.5,101.53 197.76,100.79C198.02,100.05 198.28,99.32 198.53,98.56C198.79,97.78 199.06,96.98 199.31,96.16C199.57,95.3 199.83,94.41 200.08,93.49C200.35,92.52 200.61,91.51 200.86,90.48C201.13,89.39 201.38,88.27 201.63,87.11C201.9,85.88 202.16,84.61 202.41,83.3C202.68,81.91 202.93,80.47 203.18,78.99C203.45,77.42 203.7,75.78 203.96,74.14C204.22,72.44 204.48,70.67 204.74,68.95C205,67.25 205.24,65.5 205.51,63.87C205.76,62.36 206.01,60.84 206.29,59.52C206.53,58.41 206.74,57.29 207.06,56.48C207.29,55.89 207.51,55.24 207.84,55.03C208.06,54.89 208.37,54.9 208.61,55C208.9,55.12 209.14,55.54 209.39,55.84C209.66,56.16 209.89,56.55 210.16,56.85C210.41,57.13 210.68,57.38 210.94,57.61C211.19,57.83 211.47,57.97 211.71,58.23C211.99,58.53 212.26,58.88 212.49,59.35C212.81,60 213.04,60.89 213.27,61.86C213.58,63.13 213.8,64.72 214.04,66.36C214.33,68.32 214.57,70.57 214.82,72.82C215.09,75.29 215.33,77.97 215.59,80.58C215.85,83.24 216.11,86 216.37,88.63C216.62,91.15 216.87,93.68 217.14,96.04C217.39,98.19 217.64,100.29 217.92,102.22C218.16,103.93 218.41,105.55 218.69,107.03C218.93,108.31 219.19,109.51 219.47,110.61C219.71,111.56 219.97,112.43 220.25,113.23C220.49,113.93 220.74,114.57 221.02,115.15C221.26,115.66 221.53,116.13 221.8,116.56C222.05,116.94 222.3,117.28 222.57,117.6C222.82,117.89 223.08,118.15 223.35,118.4C223.6,118.63 223.86,118.84 224.12,119.04C224.37,119.23 224.64,119.41 224.9,119.57C225.15,119.73 225.41,119.88 225.67,120.01C225.93,120.14 226.19,120.27 226.45,120.37C226.7,120.47 226.96,120.56 227.22,120.63Q227.48,120.7 228,120.8L228,121" style="vector-effect: non-scaling-stroke; stroke-width: 2px; stroke: rgb(0, 204, 150); stroke-opacity: 1; fill: rgb(0, 204, 150); fill-opacity: 0.5;"/></g><g class="trace violins" style="opacity: 1;"><path class="violin" d="M12,77L12,76.76Q12.51,76.62 12.75,76.51C13,76.4 13.25,76.27 13.49,76.1C13.75,75.92 14,75.7 14.24,75.45C14.5,75.17 14.75,74.85 14.99,74.49C15.25,74.09 15.49,73.64 15.73,73.16C15.99,72.62 16.24,72.03 16.48,71.41C16.74,70.72 16.98,69.97 17.22,69.19C17.48,68.33 17.73,67.41 17.97,66.46C18.23,65.44 18.48,64.36 18.72,63.26C18.98,62.11 19.21,60.9 19.46,59.7C19.71,58.48 19.96,57.21 20.21,55.99C20.46,54.8 20.7,53.59 20.96,52.46C21.2,51.4 21.44,50.35 21.7,49.4C21.94,48.55 22.18,47.73 22.45,47C22.68,46.37 22.94,45.8 23.2,45.26C23.44,44.77 23.69,44.36 23.94,43.9C24.19,43.44 24.45,43.01 24.69,42.51C24.96,41.95 25.21,41.35 25.44,40.69C25.71,39.92 25.95,39.05 26.18,38.14C26.45,37.1 26.69,35.95 26.93,34.77C27.19,33.47 27.43,32.07 27.67,30.67C27.93,29.19 28.17,27.63 28.42,26.1C28.67,24.55 28.92,22.95 29.17,21.42C29.41,19.95 29.65,18.45 29.91,17.09C30.15,15.86 30.38,14.61 30.66,13.59C30.89,12.77 31.06,11.84 31.41,11.42C31.62,11.17 31.93,10.93 32.15,11C32.46,11.1 32.68,11.91 32.9,12.54C33.21,13.44 33.42,14.71 33.65,15.95C33.92,17.42 34.15,19.12 34.39,20.8C34.65,22.61 34.89,24.56 35.14,26.45C35.39,28.36 35.63,30.33 35.88,32.21C36.12,34.03 36.37,35.83 36.63,37.56C36.87,39.2 37.13,40.78 37.38,42.33C37.62,43.8 37.87,45.22 38.12,46.64C38.37,48.03 38.62,49.39 38.87,50.78C39.12,52.18 39.37,53.58 39.62,54.99C39.87,56.42 40.11,57.87 40.36,59.3C40.61,60.71 40.85,62.14 41.11,63.51C41.35,64.81 41.6,66.11 41.86,67.3C42.1,68.38 42.33,69.43 42.6,70.36C42.83,71.16 43.07,71.91 43.35,72.55C43.58,73.08 43.82,73.55 44.09,73.94C44.32,74.26 44.57,74.53 44.84,74.75C45.08,74.95 45.34,75.08 45.59,75.22C45.83,75.35 46.08,75.45 46.33,75.56C46.58,75.67 46.83,75.77 47.08,75.87C47.33,75.97 47.58,76.08 47.83,76.18C48.08,76.28 48.32,76.37 48.57,76.45C48.82,76.53 49.07,76.61 49.32,76.67Q49.57,76.73 50.07,76.82L50.07,77" style="vector-effect: non-scaling-stroke; stroke-width: 2px; stroke: rgb(171, 99, 250); stroke-opacity: 1; fill: rgb(171, 99, 250); fill-opacity: 0.5;"/></g></g></g><g class="overplot"/><path class="xlines-above crisp" d="M0,0" style="fill: none;"/><path class="ylines-above crisp" d="M0,0" style="fill: none;"/><g class="overlines-above"/><g class="xaxislayer-above"><g class="xtick"><text text-anchor="middle" x="0" y="333" transform="translate(110.69,0)" style="font-family: 'Open Sans', verdana, arial, sans-serif; font-size: 12px; fill: rgb(42, 63, 95); fill-opacity: 1; white-space: pre;">1</text></g><g class="xtick"><text text-anchor="middle" x="0" y="333" transform="translate(169.75,0)" style="font-family: 'Open Sans', verdana, arial, sans-serif; font-size: 12px; fill: rgb(42, 63, 95); fill-opacity: 1; white-space: pre;">2</text></g><g class="xtick"><text text-anchor="middle" x="0" y="333" transform="translate(228.82,0)" style="font-family: 'Open Sans', verdana, arial, sans-serif; font-size: 12px; fill: rgb(42, 63, 95); fill-opacity: 1; white-space: pre;">3</text></g><g class="xtick"><text text-anchor="middle" x="0" y="333" transform="translate(287.88,0)" style="font-family: 'Open Sans', verdana, arial, sans-serif; font-size: 12px; fill: rgb(42, 63, 95); fill-opacity: 1; white-space: pre;">4</text></g></g><g class="yaxislayer-above"><g class="ytick"><text text-anchor="end" x="79" y="4.199999999999999" transform="translate(0,309)" style="font-family: 'Open Sans', verdana, arial, sans-serif; font-size: 12px; fill: rgb(42, 63, 95); fill-opacity: 1; white-space: pre;">C</text></g><g class="ytick"><text text-anchor="end" x="79" y="4.199999999999999" transform="translate(0,265)" style="font-family: 'Open Sans', verdana, arial, sans-serif; font-size: 12px; fill: rgb(42, 63, 95); fill-opacity: 1; white-space: pre;">B</text></g><g class="ytick"><text text-anchor="end" x="79" y="4.199999999999999" transform="translate(0,221)" style="font-family: 'Open Sans', verdana, arial, sans-serif; font-size: 12px; fill: rgb(42, 63, 95); fill-opacity: 1; white-space: pre;">D</text></g><g class="ytick"><text text-anchor="end" x="79" y="4.199999999999999" transform="translate(0,177)" style="font-family: 'Open Sans', verdana, arial, sans-serif; font-size: 12px; fill: rgb(42, 63, 95); fill-opacity: 1; white-space: pre;">A</text></g></g><g class="overaxes-above"/></g></g><g class="polarlayer"/><g class="ternarylayer"/><g class="geolayer"/><g class="funnelarealayer"/><g class="pielayer"/><g class="treemaplayer"/><g class="sunburstlayer"/><g class="glimages"/><defs id="topdefs-532edd"><g class="clips"/></defs><g class="layer-above"><g class="imagelayer"/><g class="shapelayer"/></g><g class="infolayer"><g class="g-gtitle"/><g class="g-xtitle"><text class="xtitle" x="200" y="361.3" text-anchor="middle" style="font-family: 'Open Sans', verdana, arial, sans-serif; font-size: 14px; fill: rgb(42, 63, 95); opacity: 1; font-weight: normal; white-space: pre;">Continuous Quaternary Normal</text></g><g class="g-ytitle"><text class="ytitle" transform="rotate(-90,45.45,210)" x="45.45" y="210" text-anchor="middle" style="font-family: 'Open Sans', verdana, arial, sans-serif; font-size: 14px; fill: rgb(42, 63, 95); opacity: 1; font-weight: normal; white-space: pre;">Quaternary Balanced 1</text></g></g></svg>