<svg class="main-svg" xmlns="http://www.w3.org/2000/svg" xmlns:xlink="http://www.w3.org/1999/xlink" width="400" height="400" viewBox="0 0 400 400"><rect x="0" y="0" width="400" height="400" style="fill: rgb(0, 0, 0); fill-opacity: 0;"/><defs id="defs-449c30"><g class="clips"><clipPath id="clip449c30xyplot" class="plotclip"><rect width="240" height="220"/></clipPath><clipPath class="axesclip" id="clip449c30x"><rect x="80" y="0" width="240" height="400"/></clipPath><clipPath class="axesclip" id="clip449c30y"><rect x="0" y="100" width="400" height="220"/></clipPath><clipPath class="axesclip" id="clip449c30xy"><rect x="80" y="100" width="240" height="220"/></clipPath></g><g class="gradients"/></defs><g class="bglayer"><rect class="bg" x="80" y="100" width="240" height="220" style="fill: rgb(0, 0, 0); fill-opacity: 0; stroke-width: 0;"/></g><g class="layer-below"><g class="imagelayer"/><g class="shapelayer"/></g><g class="cartesianlayer"><g class="subplot xy"><g class="layer-subplot"><g class="shapelayer"/><g class="imagelayer"/></g><g class="gridlayer"><g class="x"/><g class="y"/></g><g class="zerolinelayer"/><path class="xlines-below"/><path class="ylines-below"/><g class="overlines-below"/><g class="xaxislayer-below"/><g class="yaxislayer-below"/><g class="overaxes-below"/><g class="plot" transform="translate(80, 100)" clip-path="url('#clip449c30xyplot')"><g class="violinlayer mlayer"><g class="trace violins" style="opacity: 1;"><path class="violin" d="M12,209L12,207.16Q14.95,206.04 16.35,205.2C17.85,204.3 19.31,203.18 20.7,201.87C22.23,200.43 23.67,198.69 25.05,196.82C26.58,194.76 28,192.38 29.4,189.95C30.91,187.33 32.32,184.44 33.75,181.58C35.23,178.61 36.65,175.47 38.1,172.44C39.55,169.42 40.97,166.33 42.45,163.42C43.87,160.63 45.3,157.86 46.8,155.31C48.2,152.92 49.64,150.62 51.15,148.53C52.55,146.59 53.99,144.78 55.5,143.16C56.9,141.65 58.36,140.28 59.86,139.08C61.27,137.96 62.72,136.96 64.21,136.15C65.63,135.38 67.09,134.75 68.56,134.27C69.99,133.81 71.45,133.53 72.91,133.31C74.35,133.09 75.81,133.04 77.26,132.94C78.71,132.84 80.16,132.84 81.61,132.71C83.06,132.58 84.52,132.44 85.96,132.18C87.42,131.91 88.87,131.55 90.31,131.11C91.77,130.67 93.22,130.1 94.66,129.54C96.12,128.97 97.56,128.31 99.01,127.72C100.46,127.13 101.9,126.52 103.36,126.02C104.8,125.53 106.25,125.06 107.71,124.75C109.15,124.44 110.61,124.22 112.06,124.14C113.51,124.06 114.97,124.12 116.41,124.27C117.87,124.42 119.32,124.73 120.76,125.06C122.22,125.4 123.66,125.86 125.11,126.29C126.56,126.72 128.01,127.21 129.46,127.63C130.91,128.05 132.35,128.48 133.81,128.82C135.25,129.15 136.71,129.44 138.16,129.65C139.61,129.86 141.06,129.98 142.51,130.08C143.96,130.18 145.41,130.18 146.86,130.24C148.31,130.3 149.76,130.28 151.21,130.42C152.67,130.56 154.14,130.7 155.57,131.11C157.05,131.54 158.54,132.11 159.92,132.99C161.45,133.96 162.91,135.27 164.27,136.8C165.84,138.56 167.25,140.76 168.62,143.09C170.17,145.72 171.57,148.78 172.97,151.88C174.48,155.23 175.89,158.92 177.32,162.53C178.79,166.24 180.2,170.15 181.67,173.85C183.1,177.45 184.51,181.11 186.02,184.46C187.42,187.56 188.83,190.61 190.37,193.29C191.75,195.68 193.17,197.94 194.72,199.82C196.09,201.48 197.54,202.95 199.07,204.12Q200.46,205.18 203.42,206.65L203.42,209" style="vector-effect: non-scaling-stroke; stroke-width: 2px; stroke: rgb(99, 110, 250); stroke-opacity: 1; fill: rgb(99, 110, 250); fill-opacity: 0.5;"/></g><g class="trace violins" style="opacity: 1;"><path class="violin" d="M170.64,152.43L170.64,151.09Q171.48,150.25 171.86,149.7C172.31,149.04 172.7,148.24 173.08,147.36C173.53,146.31 173.93,145.08 174.31,143.78C174.75,142.28 175.14,140.6 175.53,138.86C175.96,136.93 176.36,134.83 176.76,132.72C177.18,130.48 177.58,128.11 177.98,125.78C178.39,123.42 178.79,120.99 179.2,118.64C179.6,116.36 180.01,114.06 180.43,111.89C180.83,109.85 181.22,107.85 181.65,105.98C182.04,104.27 182.45,102.63 182.88,101.11C183.27,99.75 183.67,98.45 184.1,97.26C184.49,96.2 184.88,95.21 185.32,94.31C185.71,93.52 186.11,92.78 186.55,92.13C186.94,91.55 187.34,91.04 187.77,90.58C188.16,90.16 188.59,89.83 189,89.46C189.41,89.09 189.83,88.78 190.22,88.36C190.65,87.89 191.06,87.38 191.44,86.75C191.89,86 192.29,85.09 192.67,84.12C193.12,82.99 193.5,81.67 193.89,80.35C194.32,78.92 194.71,77.33 195.12,75.84C195.52,74.38 195.9,72.82 196.34,71.51C196.72,70.39 197.04,69.12 197.56,68.45C197.92,68 198.41,67.51 198.79,67.57C199.24,67.64 199.65,68.55 200.01,69.28C200.52,70.34 200.85,71.93 201.23,73.47C201.68,75.33 202.07,77.5 202.46,79.68C202.89,82.1 203.28,84.73 203.68,87.37C204.1,90.16 204.51,93.08 204.91,96.01C205.32,99.03 205.72,102.13 206.13,105.2C206.54,108.29 206.94,111.44 207.35,114.51C207.75,117.53 208.16,120.57 208.58,123.48C208.98,126.26 209.37,129.01 209.8,131.6C210.19,133.98 210.59,136.31 211.03,138.43C211.42,140.31 211.8,142.1 212.25,143.7C212.63,145.06 213.01,146.34 213.47,147.42C213.85,148.32 214.25,149.13 214.7,149.79Q215.08,150.34 215.92,151.16L215.92,152.43" style="vector-effect: non-scaling-stroke; stroke-width: 2px; stroke: rgb(239, 85, 59); stroke-opacity: 1; fill: rgb(239, 85, 59); fill-opacity: 0.5;"/></g><g class="trace violins" style="opacity: 1;"><path class="violin" d="M204.33,95.86L204.33,94.46Q204.82,93.6 205.03,93.06C205.29,92.39 205.51,91.6 205.72,90.74C205.98,89.7 206.2,88.51 206.42,87.24C206.67,85.75 206.89,84.09 207.11,82.35C207.36,80.38 207.59,78.24 207.81,76.02C208.06,73.58 208.29,70.97 208.51,68.31C208.75,65.46 208.97,62.47 209.2,59.45C209.44,56.3 209.67,53.03 209.9,49.79C210.13,46.52 210.36,43.17 210.59,39.92C210.82,36.76 211.05,33.56 211.29,30.56C211.52,27.77 211.74,25 211.99,22.5C212.21,20.33 212.41,18.21 212.68,16.42C212.89,15 213.08,13.61 213.38,12.62C213.58,11.95 213.76,11.2 214.08,11C214.28,10.88 214.56,10.92 214.77,11.03C215.04,11.18 215.25,11.65 215.47,12.01C215.72,12.41 215.93,12.89 216.16,13.33C216.39,13.78 216.63,14.23 216.86,14.7C217.1,15.2 217.34,15.69 217.56,16.25C217.81,16.87 218.03,17.54 218.25,18.27C218.5,19.1 218.73,20.01 218.95,20.95C219.19,21.97 219.42,23.07 219.65,24.16C219.89,25.28 220.11,26.44 220.34,27.58C220.57,28.72 220.81,29.83 221.04,30.99C221.28,32.19 221.51,33.36 221.73,34.64C221.97,36.06 222.21,37.52 222.43,39.13C222.68,40.98 222.91,42.99 223.13,45.11C223.38,47.51 223.6,50.14 223.82,52.79C224.06,55.64 224.29,58.7 224.52,61.68C224.75,64.7 224.98,67.83 225.22,70.79C225.45,73.6 225.66,76.41 225.91,78.99C226.13,81.29 226.35,83.53 226.61,85.51C226.82,87.17 227.03,88.75 227.3,90.09Q227.51,91.16 228,92.94L228,95.86" style="vector-effect: non-scaling-stroke; stroke-width: 2px; stroke: rgb(0, 204, 150); stroke-opacity: 1; fill: rgb(0, 204, 150); fill-opacity: 0.5;"/></g></g></g><g class="overplot"/><path class="xlines-above crisp" d="M0,0" style="fill: none;"/><path class="ylines-above crisp" d="M0,0" style="fill: none;"/><g class="overlines-above"/><g class="xaxislayer-above"><g class="xtick"><text text-anchor="middle" x="0" y="333" transform="translate(117.89,0)" style="font-family: 'Open Sans', verdana, arial, sans-serif; font-size: 12px; fill: rgb(42, 63, 95); fill-opacity: 1; white-space: pre;">0</text></g><g class="xtick"><text text-anchor="middle" x="0" y="333" transform="translate(195.47,0)" style="font-family: 'Open Sans', verdana, arial, sans-serif; font-size: 12px; fill: rgb(42, 63, 95); fill-opacity: 1; white-space: pre;">1000</text></g><g class="xtick"><text text-anchor="middle" x="0" y="333" transform="translate(273.05,0)" style="font-family: 'Open Sans', verdana, arial, sans-serif; font-size: 12px; fill: rgb(42, 63, 95); fill-opacity: 1; white-space: pre;">2000</text></g></g><g class="yaxislayer-above"><g class="ytick"><text text-anchor="end" x="79" y="4.199999999999999" transform="translate(0,309)" style="font-family: 'Open Sans', verdana, arial, sans-serif; font-size: 12px; fill: rgb(42, 63, 95); fill-opacity: 1; white-space: pre;">A</text></g><g class="ytick"><text text-anchor="end" x="79" y="4.199999999999999" transform="translate(0,252.43)" style="font-family: 'Open Sans', verdana, arial, sans-serif; font-size: 12px; fill: rgb(42, 63, 95); fill-opacity: 1; white-space: pre;">B</text></g><g class="ytick"><text text-anchor="end" x="79" y="4.199999999999999" transform="translate(0,195.86)" style="font-family: 'Open Sans', verdana, arial, sans-serif; font-size: 12px; fill: rgb(42, 63, 95); fill-opacity: 1; white-space: pre;">C</text></g></g><g class="overaxes-above"/></g></g><g class="polarlayer"/><g class="ternarylayer"/><g class="geolayer"/><g class="funnelarealayer"/><g class="pielayer"/><g class="treemaplayer"/><g class="sunburstlayer"/><g class="glimages"/><defs id="topdefs-449c30"><g class="clips"/></defs><g class="layer-above"><g class="imagelayer"/><g class="shapelayer"/></g><g class="infolayer"><g class="g-gtitle"/><g class="g-xtitle"><text class="xtitle" x="200" y="361.3" text-anchor="middle" style="font-family: 'Open Sans', verdana, arial, sans-serif; font-size: 14px; fill: rgb(42, 63, 95); opacity: 1; font-weight: normal; white-space: pre;">Correlated 2</text></g><g class="g-ytitle"><text class="ytitle" transform="rotate(-90,46.41875,210)" x="46.41875" y="210" text-anchor="middle" style="font-family: 'Open Sans', verdana, arial, sans-serif; font-size: 14px; fill: rgb(42, 63, 95); opacity: 1; font-weight: normal; white-space: pre;">Trinary Skewed 1A</text></g></g></svg>