<svg class="main-svg" xmlns="http://www.w3.org/2000/svg" xmlns:xlink="http://www.w3.org/1999/xlink" width="400" height="400" viewBox="0 0 400 400"><rect x="0" y="0" width="400" height="400" style="fill: rgb(0, 0, 0); fill-opacity: 0;"/><defs id="defs-03184c"><g class="clips"><clipPath id="clip03184cxyplot" class="plotclip"><rect width="240" height="220"/></clipPath><clipPath class="axesclip" id="clip03184cx"><rect x="80" y="0" width="240" height="400"/></clipPath><clipPath class="axesclip" id="clip03184cy"><rect x="0" y="100" width="400" height="220"/></clipPath><clipPath class="axesclip" id="clip03184cxy"><rect x="80" y="100" width="240" height="220"/></clipPath></g><g class="gradients"/></defs><g class="bglayer"><rect class="bg" x="80" y="100" width="240" height="220" style="fill: rgb(0, 0, 0); fill-opacity: 0; stroke-width: 0;"/></g><g class="layer-below"><g class="imagelayer"/><g class="shapelayer"/></g><g class="cartesianlayer"><g class="subplot xy"><g class="layer-subplot"><g class="shapelayer"/><g class="imagelayer"/></g><g class="gridlayer"><g class="x"/><g class="y"/></g><g class="zerolinelayer"/><path class="xlines-below"/><path class="ylines-below"/><g class="overlines-below"/><g class="xaxislayer-below"/><g class="yaxislayer-below"/><g class="overaxes-below"/><g class="plot" transform="translate(80, 100)" clip-path="url('#clip03184cxyplot')"><g class="violinlayer mlayer"><g class="trace violins" style="opacity: 1;"><path class="violin" d="M155.13,209L155.13,207.84Q156.02,207.07 156.42,206.54C156.89,205.91 157.31,205.12 157.7,204.25C158.18,203.2 158.58,201.96 158.98,200.64C159.45,199.09 159.86,197.34 160.27,195.52C160.73,193.48 161.14,191.25 161.55,188.99C161.99,186.58 162.41,184.01 162.83,181.48C163.26,178.89 163.69,176.21 164.12,173.61C164.54,171.06 164.96,168.49 165.4,166.04C165.82,163.71 166.23,161.41 166.68,159.23C167.09,157.21 167.52,155.23 167.97,153.4C168.38,151.74 168.79,150.13 169.25,148.69C169.65,147.44 170.04,146.2 170.53,145.23C170.92,144.46 171.31,143.61 171.82,143.26C172.2,143 172.71,142.86 173.1,143C173.58,143.17 173.99,143.9 174.38,144.54C174.88,145.36 175.26,146.52 175.67,147.63C176.13,148.89 176.53,150.33 176.95,151.72C177.38,153.15 177.79,154.66 178.23,156.07C178.65,157.41 179.06,158.77 179.52,159.96C179.92,161.01 180.32,162.04 180.8,162.87C181.19,163.55 181.6,164.2 182.08,164.62C182.47,164.97 182.93,165.22 183.37,165.34C183.78,165.45 184.22,165.38 184.65,165.36C185.08,165.34 185.5,165.19 185.93,165.2C186.36,165.21 186.82,165.23 187.22,165.43C187.69,165.66 188.12,166.12 188.5,166.64C189,167.32 189.39,168.27 189.78,169.27C190.26,170.49 190.67,171.98 191.07,173.49C191.53,175.21 191.94,177.14 192.35,179.06C192.79,181.1 193.2,183.28 193.63,185.39C194.06,187.5 194.48,189.68 194.92,191.72C195.34,193.65 195.75,195.57 196.2,197.32C196.61,198.89 197.02,200.4 197.48,201.74C197.88,202.88 198.29,203.96 198.76,204.87C199.16,205.63 199.58,206.32 200.05,206.86Q200.45,207.32 201.33,207.99L201.33,209" style="vector-effect: non-scaling-stroke; stroke-width: 2px; stroke: rgb(99, 110, 250); stroke-opacity: 1; fill: rgb(99, 110, 250); fill-opacity: 0.5;"/></g><g class="trace violins" style="opacity: 1;"><path class="violin" d="M12,165L12,163.55Q14.67,162.69 15.96,162.04C17.32,161.35 18.65,160.5 19.92,159.49C21.3,158.39 22.61,157.07 23.88,155.63C25.26,154.07 26.56,152.27 27.84,150.41C29.21,148.43 30.5,146.24 31.8,144.06C33.14,141.81 34.44,139.42 35.76,137.12C37.08,134.84 38.37,132.5 39.72,130.31C41.01,128.21 42.32,126.13 43.68,124.22C44.96,122.43 46.27,120.73 47.64,119.18C48.92,117.73 50.24,116.41 51.6,115.19C52.89,114.04 54.21,112.99 55.56,112.04C56.85,111.13 58.18,110.3 59.52,109.57C60.82,108.87 62.13,108.24 63.47,107.74C64.77,107.25 66.1,106.86 67.43,106.59C68.74,106.33 70.07,106.21 71.39,106.14C72.71,106.07 74.03,106.14 75.35,106.18C76.67,106.22 77.99,106.34 79.31,106.36C80.63,106.38 81.95,106.39 83.27,106.29C84.59,106.19 85.92,106.01 87.23,105.74C88.56,105.47 89.88,105.08 91.19,104.67C92.52,104.25 93.83,103.74 95.15,103.26C96.47,102.78 97.79,102.25 99.11,101.78C100.43,101.31 101.74,100.83 103.07,100.45C104.38,100.07 105.7,99.72 107.03,99.48C108.34,99.24 109.67,99.07 110.99,99C112.31,98.93 113.63,98.95 114.95,99.06C116.27,99.17 117.6,99.38 118.91,99.64C120.24,99.9 121.55,100.26 122.87,100.62C124.19,100.98 125.51,101.41 126.83,101.81C128.15,102.21 129.47,102.63 130.79,103.03C132.11,103.43 133.43,103.81 134.75,104.23C136.07,104.65 137.4,105.03 138.71,105.53C140.04,106.04 141.38,106.55 142.67,107.25C144.02,107.98 145.36,108.82 146.63,109.84C148.01,110.95 149.33,112.27 150.59,113.72C151.98,115.32 153.28,117.16 154.55,119.09C155.93,121.18 157.21,123.51 158.5,125.85C159.85,128.31 161.15,130.94 162.46,133.51C163.79,136.1 165.08,138.8 166.42,141.34C167.72,143.79 169.01,146.26 170.38,148.51C171.66,150.6 172.95,152.64 174.34,154.41C175.6,156.02 176.91,157.52 178.3,158.76C179.57,159.9 180.89,160.87 182.26,161.65Q183.54,162.38 186.22,163.36L186.22,165" style="vector-effect: non-scaling-stroke; stroke-width: 2px; stroke: rgb(239, 85, 59); stroke-opacity: 1; fill: rgb(239, 85, 59); fill-opacity: 0.5;"/></g><g class="trace violins" style="opacity: 1;"><path class="violin" d="M187.32,121L187.32,119.88Q188.07,119.14 188.4,118.65C188.8,118.05 189.15,117.31 189.48,116.49C189.89,115.48 190.23,114.28 190.56,113C190.96,111.46 191.3,109.7 191.64,107.86C192.03,105.73 192.38,103.37 192.72,100.95C193.1,98.28 193.44,95.39 193.79,92.49C194.16,89.44 194.51,86.22 194.87,83.09C195.23,79.97 195.58,76.75 195.95,73.73C196.3,70.9 196.64,68.04 197.03,65.5C197.37,63.3 197.69,61.11 198.11,59.36C198.43,58.02 198.69,56.58 199.19,55.85C199.5,55.4 199.93,54.96 200.27,55C200.65,55.05 201.02,55.82 201.34,56.4C201.77,57.18 202.08,58.31 202.42,59.37C202.8,60.55 203.14,61.89 203.5,63.16C203.86,64.44 204.21,65.78 204.58,67.02C204.93,68.17 205.27,69.35 205.66,70.35C206,71.2 206.31,72.08 206.74,72.65C207.06,73.08 207.44,73.55 207.82,73.6C208.16,73.65 208.58,73.39 208.9,73.1C209.33,72.71 209.63,71.96 209.97,71.29C210.36,70.51 210.69,69.55 211.05,68.69C211.41,67.85 211.71,66.86 212.13,66.19C212.46,65.67 212.84,64.94 213.21,64.92C213.56,64.9 213.98,65.45 214.29,65.97C214.8,66.83 215.05,68.43 215.37,69.93C215.79,71.87 216.11,74.27 216.45,76.65C216.83,79.34 217.18,82.34 217.53,85.26C217.89,88.27 218.23,91.43 218.6,94.42C218.95,97.28 219.3,100.18 219.68,102.83C220.02,105.22 220.37,107.56 220.76,109.63C221.1,111.4 221.43,113.08 221.84,114.51C222.17,115.67 222.51,116.75 222.92,117.62Q223.25,118.32 224,119.4L224,121" style="vector-effect: non-scaling-stroke; stroke-width: 2px; stroke: rgb(0, 204, 150); stroke-opacity: 1; fill: rgb(0, 204, 150); fill-opacity: 0.5;"/></g><g class="trace violins" style="opacity: 1;"><path class="violin" d="M214.86,77L214.86,75.06Q215.17,73.88 215.31,73.17C215.48,72.27 215.62,71.2 215.76,70.06C215.93,68.68 216.08,67.1 216.22,65.45C216.38,63.53 216.53,61.41 216.67,59.23C216.83,56.8 216.97,54.18 217.12,51.54C217.28,48.72 217.43,45.76 217.58,42.82C217.73,39.82 217.88,36.71 218.03,33.71C218.18,30.79 218.32,27.81 218.48,25.05C218.63,22.53 218.77,19.98 218.94,17.8C219.08,16.01 219.19,14.16 219.39,12.91C219.52,12.12 219.66,11.01 219.84,11C219.98,10.99 220.17,11.62 220.3,12.1C220.52,12.9 220.61,14.26 220.75,15.45C220.91,16.79 221.04,18.34 221.2,19.72C221.35,21.02 221.48,22.4 221.66,23.49C221.8,24.34 221.87,25.3 222.11,25.74C222.24,25.97 222.42,26.2 222.56,26.18C222.73,26.15 222.87,25.59 223.01,25.25C223.18,24.85 223.28,24.25 223.47,23.91C223.6,23.67 223.79,23.33 223.92,23.35C224.11,23.38 224.24,24.14 224.37,24.73C224.58,25.71 224.69,27.23 224.83,28.73C225.01,30.65 225.14,32.99 225.28,35.31C225.44,37.92 225.58,40.83 225.73,43.65C225.88,46.55 226.03,49.6 226.19,52.47C226.34,55.21 226.48,57.98 226.64,60.5C226.78,62.75 226.92,64.95 227.09,66.89C227.23,68.52 227.38,70.06 227.55,71.37Q227.69,72.41 228,74.15L228,77" style="vector-effect: non-scaling-stroke; stroke-width: 2px; stroke: rgb(171, 99, 250); stroke-opacity: 1; fill: rgb(171, 99, 250); fill-opacity: 0.5;"/></g></g></g><g class="overplot"/><path class="xlines-above crisp" d="M0,0" style="fill: none;"/><path class="ylines-above crisp" d="M0,0" style="fill: none;"/><g class="overlines-above"/><g class="xaxislayer-above"><g class="xtick"><text text-anchor="middle" x="0" y="333" transform="translate(115.75999999999999,0)" style="font-family: 'Open Sans', verdana, arial, sans-serif; font-size: 12px; fill: rgb(42, 63, 95); fill-opacity: 1; white-space: pre;">0</text></g><g class="xtick"><text text-anchor="middle" x="0" y="333" transform="translate(194.8,0)" style="font-family: 'Open Sans', verdana, arial, sans-serif; font-size: 12px; fill: rgb(42, 63, 95); fill-opacity: 1; white-space: pre;">1000</text></g><g class="xtick"><text text-anchor="middle" x="0" y="333" transform="translate(273.84000000000003,0)" style="font-family: 'Open Sans', verdana, arial, sans-serif; font-size: 12px; fill: rgb(42, 63, 95); fill-opacity: 1; white-space: pre;">2000</text></g></g><g class="yaxislayer-above"><g class="ytick"><text text-anchor="end" x="79" y="4.199999999999999" transform="translate(0,309)" style="font-family: 'Open Sans', verdana, arial, sans-serif; font-size: 12px; fill: rgb(42, 63, 95); fill-opacity: 1; white-space: pre;">I</text></g><g class="ytick"><text text-anchor="end" x="79" y="4.199999999999999" transform="translate(0,265)" style="font-family: 'Open Sans', verdana, arial, sans-serif; font-size: 12px; fill: rgb(42, 63, 95); fill-opacity: 1; white-space: pre;">H</text></g><g class="ytick"><text text-anchor="end" x="79" y="4.199999999999999" transform="translate(0,221)" style="font-family: 'Open Sans', verdana, arial, sans-serif; font-size: 12px; fill: rgb(42, 63, 95); fill-opacity: 1; white-space: pre;">J</text></g><g class="ytick"><text text-anchor="end" x="79" y="4.199999999999999" transform="translate(0,177)" style="font-family: 'Open Sans', verdana, arial, sans-serif; font-size: 12px; fill: rgb(42, 63, 95); fill-opacity: 1; white-space: pre;">K</text></g></g><g class="overaxes-above"/></g></g><g class="polarlayer"/><g class="ternarylayer"/><g class="geolayer"/><g class="funnelarealayer"/><g class="pielayer"/><g class="treemaplayer"/><g class="sunburstlayer"/><g class="glimages"/><defs id="topdefs-03184c"><g class="clips"/></defs><g class="layer-above"><g class="imagelayer"/><g class="shapelayer"/></g><g class="infolayer"><g class="g-gtitle"/><g class="g-xtitle"><text class="xtitle" x="200" y="361.3" text-anchor="middle" style="font-family: 'Open Sans', verdana, arial, sans-serif; font-size: 14px; fill: rgb(42, 63, 95); opacity: 1; font-weight: normal; white-space: pre;">Correlated 1</text></g><g class="g-ytitle"><text class="ytitle" transform="rotate(-90,45.340625,210)" x="45.340625" y="210" text-anchor="middle" style="font-family: 'Open Sans', verdana, arial, sans-serif; font-size: 14px; fill: rgb(42, 63, 95); opacity: 1; font-weight: normal; white-space: pre;">Quaternary Skewed 1A</text></g></g></svg>