<svg class="main-svg" xmlns="http://www.w3.org/2000/svg" xmlns:xlink="http://www.w3.org/1999/xlink" width="400" height="400" viewBox="0 0 400 400"><rect x="0" y="0" width="400" height="400" style="fill: rgb(0, 0, 0); fill-opacity: 0;"/><defs id="defs-84f065"><g class="clips"><clipPath id="clip84f065xyplot" class="plotclip"><rect width="240" height="220"/></clipPath><clipPath class="axesclip" id="clip84f065x"><rect x="80" y="0" width="240" height="400"/></clipPath><clipPath class="axesclip" id="clip84f065y"><rect x="0" y="100" width="400" height="220"/></clipPath><clipPath class="axesclip" id="clip84f065xy"><rect x="80" y="100" width="240" height="220"/></clipPath></g><g class="gradients"/></defs><g class="bglayer"><rect class="bg" x="80" y="100" width="240" height="220" style="fill: rgb(0, 0, 0); fill-opacity: 0; stroke-width: 0;"/></g><g class="layer-below"><g class="imagelayer"/><g class="shapelayer"/></g><g class="cartesianlayer"><g class="subplot xy"><g class="layer-subplot"><g class="shapelayer"/><g class="imagelayer"/></g><g class="gridlayer"><g class="x"/><g class="y"/></g><g class="zerolinelayer"/><path class="xlines-below"/><path class="ylines-below"/><g class="overlines-below"/><g class="xaxislayer-below"/><g class="yaxislayer-below"/><g class="overaxes-below"/><g class="plot" transform="translate(80, 100)" clip-path="url('#clip84f065xyplot')"><g class="violinlayer mlayer"><g class="trace violins" style="opacity: 1;"><path class="violin" d="M12,209L12,206.35Q15.49,204.77 17.14,203.63C18.93,202.39 20.64,200.85 22.27,199.09C24.09,197.12 25.78,194.77 27.41,192.25C29.23,189.44 30.9,186.25 32.55,182.95C34.34,179.36 36.01,175.42 37.68,171.45C39.44,167.27 41.12,162.85 42.82,158.48C44.55,154.04 46.23,149.45 47.96,145.03C49.66,140.71 51.34,136.34 53.1,132.24C54.76,128.38 56.43,124.54 58.23,121.1C59.87,117.97 61.53,114.94 63.37,112.39C64.99,110.15 66.67,108.06 68.51,106.49C70.13,105.11 71.86,103.99 73.64,103.27C75.3,102.6 77.06,102.33 78.78,102.16C80.48,102 82.21,102.17 83.92,102.27C85.63,102.37 87.34,102.62 89.05,102.76C90.76,102.91 92.48,103.04 94.19,103.14C95.9,103.24 97.62,103.26 99.33,103.34C101.04,103.42 102.75,103.47 104.46,103.61C106.17,103.75 107.89,103.94 109.6,104.18C111.32,104.42 113.03,104.77 114.74,105.05C116.45,105.33 118.15,105.7 119.87,105.85C121.58,106 123.31,106.13 125.01,105.97C126.73,105.81 128.47,105.45 130.15,104.87C131.9,104.27 133.61,103.36 135.29,102.39C137.04,101.38 138.72,100.09 140.42,98.89C142.14,97.67 143.82,96.29 145.56,95.12C147.25,93.99 148.94,92.81 150.7,91.98C152.37,91.19 154.09,90.49 155.83,90.2C157.52,89.92 159.29,89.9 160.97,90.24C162.72,90.59 164.47,91.35 166.11,92.36C167.91,93.47 169.62,95.03 171.24,96.78C173.07,98.76 174.76,101.19 176.38,103.79C178.21,106.72 179.88,110.08 181.52,113.57C183.32,117.42 184.99,121.67 186.65,125.98C188.42,130.57 190.1,135.49 191.79,140.35C193.52,145.33 195.2,150.51 196.93,155.5C198.63,160.4 200.3,165.38 202.07,170.03C203.73,174.4 205.39,178.73 207.2,182.64C208.83,186.18 210.51,189.59 212.34,192.54C213.96,195.15 215.65,197.56 217.48,199.56C219.1,201.33 220.82,202.85 222.61,204.05Q224.25,205.16 227.75,206.63L227.75,209" style="vector-effect: non-scaling-stroke; stroke-width: 2px; stroke: rgb(99, 110, 250); stroke-opacity: 1; fill: rgb(99, 110, 250); fill-opacity: 0.5;"/></g><g class="trace violins" style="opacity: 1;"><path class="violin" d="M12.39,129.8L12.39,127.51Q15.88,126.1 17.53,125.04C19.31,123.9 21.03,122.46 22.66,120.79C24.48,118.93 26.16,116.67 27.79,114.25C29.61,111.54 31.28,108.43 32.93,105.23C34.72,101.75 36.38,97.91 38.06,94.1C39.81,90.13 41.47,85.92 43.19,81.85C44.9,77.81 46.57,73.66 48.33,69.78C50,66.09 51.67,62.43 53.46,59.1C55.1,56.04 56.79,53.12 58.59,50.5C60.23,48.11 61.95,45.94 63.73,43.94C65.39,42.07 67.12,40.44 68.86,38.81C70.55,37.23 72.28,35.8 73.99,34.3C75.7,32.8 77.43,31.32 79.13,29.79C80.85,28.25 82.55,26.66 84.26,25.1C85.97,23.55 87.66,21.94 89.39,20.47C91.08,19.04 92.78,17.6 94.53,16.39C96.2,15.24 97.91,14.16 99.66,13.35C101.33,12.57 103.07,11.96 104.8,11.57C106.49,11.19 108.22,11.03 109.93,11C111.64,10.97 113.36,11.13 115.06,11.37C116.78,11.61 118.5,11.99 120.2,12.44C121.92,12.89 123.64,13.43 125.33,14.07C127.06,14.72 128.77,15.47 130.46,16.31C132.2,17.18 133.91,18.16 135.6,19.22C137.34,20.31 139.03,21.53 140.73,22.76C142.45,24.01 144.14,25.36 145.86,26.64C147.57,27.91 149.26,29.25 151,30.39C152.68,31.5 154.38,32.59 156.13,33.41C157.8,34.19 159.53,34.84 161.26,35.24C162.95,35.63 164.69,35.73 166.4,35.79C168.11,35.85 169.82,35.58 171.53,35.59C173.24,35.6 174.98,35.45 176.66,35.84C178.41,36.25 180.2,36.92 181.8,38.06C183.66,39.38 185.35,41.41 186.93,43.63C188.82,46.28 190.45,49.66 192.07,53.11C193.9,57.01 195.53,61.49 197.2,65.91C198.96,70.58 200.61,75.63 202.33,80.44C204.03,85.21 205.7,90.13 207.47,94.67C209.13,98.92 210.78,103.15 212.6,106.9C214.22,110.25 215.89,113.46 217.73,116.17C219.34,118.54 221.04,120.69 222.87,122.42Q224.49,123.95 228,126.17L228,129.8" style="vector-effect: non-scaling-stroke; stroke-width: 2px; stroke: rgb(239, 85, 59); stroke-opacity: 1; fill: rgb(239, 85, 59); fill-opacity: 0.5;"/></g></g></g><g class="overplot"/><path class="xlines-above crisp" d="M0,0" style="fill: none;"/><path class="ylines-above crisp" d="M0,0" style="fill: none;"/><g class="overlines-above"/><g class="xaxislayer-above"><g class="xtick"><text text-anchor="middle" x="0" y="333" transform="translate(122.89,0)" style="font-family: 'Open Sans', verdana, arial, sans-serif; font-size: 12px; fill: rgb(42, 63, 95); fill-opacity: 1; white-space: pre;">0</text></g><g class="xtick"><text text-anchor="middle" x="0" y="333" transform="translate(187.1,0)" style="font-family: 'Open Sans', verdana, arial, sans-serif; font-size: 12px; fill: rgb(42, 63, 95); fill-opacity: 1; white-space: pre;">1000</text></g><g class="xtick"><text text-anchor="middle" x="0" y="333" transform="translate(251.31,0)" style="font-family: 'Open Sans', verdana, arial, sans-serif; font-size: 12px; fill: rgb(42, 63, 95); fill-opacity: 1; white-space: pre;">2000</text></g><g class="xtick"><text text-anchor="middle" x="0" y="333" transform="translate(315.52,0)" style="font-family: 'Open Sans', verdana, arial, sans-serif; font-size: 12px; fill: rgb(42, 63, 95); fill-opacity: 1; white-space: pre;">3000</text></g></g><g class="yaxislayer-above"><g class="ytick"><text text-anchor="end" x="79" y="4.199999999999999" transform="translate(0,309)" style="font-family: 'Open Sans', verdana, arial, sans-serif; font-size: 12px; fill: rgb(42, 63, 95); fill-opacity: 1; white-space: pre;">A</text></g><g class="ytick"><text text-anchor="end" x="79" y="4.199999999999999" transform="translate(0,229.8)" style="font-family: 'Open Sans', verdana, arial, sans-serif; font-size: 12px; fill: rgb(42, 63, 95); fill-opacity: 1; white-space: pre;">B</text></g></g><g class="overaxes-above"/></g></g><g class="polarlayer"/><g class="ternarylayer"/><g class="geolayer"/><g class="funnelarealayer"/><g class="pielayer"/><g class="treemaplayer"/><g class="sunburstlayer"/><g class="glimages"/><defs id="topdefs-84f065"><g class="clips"/></defs><g class="layer-above"><g class="imagelayer"/><g class="shapelayer"/></g><g class="infolayer"><g class="g-gtitle"/><g class="g-xtitle"><text class="xtitle" x="200" y="361.3" text-anchor="middle" style="font-family: 'Open Sans', verdana, arial, sans-serif; font-size: 14px; fill: rgb(42, 63, 95); opacity: 1; font-weight: normal; white-space: pre;">Correlated 1</text></g><g class="g-ytitle"><text class="ytitle" transform="rotate(-90,46.41875,210)" x="46.41875" y="210" text-anchor="middle" style="font-family: 'Open Sans', verdana, arial, sans-serif; font-size: 14px; fill: rgb(42, 63, 95); opacity: 1; font-weight: normal; white-space: pre;">Binary Balanced 1</text></g></g></svg>