<svg class="main-svg" xmlns="http://www.w3.org/2000/svg" xmlns:xlink="http://www.w3.org/1999/xlink" width="700" height="500" viewBox="0 0 700 500"><rect x="0" y="0" width="700" height="500" style="fill: rgb(0, 0, 0); fill-opacity: 0;"/><defs id="defs-04c288"><g class="clips"><clipPath id="clip04c288xyplot" class="plotclip"><rect width="540" height="320"/></clipPath><clipPath class="axesclip" id="clip04c288x"><rect x="80" y="0" width="540" height="500"/></clipPath><clipPath class="axesclip" id="clip04c288y"><rect x="0" y="100" width="700" height="320"/></clipPath><clipPath class="axesclip" id="clip04c288xy"><rect x="80" y="100" width="540" height="320"/></clipPath></g><g class="gradients"/></defs><g class="bglayer"><rect class="bg" x="80" y="100" width="540" height="320" style="fill: rgb(0, 0, 0); fill-opacity: 0; stroke-width: 0;"/></g><g class="layer-below"><g class="imagelayer"/><g class="shapelayer"/></g><g class="cartesianlayer"><g class="subplot xy"><g class="layer-subplot"><g class="shapelayer"/><g class="imagelayer"/></g><g class="gridlayer"><g class="x"/><g class="y"/></g><g class="zerolinelayer"/><path class="xlines-below"/><path class="ylines-below"/><g class="overlines-below"/><g class="xaxislayer-below"/><g class="yaxislayer-below"/><g class="overaxes-below"/><g class="plot" transform="translate(80, 100)" clip-path="url('#clip04c288xyplot')"><g class="violinlayer mlayer"><g class="trace violins" style="opacity: 1;"><path class="violin" d="M51.44,304L51.44,291.73Q62.81,285.31 68.23,281.23C74.02,276.87 79.55,271.59 85.01,266.16C90.75,260.45 96.21,253.87 101.79,247.67C107.4,241.44 112.8,234.58 118.58,228.88C124.01,223.52 129.43,217.81 135.36,214.28C140.68,211.11 146.49,208.35 152.14,208C157.68,207.65 163.59,209.44 168.92,211.99C174.84,214.82 180.31,220.04 185.71,224.99C191.54,230.33 196.92,237.05 202.49,243.17C208.11,249.34 213.54,256.06 219.27,261.88C224.74,267.42 230.23,272.97 236.05,277.37C241.45,281.46 247.06,285.16 252.84,287.66C258.27,290.01 263.98,291.64 269.62,292.24C275.17,292.83 280.88,292.43 286.4,291.34C292.07,290.22 297.71,288.02 303.18,285.46C308.91,282.78 314.47,279.11 319.97,275.43C325.66,271.62 331.15,267.06 336.75,262.9C342.34,258.75 347.8,254.14 353.53,250.52C359,247.06 364.56,243.51 370.32,241.53C375.77,239.65 381.53,238.44 387.1,238.62C392.71,238.81 398.44,240.49 403.88,242.69C409.65,245.02 415.17,248.84 420.66,252.51C426.37,256.33 431.85,261.03 437.45,265.26C443.04,269.49 448.55,274.01 454.23,277.89C459.74,281.65 465.31,285.27 471.01,288.24Q476.5,291.1 487.79,295.48L487.79,304" style="vector-effect: non-scaling-stroke; stroke-width: 2px; stroke: rgb(99, 110, 250); stroke-opacity: 1; fill: rgb(99, 110, 250); fill-opacity: 0.5;"/></g><g class="trace violins" style="opacity: 1;"><path class="violin" d="M75.43,240L75.43,228.55Q83.96,222.62 87.98,218.91C92.35,214.88 96.47,210.05 100.53,205.09C104.86,199.8 108.92,193.76 113.08,188C117.29,182.18 121.3,175.82 125.63,170.35C129.69,165.23 133.66,159.73 138.18,156.08C142.11,152.91 146.41,149.78 150.73,149.07C154.8,148.4 159.34,149.47 163.28,151.37C167.78,153.54 171.85,158.06 175.83,162.3C180.27,167.03 184.25,173.11 188.38,178.74C192.62,184.52 196.66,190.86 200.93,196.55C205.03,202.02 209.12,207.55 213.48,212.28C217.51,216.65 221.67,220.76 226.03,224.08C230.06,227.15 234.28,229.72 238.58,231.73C242.66,233.63 246.9,234.96 251.13,235.97C255.27,236.96 259.49,237.48 263.68,237.77C267.85,238.06 272.06,238.04 276.23,237.7C280.43,237.36 284.65,236.79 288.78,235.72C293.02,234.63 297.26,233.19 301.33,231.16C305.64,229.01 309.86,226.26 313.88,223.01C318.26,219.47 322.4,215.1 326.43,210.46C330.8,205.43 334.88,199.58 338.98,193.79C343.25,187.76 347.28,181.06 351.53,174.96C355.65,169.03 359.63,162.64 364.08,157.67C368.05,153.24 372.1,148.49 376.63,146.26C380.56,144.33 385.13,143.25 389.18,144C393.52,144.8 397.81,148.19 401.73,151.57C406.27,155.48 410.23,161.31 414.28,166.74C418.61,172.54 422.62,179.26 426.83,185.41C430.99,191.48 435.05,197.83 439.38,203.41C443.43,208.63 447.55,213.71 451.93,217.94Q455.95,221.82 464.48,228.04L464.48,240" style="vector-effect: non-scaling-stroke; stroke-width: 2px; stroke: rgb(239, 85, 59); stroke-opacity: 1; fill: rgb(239, 85, 59); fill-opacity: 0.5;"/></g><g class="trace violins" style="opacity: 1;"><path class="violin" d="M46.43,176L46.43,163.49Q58.05,157.2 63.62,153.2C69.53,148.96 75.21,143.84 80.81,138.56C86.68,133.02 92.29,126.65 98,120.61C103.75,114.52 109.3,107.84 115.19,102.17C120.78,96.79 126.34,91.07 132.38,87.31C137.86,83.9 143.73,80.78 149.57,80C155.2,79.25 161.25,80.29 166.76,82.36C172.76,84.61 178.43,89.19 183.95,93.66C189.93,98.5 195.46,104.83 201.14,110.64C206.92,116.56 212.48,123.16 218.33,128.89C223.95,134.4 229.57,140.04 235.52,144.46C241.06,148.57 246.78,152.41 252.71,154.79C258.27,157.02 264.15,158.5 269.9,158.68C275.61,158.86 281.51,157.76 287.09,155.89C292.99,153.92 298.73,150.51 304.28,146.83C310.22,142.89 315.85,137.76 321.48,132.75C327.32,127.55 332.89,121.53 338.67,116.14C344.35,110.84 349.91,105.06 355.86,100.66C361.4,96.57 367.1,92.41 373.05,90.36C378.59,88.46 384.6,87.53 390.24,88.24C396.06,88.97 401.93,91.79 407.43,94.95C413.43,98.39 419.02,103.61 424.62,108.55C430.49,113.73 436.06,119.86 441.81,125.43C447.52,130.96 453.14,136.78 459,141.83C464.61,146.67 470.3,151.34 476.19,155.2Q481.78,158.86 493.38,164.59L493.38,176" style="vector-effect: non-scaling-stroke; stroke-width: 2px; stroke: rgb(0, 204, 150); stroke-opacity: 1; fill: rgb(0, 204, 150); fill-opacity: 0.5;"/></g><g class="trace violins" style="opacity: 1;"><path class="violin" d="M27,112L27,104.88Q40.56,101.39 47.25,99.09C54.06,96.74 60.81,93.9 67.5,90.89C74.31,87.83 81.01,84.23 87.75,80.84C94.51,77.44 101.19,73.65 108,70.51C114.69,67.43 121.4,64.26 128.25,62.15C134.91,60.1 141.72,58.45 148.5,57.93C155.22,57.41 162.06,57.86 168.75,58.97C175.56,60.1 182.32,62.4 189,64.71C195.82,67.07 202.49,70.33 209.25,73.04C215.99,75.74 222.67,78.86 229.5,80.92C236.17,82.93 242.96,84.82 249.75,85.33C256.46,85.83 263.36,85.49 270,84C276.87,82.46 283.69,79.49 290.25,76C297.22,72.29 303.88,67.16 310.5,62.1C317.39,56.84 323.96,50.55 330.75,44.96C337.46,39.43 344.03,33.33 351,28.74C357.55,24.43 364.29,20.08 371.25,17.98C377.81,16 384.85,15.14 391.5,16C398.35,16.89 405.24,19.99 411.75,23.5C418.78,27.29 425.39,32.97 432,38.38C438.9,44.02 445.48,50.7 452.25,56.75C458.98,62.76 465.61,69.1 472.5,74.59C479.12,79.87 485.83,84.95 492.75,89.15Q499.35,93.16 513,99.41L513,112" style="vector-effect: non-scaling-stroke; stroke-width: 2px; stroke: rgb(171, 99, 250); stroke-opacity: 1; fill: rgb(171, 99, 250); fill-opacity: 0.5;"/></g></g></g><g class="overplot"/><path class="xlines-above crisp" d="M0,0" style="fill: none;"/><path class="ylines-above crisp" d="M0,0" style="fill: none;"/><g class="overlines-above"/><g class="xaxislayer-above"><g class="xtick"><text text-anchor="middle" x="0" y="433" transform="translate(176.04000000000002,0)" style="font-family: 'Open Sans', verdana, arial, sans-serif; font-size: 12px; fill: rgb(42, 63, 95); fill-opacity: 1; white-space: pre;">0</text></g><g class="xtick"><text text-anchor="middle" x="0" y="433" transform="translate(291.9,0)" style="font-family: 'Open Sans', verdana, arial, sans-serif; font-size: 12px; fill: rgb(42, 63, 95); fill-opacity: 1; white-space: pre;">2</text></g><g class="xtick"><text text-anchor="middle" x="0" y="433" transform="translate(407.76,0)" style="font-family: 'Open Sans', verdana, arial, sans-serif; font-size: 12px; fill: rgb(42, 63, 95); fill-opacity: 1; white-space: pre;">4</text></g><g class="xtick"><text text-anchor="middle" x="0" y="433" transform="translate(523.61,0)" style="font-family: 'Open Sans', verdana, arial, sans-serif; font-size: 12px; fill: rgb(42, 63, 95); fill-opacity: 1; white-space: pre;">6</text></g></g><g class="yaxislayer-above"><g class="ytick"><text text-anchor="end" x="79" y="4.199999999999999" transform="translate(0,404)" style="font-family: 'Open Sans', verdana, arial, sans-serif; font-size: 12px; fill: rgb(42, 63, 95); fill-opacity: 1; white-space: pre;">M</text></g><g class="ytick"><text text-anchor="end" x="79" y="4.199999999999999" transform="translate(0,340)" style="font-family: 'Open Sans', verdana, arial, sans-serif; font-size: 12px; fill: rgb(42, 63, 95); fill-opacity: 1; white-space: pre;">L</text></g><g class="ytick"><text text-anchor="end" x="79" y="4.199999999999999" transform="translate(0,276)" style="font-family: 'Open Sans', verdana, arial, sans-serif; font-size: 12px; fill: rgb(42, 63, 95); fill-opacity: 1; white-space: pre;">N</text></g><g class="ytick"><text text-anchor="end" x="79" y="4.199999999999999" transform="translate(0,212)" style="font-family: 'Open Sans', verdana, arial, sans-serif; font-size: 12px; fill: rgb(42, 63, 95); fill-opacity: 1; white-space: pre;">O</text></g></g><g class="overaxes-above"/></g></g><g class="polarlayer"/><g class="ternarylayer"/><g class="geolayer"/><g class="funnelarealayer"/><g class="pielayer"/><g class="treemaplayer"/><g class="sunburstlayer"/><g class="glimages"/><defs id="topdefs-04c288"><g class="clips"/></defs><g class="layer-above"><g class="imagelayer"/><g class="shapelayer"/></g><g class="infolayer"><g class="g-gtitle"/><g class="g-xtitle"><text class="xtitle" x="350" y="461.3" text-anchor="middle" style="font-family: 'Open Sans', verdana, arial, sans-serif; font-size: 14px; fill: rgb(42, 63, 95); opacity: 1; font-weight: normal; white-space: pre;">Quaternary Skewed 1B</text></g><g class="g-ytitle"><text class="ytitle" transform="rotate(-90,43.35625,260)" x="43.35625" y="260" text-anchor="middle" style="font-family: 'Open Sans', verdana, arial, sans-serif; font-size: 14px; fill: rgb(42, 63, 95); opacity: 1; font-weight: normal; white-space: pre;">Continuous Binary Normal 1</text></g></g></svg>