<svg class="main-svg" xmlns="http://www.w3.org/2000/svg" xmlns:xlink="http://www.w3.org/1999/xlink" width="700" height="500" viewBox="0 0 700 500"><rect x="0" y="0" width="700" height="500" style="fill: rgb(255, 255, 255); fill-opacity: 1;"/><defs id="defs-9c3675"><g class="clips"><clipPath id="clip9c3675xyplot" class="plotclip"><rect width="690" height="360"/></clipPath><clipPath class="axesclip" id="clip9c3675x"><rect x="5" y="0" width="690" height="500"/></clipPath><clipPath class="axesclip" id="clip9c3675y"><rect x="0" y="120" width="700" height="360"/></clipPath><clipPath class="axesclip" id="clip9c3675xy"><rect x="5" y="120" width="690" height="360"/></clipPath></g><g class="gradients"/></defs><g class="bglayer"/><g class="layer-below"><g class="imagelayer"/><g class="shapelayer"/></g><g class="cartesianlayer"><g class="subplot xy"><g class="layer-subplot"><g class="shapelayer"/><g class="imagelayer"/></g><g class="gridlayer"><g class="x"/><g class="y"/></g><g class="zerolinelayer"/><path class="xlines-below"/><path class="ylines-below"/><g class="overlines-below"/><g class="xaxislayer-below"/><g class="yaxislayer-below"/><g class="overaxes-below"/><g class="plot" transform="translate(5, 120)" clip-path="url('#clip9c3675xyplot')"><g class="scatterlayer mlayer"><g class="trace scatter trace6aeb35" style="stroke-miterlimit: 2; opacity: 1;"><g class="fills"/><g class="errorbars"/><g class="lines"><path class="js-line" d="M286.46,56.35L270.54,60.77L485.01,335.75L499,322.53L512.55,24.25L497.37,38.81L304.08,328.72L283.94,316.35L649.25,174.48L633.25,159.46L46.34,128.3L40.75,109.27L117.39,247.41L83.28,259.19" style="vector-effect: non-scaling-stroke; fill: none; stroke: rgb(136, 136, 136); stroke-opacity: 1; stroke-width: 1px; opacity: 1;"/></g><g class="points"><path class="point" transform="translate(286.46,56.35)" d="M5,0A5,5 0 1,1 0,-5A5,5 0 0,1 5,0Z" style="opacity: 1; stroke-width: 0px; fill: rgb(136, 136, 136); fill-opacity: 1;"/><path class="point" transform="translate(270.54,60.77)" d="M5,0A5,5 0 1,1 0,-5A5,5 0 0,1 5,0Z" style="opacity: 1; stroke-width: 0px; fill: rgb(136, 136, 136); fill-opacity: 1;"/><path class="point" transform="translate(485.01,335.75)" d="M5,0A5,5 0 1,1 0,-5A5,5 0 0,1 5,0Z" style="opacity: 1; stroke-width: 0px; fill: rgb(136, 136, 136); fill-opacity: 1;"/><path class="point" transform="translate(499,322.53)" d="M5,0A5,5 0 1,1 0,-5A5,5 0 0,1 5,0Z" style="opacity: 1; stroke-width: 0px; fill: rgb(136, 136, 136); fill-opacity: 1;"/><path class="point" transform="translate(512.55,24.25)" d="M5,0A5,5 0 1,1 0,-5A5,5 0 0,1 5,0Z" style="opacity: 1; stroke-width: 0px; fill: rgb(136, 136, 136); fill-opacity: 1;"/><path class="point" transform="translate(497.37,38.81)" d="M5,0A5,5 0 1,1 0,-5A5,5 0 0,1 5,0Z" style="opacity: 1; stroke-width: 0px; fill: rgb(136, 136, 136); fill-opacity: 1;"/><path class="point" transform="translate(304.08,328.72)" d="M5,0A5,5 0 1,1 0,-5A5,5 0 0,1 5,0Z" style="opacity: 1; stroke-width: 0px; fill: rgb(136, 136, 136); fill-opacity: 1;"/><path class="point" transform="translate(283.94,316.35)" d="M5,0A5,5 0 1,1 0,-5A5,5 0 0,1 5,0Z" style="opacity: 1; stroke-width: 0px; fill: rgb(136, 136, 136); fill-opacity: 1;"/><path class="point" transform="translate(649.25,174.48)" d="M5,0A5,5 0 1,1 0,-5A5,5 0 0,1 5,0Z" style="opacity: 1; stroke-width: 0px; fill: rgb(136, 136, 136); fill-opacity: 1;"/><path class="point" transform="translate(633.25,159.46)" d="M5,0A5,5 0 1,1 0,-5A5,5 0 0,1 5,0Z" style="opacity: 1; stroke-width: 0px; fill: rgb(136, 136, 136); fill-opacity: 1;"/><path class="point" transform="translate(46.34,128.3)" d="M5,0A5,5 0 1,1 0,-5A5,5 0 0,1 5,0Z" style="opacity: 1; stroke-width: 0px; fill: rgb(136, 136, 136); fill-opacity: 1;"/><path class="point" transform="translate(40.75,109.27)" d="M5,0A5,5 0 1,1 0,-5A5,5 0 0,1 5,0Z" style="opacity: 1; stroke-width: 0px; fill: rgb(136, 136, 136); fill-opacity: 1;"/><path class="point" transform="translate(117.39,247.41)" d="M5,0A5,5 0 1,1 0,-5A5,5 0 0,1 5,0Z" style="opacity: 1; stroke-width: 0px; fill: rgb(136, 136, 136); fill-opacity: 1;"/><path class="point" transform="translate(83.28,259.19)" d="M5,0A5,5 0 1,1 0,-5A5,5 0 0,1 5,0Z" style="opacity: 1; stroke-width: 0px; fill: rgb(136, 136, 136); fill-opacity: 1;"/></g><g class="text"/></g><g class="trace scatter tracee44b8e" style="stroke-miterlimit: 2; opacity: 1;"><g class="fills"/><g class="errorbars"/><g class="lines"/><g class="points"><path class="point" transform="translate(286.46,56.35)" d="M3,0A3,3 0 1,1 0,-3A3,3 0 0,1 3,0Z" style="opacity: 1; stroke-width: 0px; fill: rgb(203, 71, 121); fill-opacity: 1;"/><path class="point" transform="translate(270.54,60.77)" d="M3,0A3,3 0 1,1 0,-3A3,3 0 0,1 3,0Z" style="opacity: 1; stroke-width: 0px; fill: rgb(203, 71, 121); fill-opacity: 1;"/><path class="point" transform="translate(485.01,335.75)" d="M3,0A3,3 0 1,1 0,-3A3,3 0 0,1 3,0Z" style="opacity: 1; stroke-width: 0px; fill: rgb(203, 71, 121); fill-opacity: 1;"/><path class="point" transform="translate(499,322.53)" d="M3,0A3,3 0 1,1 0,-3A3,3 0 0,1 3,0Z" style="opacity: 1; stroke-width: 0px; fill: rgb(203, 71, 121); fill-opacity: 1;"/><path class="point" transform="translate(512.55,24.25)" d="M3,0A3,3 0 1,1 0,-3A3,3 0 0,1 3,0Z" style="opacity: 1; stroke-width: 0px; fill: rgb(203, 71, 121); fill-opacity: 1;"/><path class="point" transform="translate(497.37,38.81)" d="M3,0A3,3 0 1,1 0,-3A3,3 0 0,1 3,0Z" style="opacity: 1; stroke-width: 0px; fill: rgb(203, 71, 121); fill-opacity: 1;"/><path class="point" transform="translate(304.08,328.72)" d="M3,0A3,3 0 1,1 0,-3A3,3 0 0,1 3,0Z" style="opacity: 1; stroke-width: 0px; fill: rgb(203, 71, 121); fill-opacity: 1;"/><path class="point" transform="translate(283.94,316.35)" d="M3,0A3,3 0 1,1 0,-3A3,3 0 0,1 3,0Z" style="opacity: 1; stroke-width: 0px; fill: rgb(203, 71, 121); fill-opacity: 1;"/><path class="point" transform="translate(649.25,174.48)" d="M3,0A3,3 0 1,1 0,-3A3,3 0 0,1 3,0Z" style="opacity: 1; stroke-width: 0px; fill: rgb(203, 71, 121); fill-opacity: 1;"/><path class="point" transform="translate(633.25,159.46)" d="M3,0A3,3 0 1,1 0,-3A3,3 0 0,1 3,0Z" style="opacity: 1; stroke-width: 0px; fill: rgb(203, 71, 121); fill-opacity: 1;"/><path class="point" transform="translate(46.34,128.3)" d="M3,0A3,3 0 1,1 0,-3A3,3 0 0,1 3,0Z" style="opacity: 1; stroke-width: 0px; fill: rgb(203, 71, 121); fill-opacity: 1;"/><path class="point" transform="translate(40.75,109.27)" d="M3,0A3,3 0 1,1 0,-3A3,3 0 0,1 3,0Z" style="opacity: 1; stroke-width: 0px; fill: rgb(203, 71, 121); fill-opacity: 1;"/><path class="point" transform="translate(117.39,247.41)" d="M3,0A3,3 0 1,1 0,-3A3,3 0 0,1 3,0Z" style="opacity: 1; stroke-width: 0px; fill: rgb(203, 71, 121); fill-opacity: 1;"/><path class="point" transform="translate(83.28,259.19)" d="M3,0A3,3 0 1,1 0,-3A3,3 0 0,1 3,0Z" style="opacity: 1; stroke-width: 0px; fill: rgb(203, 71, 121); fill-opacity: 1;"/></g><g class="text"/></g></g></g><g class="overplot"/><path class="xlines-above crisp" d="M0,0" style="fill: none;"/><path class="ylines-above crisp" d="M0,0" style="fill: none;"/><g class="overlines-above"/><g class="xaxislayer-above"/><g class="yaxislayer-above"/><g class="overaxes-above"/></g></g><g class="polarlayer"/><g class="ternarylayer"/><g class="geolayer"/><g class="funnelarealayer"/><g class="pielayer"/><g class="treemaplayer"/><g class="sunburstlayer"/><g class="glimages"/><defs id="topdefs-9c3675"><g class="clips"/></defs><g class="layer-above"><g class="imagelayer"/><g class="shapelayer"/></g><g class="infolayer"><g class="g-gtitle"><text class="gtitle" x="35" y="60" text-anchor="start" dy="0em" style="font-family: 'Open Sans', verdana, arial, sans-serif; font-size: 16px; fill: rgb(42, 63, 95); opacity: 1; font-weight: normal; white-space: pre;">Example Graph</text></g><g class="g-xtitle"/><g class="g-ytitle"/></g></svg>