<svg class="main-svg" xmlns="http://www.w3.org/2000/svg" xmlns:xlink="http://www.w3.org/1999/xlink" width="400" height="400" viewBox="0 0 400 400"><rect x="0" y="0" width="400" height="400" style="fill: rgb(0, 0, 0); fill-opacity: 0;"/><defs id="defs-30caac"><g class="clips"><clipPath id="clip30caacxyplot" class="plotclip"><rect width="240" height="220"/></clipPath><clipPath class="axesclip" id="clip30caacx"><rect x="80" y="0" width="240" height="400"/></clipPath><clipPath class="axesclip" id="clip30caacy"><rect x="0" y="100" width="400" height="220"/></clipPath><clipPath class="axesclip" id="clip30caacxy"><rect x="80" y="100" width="240" height="220"/></clipPath></g><g class="gradients"/></defs><g class="bglayer"><rect class="bg" x="80" y="100" width="240" height="220" style="fill: rgb(0, 0, 0); fill-opacity: 0; stroke-width: 0;"/></g><g class="layer-below"><g class="imagelayer"/><g class="shapelayer"/></g><g class="cartesianlayer"><g class="subplot xy"><g class="layer-subplot"><g class="shapelayer"/><g class="imagelayer"/></g><g class="gridlayer"><g class="x"/><g class="y"/></g><g class="zerolinelayer"/><path class="xlines-below"/><path class="ylines-below"/><g class="overlines-below"/><g class="xaxislayer-below"/><g class="yaxislayer-below"/><g class="overaxes-below"/><g class="plot" transform="translate(80, 100)" clip-path="url('#clip30caacxyplot')"><g class="violinlayer mlayer"><g class="trace violins" style="opacity: 1;"><path class="violin" d="M16.55,209L16.55,208.61Q18.15,208.39 18.95,208.22C19.75,208.05 20.56,207.84 21.35,207.57C22.16,207.29 22.97,206.97 23.76,206.58C24.57,206.18 25.37,205.72 26.16,205.21C26.97,204.68 27.77,204.09 28.56,203.46C29.37,202.81 30.17,202.1 30.96,201.37C31.77,200.61 32.58,199.81 33.37,198.98C34.18,198.13 34.98,197.25 35.77,196.33C36.58,195.39 37.38,194.41 38.17,193.4C38.99,192.35 39.79,191.28 40.58,190.15C41.4,188.98 42.19,187.76 42.98,186.51C43.8,185.21 44.59,183.85 45.38,182.47C46.19,181.04 46.99,179.56 47.78,178.07C48.59,176.54 49.4,174.99 50.19,173.41C51,171.8 51.8,170.18 52.59,168.52C53.4,166.82 54.21,165.11 54.99,163.32C55.81,161.45 56.62,159.55 57.4,157.55C58.23,155.42 59.03,153.2 59.8,150.88C60.63,148.4 61.42,145.79 62.2,143.12C63.02,140.29 63.81,137.31 64.6,134.33C65.41,131.25 66.21,128.05 67.01,124.92C67.81,121.79 68.59,118.6 69.41,115.54C70.2,112.6 70.97,109.64 71.81,106.91C72.58,104.4 73.36,101.92 74.22,99.74C74.97,97.84 75.73,95.98 76.62,94.5C77.36,93.28 78.13,92.12 79.02,91.39C79.76,90.79 80.6,90.35 81.42,90.2C82.2,90.06 83.04,90.23 83.83,90.44C84.65,90.66 85.44,91.1 86.23,91.52C87.04,91.95 87.84,92.46 88.63,92.99C89.44,93.54 90.26,94.1 91.04,94.76C91.86,95.45 92.67,96.2 93.44,97.07C94.28,98.03 95.08,99.11 95.84,100.31C96.69,101.66 97.48,103.2 98.24,104.83C99.09,106.65 99.88,108.66 100.65,110.74C101.49,113 102.27,115.44 103.05,117.9C103.87,120.5 104.66,123.23 105.45,125.95C106.26,128.73 107.06,131.59 107.86,134.4C108.66,137.19 109.45,140.01 110.26,142.74C111.05,145.38 111.84,148.01 112.66,150.52C113.44,152.89 114.23,155.22 115.06,157.41C115.83,159.44 116.63,161.4 117.47,163.21C118.24,164.86 119.02,166.43 119.87,167.84C120.63,169.12 121.43,170.3 122.27,171.35C123.04,172.3 123.85,173.13 124.68,173.9C125.46,174.62 126.27,175.21 127.08,175.83C127.87,176.44 128.69,176.97 129.48,177.6C130.29,178.26 131.1,178.93 131.88,179.71C132.71,180.54 133.51,181.48 134.29,182.47C135.12,183.52 135.9,184.7 136.69,185.87C137.5,187.08 138.29,188.37 139.09,189.61C139.89,190.84 140.68,192.1 141.5,193.26C142.28,194.36 143.07,195.45 143.9,196.39C144.67,197.26 145.46,198.08 146.3,198.75C147.07,199.37 147.88,199.9 148.71,200.3C149.49,200.68 150.3,200.93 151.11,201.12C151.9,201.3 152.71,201.37 153.51,201.42C154.31,201.47 155.11,201.44 155.91,201.45C156.71,201.46 157.52,201.44 158.32,201.48C159.12,201.52 159.92,201.58 160.72,201.71C161.52,201.84 162.32,202.02 163.12,202.24C163.93,202.46 164.73,202.74 165.53,203.02C166.33,203.3 167.13,203.62 167.93,203.92C168.73,204.21 169.53,204.52 170.33,204.79C171.13,205.06 171.93,205.31 172.73,205.54C173.53,205.76 174.34,205.96 175.14,206.14C175.94,206.32 176.74,206.48 177.54,206.64C178.34,206.8 179.14,206.94 179.94,207.08C180.74,207.23 181.55,207.37 182.35,207.51C183.15,207.65 183.95,207.78 184.75,207.9C185.55,208.02 186.35,208.14 187.15,208.23C187.95,208.32 188.75,208.4 189.55,208.45C190.35,208.5 191.16,208.54 191.96,208.55C192.76,208.56 193.56,208.54 194.36,208.5C195.16,208.46 195.96,208.4 196.76,208.32C197.56,208.24 198.37,208.14 199.17,208.02C199.97,207.9 200.77,207.75 201.57,207.61C202.37,207.46 203.17,207.3 203.97,207.15C204.77,207 205.57,206.83 206.37,206.69C207.17,206.55 207.98,206.41 208.78,206.32C209.58,206.23 210.38,206.15 211.18,206.13C211.98,206.11 212.78,206.12 213.58,206.17C214.38,206.22 215.19,206.33 215.99,206.45C216.79,206.58 217.59,206.75 218.39,206.92C219.19,207.09 219.99,207.28 220.79,207.46C221.59,207.63 222.39,207.82 223.19,207.97C223.99,208.12 224.8,208.26 225.6,208.38Q226.4,208.49 228,208.66L228,209" style="vector-effect: non-scaling-stroke; stroke-width: 2px; stroke: rgb(99, 110, 250); stroke-opacity: 1; fill: rgb(99, 110, 250); fill-opacity: 0.5;"/></g><g class="trace violins" style="opacity: 1;"><path class="violin" d="M12,129.8L12,123.71Q16.93,120.47 19.24,118.34C21.79,115.99 24.19,113.15 26.49,110.06C29.05,106.63 31.41,102.67 33.73,98.57C36.25,94.1 38.61,89.16 40.97,84.2C43.45,78.98 45.81,73.41 48.22,67.97C50.64,62.49 53,56.81 55.46,51.45C57.83,46.28 60.18,41.05 62.7,36.33C65.02,31.98 67.37,27.68 69.95,24.08C72.23,20.9 74.58,17.84 77.19,15.65C79.46,13.75 81.92,12.11 84.43,11.35C86.76,10.65 89.31,10.58 91.68,11C94.14,11.43 96.6,12.66 98.92,14.04C101.44,15.54 103.84,17.63 106.17,19.81C108.68,22.16 111.07,24.91 113.41,27.77C115.9,30.81 118.3,34.14 120.65,37.59C123.13,41.23 125.53,45.13 127.9,49.11C130.37,53.27 132.75,57.66 135.14,62.05C137.58,66.55 139.96,71.23 142.38,75.8C144.79,80.34 147.17,84.99 149.63,89.38C152,93.6 154.37,97.82 156.87,101.66C159.2,105.24 161.58,108.71 164.11,111.72C166.43,114.48 168.83,117.03 171.36,119.14Q173.68,121.08 178.6,124.06L178.6,129.8" style="vector-effect: non-scaling-stroke; stroke-width: 2px; stroke: rgb(239, 85, 59); stroke-opacity: 1; fill: rgb(239, 85, 59); fill-opacity: 0.5;"/></g></g></g><g class="overplot"/><path class="xlines-above crisp" d="M0,0" style="fill: none;"/><path class="ylines-above crisp" d="M0,0" style="fill: none;"/><g class="overlines-above"/><g class="xaxislayer-above"><g class="xtick"><text text-anchor="middle" x="0" y="333" transform="translate(102.23,0)" style="font-family: 'Open Sans', verdana, arial, sans-serif; font-size: 12px; fill: rgb(42, 63, 95); fill-opacity: 1; white-space: pre;">0</text></g><g class="xtick"><text text-anchor="middle" x="0" y="333" transform="translate(167.62,0)" style="font-family: 'Open Sans', verdana, arial, sans-serif; font-size: 12px; fill: rgb(42, 63, 95); fill-opacity: 1; white-space: pre;">200</text></g><g class="xtick"><text text-anchor="middle" x="0" y="333" transform="translate(233.01,0)" style="font-family: 'Open Sans', verdana, arial, sans-serif; font-size: 12px; fill: rgb(42, 63, 95); fill-opacity: 1; white-space: pre;">400</text></g><g class="xtick"><text text-anchor="middle" x="0" y="333" transform="translate(298.4,0)" style="font-family: 'Open Sans', verdana, arial, sans-serif; font-size: 12px; fill: rgb(42, 63, 95); fill-opacity: 1; white-space: pre;">600</text></g></g><g class="yaxislayer-above"><g class="ytick"><text text-anchor="end" x="79" y="4.199999999999999" transform="translate(0,309)" style="font-family: 'Open Sans', verdana, arial, sans-serif; font-size: 12px; fill: rgb(42, 63, 95); fill-opacity: 1; white-space: pre;">0</text></g><g class="ytick"><text text-anchor="end" x="79" y="4.199999999999999" transform="translate(0,229.8)" style="font-family: 'Open Sans', verdana, arial, sans-serif; font-size: 12px; fill: rgb(42, 63, 95); fill-opacity: 1; white-space: pre;">1</text></g><g class="ytick"><text text-anchor="end" x="79" y="4.199999999999999" transform="translate(0,150.6)" style="font-family: 'Open Sans', verdana, arial, sans-serif; font-size: 12px; fill: rgb(42, 63, 95); fill-opacity: 1; white-space: pre;">2</text></g></g><g class="overaxes-above"/></g></g><g class="polarlayer"/><g class="ternarylayer"/><g class="geolayer"/><g class="funnelarealayer"/><g class="pielayer"/><g class="treemaplayer"/><g class="sunburstlayer"/><g class="glimages"/><defs id="topdefs-30caac"><g class="clips"/></defs><g class="layer-above"><g class="imagelayer"/><g class="shapelayer"/></g><g class="infolayer"><g class="g-gtitle"/><g class="g-xtitle"><text class="xtitle" x="200" y="361.3" text-anchor="middle" style="font-family: 'Open Sans', verdana, arial, sans-serif; font-size: 14px; fill: rgb(42, 63, 95); opacity: 1; font-weight: normal; white-space: pre;">Cirrhosis</text></g><g class="g-ytitle"><text class="ytitle" transform="rotate(-90,47.325,210)" x="47.325" y="210" text-anchor="middle" style="font-family: 'Open Sans', verdana, arial, sans-serif; font-size: 14px; fill: rgb(42, 63, 95); opacity: 1; font-weight: normal; white-space: pre;">D1 Platelets Max</text></g></g></svg>