<svg class="main-svg" xmlns="http://www.w3.org/2000/svg" xmlns:xlink="http://www.w3.org/1999/xlink" width="400" height="400" viewBox="0 0 400 400"><rect x="0" y="0" width="400" height="400" style="fill: rgb(0, 0, 0); fill-opacity: 0;"/><defs id="defs-11c8a7"><g class="clips"><clipPath id="clip11c8a7xyplot" class="plotclip"><rect width="240" height="220"/></clipPath><clipPath class="axesclip" id="clip11c8a7x"><rect x="80" y="0" width="240" height="400"/></clipPath><clipPath class="axesclip" id="clip11c8a7y"><rect x="0" y="100" width="400" height="220"/></clipPath><clipPath class="axesclip" id="clip11c8a7xy"><rect x="80" y="100" width="240" height="220"/></clipPath></g><g class="gradients"/></defs><g class="bglayer"><rect class="bg" x="80" y="100" width="240" height="220" style="fill: rgb(0, 0, 0); fill-opacity: 0; stroke-width: 0;"/></g><g class="layer-below"><g class="imagelayer"/><g class="shapelayer"/></g><g class="cartesianlayer"><g class="subplot xy"><g class="layer-subplot"><g class="shapelayer"/><g class="imagelayer"/></g><g class="gridlayer"><g class="x"/><g class="y"/></g><g class="zerolinelayer"/><path class="xlines-below"/><path class="ylines-below"/><g class="overlines-below"/><g class="xaxislayer-below"/><g class="yaxislayer-below"/><g class="overaxes-below"/><g class="plot" transform="translate(80, 100)" clip-path="url('#clip11c8a7xyplot')"><g class="violinlayer mlayer"><g class="trace violins" style="opacity: 1;"><path class="violin" d="M22.88,209L22.88,208.09Q24.38,207.58 25.11,207.21C25.87,206.82 26.62,206.34 27.34,205.78C28.11,205.17 28.86,204.45 29.57,203.65C30.35,202.78 31.08,201.79 31.8,200.74C32.58,199.6 33.31,198.35 34.03,197.05C34.8,195.66 35.53,194.16 36.26,192.64C37.02,191.04 37.76,189.36 38.49,187.65C39.25,185.88 39.98,184.05 40.71,182.2C41.46,180.29 42.21,178.35 42.94,176.36C43.7,174.31 44.44,172.22 45.17,170.08C45.93,167.85 46.67,165.58 47.4,163.24C48.16,160.79 48.9,158.28 49.63,155.7C50.39,153.01 51.13,150.24 51.86,147.44C52.61,144.56 53.35,141.59 54.09,138.65C54.84,135.68 55.57,132.66 56.32,129.7C57.06,126.79 57.79,123.86 58.55,121.03C59.28,118.29 60.02,115.59 60.78,112.98C61.51,110.49 62.24,108.05 63.01,105.72C63.73,103.54 64.46,101.39 65.24,99.42C65.95,97.63 66.65,95.85 67.47,94.38C68.16,93.13 68.84,91.8 69.7,91.1C70.37,90.56 71.22,90.09 71.93,90.2C72.71,90.32 73.49,91.19 74.16,92.01C75.03,93.07 75.69,94.72 76.39,96.28C77.19,98.07 77.89,100.19 78.62,102.21C79.38,104.31 80.1,106.54 80.85,108.66C81.58,110.73 82.32,112.81 83.08,114.78C83.81,116.66 84.55,118.45 85.31,120.23C86.04,121.95 86.8,123.59 87.54,125.29C88.29,127 89.04,128.69 89.77,130.45C90.53,132.28 91.27,134.14 92,136.06C92.76,138.05 93.48,140.11 94.22,142.17C94.97,144.26 95.7,146.4 96.45,148.51C97.19,150.6 97.93,152.72 98.68,154.77C99.41,156.76 100.15,158.74 100.91,160.65C101.64,162.48 102.38,164.27 103.14,166C103.87,167.65 104.61,169.24 105.37,170.78C106.1,172.24 106.84,173.66 107.6,175.01C108.33,176.3 109.07,177.55 109.83,178.73C110.56,179.86 111.3,180.93 112.06,181.96C112.79,182.94 113.53,183.87 114.29,184.76C115.02,185.61 115.76,186.41 116.52,187.17C117.25,187.91 118,188.6 118.75,189.27C119.48,189.92 120.23,190.53 120.98,191.12C121.72,191.7 122.46,192.25 123.21,192.77C123.95,193.28 124.69,193.78 125.44,194.24C126.18,194.69 126.92,195.13 127.67,195.52C128.41,195.91 129.15,196.26 129.9,196.58C130.64,196.89 131.38,197.16 132.13,197.4C132.87,197.63 133.61,197.83 134.36,198C135.1,198.17 135.84,198.29 136.59,198.4C137.33,198.51 138.08,198.58 138.82,198.64C139.56,198.69 140.31,198.72 141.05,198.73C141.79,198.74 142.54,198.72 143.28,198.7C144.02,198.68 144.77,198.62 145.51,198.6C146.25,198.58 146.99,198.54 147.73,198.56C148.47,198.58 149.22,198.61 149.96,198.71C150.71,198.81 151.45,198.97 152.19,199.18C152.94,199.39 153.68,199.68 154.42,199.99C155.17,200.3 155.91,200.68 156.65,201.05C157.4,201.42 158.14,201.82 158.88,202.19C159.62,202.56 160.36,202.94 161.11,203.29C161.85,203.64 162.59,203.97 163.34,204.29C164.08,204.61 164.82,204.9 165.57,205.19C166.31,205.48 167.06,205.75 167.8,206.02C168.54,206.29 169.28,206.55 170.03,206.79C170.77,207.03 171.51,207.26 172.26,207.46C173,207.66 173.74,207.85 174.49,208.01C175.23,208.17 175.97,208.31 176.72,208.42C177.46,208.53 178.21,208.62 178.95,208.69C179.69,208.76 180.44,208.81 181.18,208.85C181.92,208.89 182.67,208.91 183.41,208.93C184.15,208.95 184.9,208.96 185.64,208.97C186.38,208.98 187.13,208.99 187.87,208.99C188.61,208.99 189.36,208.99 190.1,208.99C190.84,208.99 191.59,208.99 192.33,208.99C193.07,208.99 193.82,208.97 194.56,208.96C195.3,208.95 196.05,208.94 196.79,208.91C197.53,208.88 198.28,208.85 199.02,208.79C199.76,208.73 200.5,208.66 201.24,208.56C201.98,208.46 202.73,208.35 203.47,208.2C204.22,208.05 204.96,207.87 205.7,207.68C206.45,207.49 207.19,207.26 207.93,207.05C208.67,206.84 209.41,206.61 210.16,206.43C210.9,206.25 211.64,206.07 212.39,205.96C213.13,205.85 213.88,205.79 214.62,205.79C215.36,205.79 216.11,205.86 216.85,205.97C217.6,206.08 218.34,206.25 219.08,206.43C219.83,206.61 220.57,206.85 221.31,207.06C222.05,207.27 222.79,207.49 223.54,207.68C224.28,207.87 225.02,208.05 225.77,208.2Q226.51,208.35 228,208.57L228,209" style="vector-effect: non-scaling-stroke; stroke-width: 2px; stroke: rgb(99, 110, 250); stroke-opacity: 1; fill: rgb(99, 110, 250); fill-opacity: 0.5;"/></g><g class="trace violins" style="opacity: 1;"><path class="violin" d="M12,129.8L12,127.53Q15.11,126.2 16.58,125.24C18.17,124.21 19.71,122.92 21.17,121.45C22.78,119.82 24.29,117.88 25.75,115.8C27.36,113.5 28.86,110.87 30.33,108.16C31.93,105.22 33.43,102 34.92,98.74C36.49,95.3 38,91.67 39.5,88.02C41.05,84.26 42.56,80.37 44.08,76.49C45.62,72.54 47.15,68.54 48.67,64.53C50.21,60.48 51.72,56.39 53.25,52.32C54.78,48.24 56.28,44.09 57.83,40.07C59.34,36.13 60.83,32.12 62.42,28.43C63.9,25 65.33,21.48 67,18.64C68.42,16.23 69.81,13.58 71.58,12.34C72.96,11.37 74.73,10.67 76.17,11C77.81,11.38 79.37,13.36 80.75,15.16C82.51,17.46 83.89,20.85 85.34,24.07C86.97,27.69 88.41,31.88 89.92,35.86C91.46,39.93 92.93,44.26 94.5,48.24C95.99,52.02 97.47,55.82 99.09,59.19C100.55,62.22 102.03,65.14 103.67,67.62C105.11,69.8 106.63,71.74 108.25,73.4C109.71,74.89 111.27,76.07 112.84,77.22C114.33,78.31 115.9,79.16 117.42,80.15C118.95,81.15 120.5,82.07 122,83.18C123.56,84.33 125.1,85.58 126.59,86.95C128.16,88.39 129.67,89.99 131.17,91.64C132.73,93.35 134.23,95.21 135.75,97.04C137.29,98.9 138.81,100.85 140.34,102.73C141.86,104.6 143.37,106.49 144.92,108.28C146.43,110.03 147.94,111.74 149.5,113.35C151,114.9 152.53,116.39 154.09,117.76C155.59,119.07 157.11,120.3 158.67,121.41C160.17,122.47 161.7,123.44 163.25,124.29C164.75,125.11 166.29,125.82 167.84,126.42C169.35,127.01 170.88,127.49 172.42,127.89Q173.94,128.28 177,128.8L177,129.8" style="vector-effect: non-scaling-stroke; stroke-width: 2px; stroke: rgb(239, 85, 59); stroke-opacity: 1; fill: rgb(239, 85, 59); fill-opacity: 0.5;"/></g></g></g><g class="overplot"/><path class="xlines-above crisp" d="M0,0" style="fill: none;"/><path class="ylines-above crisp" d="M0,0" style="fill: none;"/><g class="overlines-above"/><g class="xaxislayer-above"><g class="xtick"><text text-anchor="middle" x="0" y="333" transform="translate(152.66,0)" style="font-family: 'Open Sans', verdana, arial, sans-serif; font-size: 12px; fill: rgb(42, 63, 95); fill-opacity: 1; white-space: pre;">20</text></g><g class="xtick"><text text-anchor="middle" x="0" y="333" transform="translate(225.46,0)" style="font-family: 'Open Sans', verdana, arial, sans-serif; font-size: 12px; fill: rgb(42, 63, 95); fill-opacity: 1; white-space: pre;">40</text></g><g class="xtick"><text text-anchor="middle" x="0" y="333" transform="translate(298.25,0)" style="font-family: 'Open Sans', verdana, arial, sans-serif; font-size: 12px; fill: rgb(42, 63, 95); fill-opacity: 1; white-space: pre;">60</text></g></g><g class="yaxislayer-above"><g class="ytick"><text text-anchor="end" x="79" y="4.199999999999999" transform="translate(0,309)" style="font-family: 'Open Sans', verdana, arial, sans-serif; font-size: 12px; fill: rgb(42, 63, 95); fill-opacity: 1; white-space: pre;">0</text></g><g class="ytick"><text text-anchor="end" x="79" y="4.199999999999999" transform="translate(0,229.8)" style="font-family: 'Open Sans', verdana, arial, sans-serif; font-size: 12px; fill: rgb(42, 63, 95); fill-opacity: 1; white-space: pre;">1</text></g><g class="ytick"><text text-anchor="end" x="79" y="4.199999999999999" transform="translate(0,150.6)" style="font-family: 'Open Sans', verdana, arial, sans-serif; font-size: 12px; fill: rgb(42, 63, 95); fill-opacity: 1; white-space: pre;">2</text></g></g><g class="overaxes-above"/></g></g><g class="polarlayer"/><g class="ternarylayer"/><g class="geolayer"/><g class="funnelarealayer"/><g class="pielayer"/><g class="treemaplayer"/><g class="sunburstlayer"/><g class="glimages"/><defs id="topdefs-11c8a7"><g class="clips"/></defs><g class="layer-above"><g class="imagelayer"/><g class="shapelayer"/></g><g class="infolayer"><g class="g-gtitle"/><g class="g-xtitle"><text class="xtitle" x="200" y="361.3" text-anchor="middle" style="font-family: 'Open Sans', verdana, arial, sans-serif; font-size: 14px; fill: rgb(42, 63, 95); opacity: 1; font-weight: normal; white-space: pre;">Hospital Death</text></g><g class="g-ytitle"><text class="ytitle" transform="rotate(-90,47.325,210)" x="47.325" y="210" text-anchor="middle" style="font-family: 'Open Sans', verdana, arial, sans-serif; font-size: 14px; fill: rgb(42, 63, 95); opacity: 1; font-weight: normal; white-space: pre;">H1 Resprate Max</text></g></g></svg>