<svg class="main-svg" xmlns="http://www.w3.org/2000/svg" xmlns:xlink="http://www.w3.org/1999/xlink" width="400" height="400" viewBox="0 0 400 400"><rect x="0" y="0" width="400" height="400" style="fill: rgb(0, 0, 0); fill-opacity: 0;"/><defs id="defs-0cbbf8"><g class="clips"><clipPath id="clip0cbbf8xyplot" class="plotclip"><rect width="238" height="220"/></clipPath><clipPath class="axesclip" id="clip0cbbf8x"><rect x="82" y="0" width="238" height="400"/></clipPath><clipPath class="axesclip" id="clip0cbbf8y"><rect x="0" y="100" width="400" height="220"/></clipPath><clipPath class="axesclip" id="clip0cbbf8xy"><rect x="82" y="100" width="238" height="220"/></clipPath></g><g class="gradients"/></defs><g class="bglayer"><rect class="bg" x="82" y="100" width="238" height="220" style="fill: rgb(0, 0, 0); fill-opacity: 0; stroke-width: 0;"/></g><g class="layer-below"><g class="imagelayer"/><g class="shapelayer"/></g><g class="cartesianlayer"><g class="subplot xy"><g class="layer-subplot"><g class="shapelayer"/><g class="imagelayer"/></g><g class="gridlayer"><g class="x"/><g class="y"/></g><g class="zerolinelayer"/><path class="xlines-below"/><path class="ylines-below"/><g class="overlines-below"/><g class="xaxislayer-below"/><g class="yaxislayer-below"/><g class="overaxes-below"/><g class="plot" transform="translate(82, 100)" clip-path="url('#clip0cbbf8xyplot')"><g class="violinlayer mlayer"><g class="trace violins" style="opacity: 1;"><path class="violin" d="M40.17,209L40.17,205.76Q42.33,203.85 43.31,202.61C44.45,201.17 45.47,199.42 46.46,197.54C47.59,195.38 48.6,192.89 49.6,190.31C50.71,187.44 51.73,184.27 52.75,181.09C53.83,177.72 54.85,174.12 55.89,170.61C56.94,167.07 57.96,163.41 59.03,159.92C60.06,156.56 61.09,153.19 62.18,150.05C63.19,147.14 64.21,144.3 65.32,141.72C66.32,139.39 67.35,137.17 68.47,135.2C69.46,133.46 70.49,131.84 71.61,130.47C72.6,129.25 73.66,128.18 74.76,127.3C75.76,126.5 76.82,125.85 77.9,125.35C78.92,124.87 79.99,124.52 81.05,124.32C82.08,124.12 83.16,124.01 84.19,124.14C85.25,124.28 86.34,124.58 87.33,125.16C88.45,125.81 89.51,126.85 90.48,128.04C91.65,129.48 92.64,131.39 93.62,133.37C94.76,135.67 95.76,138.39 96.77,141.11C97.86,144.06 98.87,147.3 99.91,150.43C100.97,153.6 101.98,156.93 103.06,160.03C104.08,162.99 105.1,165.95 106.2,168.64C107.2,171.08 108.22,173.44 109.35,175.5C110.34,177.3 111.36,178.98 112.49,180.37C113.47,181.58 114.52,182.63 115.63,183.46C116.63,184.21 117.71,184.76 118.78,185.2C119.8,185.62 120.87,185.85 121.92,186.1C122.96,186.35 124.03,186.46 125.07,186.71C126.12,186.96 127.18,187.19 128.21,187.58C129.28,187.99 130.34,188.49 131.36,189.12C132.44,189.79 133.48,190.62 134.5,191.5C135.58,192.43 136.62,193.51 137.65,194.58C138.71,195.68 139.74,196.88 140.79,198C141.83,199.11 142.87,200.26 143.94,201.29C144.97,202.28 146,203.24 147.08,204.06C148.1,204.84 149.15,205.54 150.22,206.12Q151.25,206.67 153.37,207.48L153.37,209" style="vector-effect: non-scaling-stroke; stroke-width: 2px; stroke: rgb(99, 110, 250); stroke-opacity: 1; fill: rgb(99, 110, 250); fill-opacity: 0.5;"/></g><g class="trace violins" style="opacity: 1;"><path class="violin" d="M11.9,152.43L11.9,152.15Q13.74,152 14.65,151.89C15.57,151.77 16.48,151.64 17.39,151.46C18.31,151.28 19.23,151.08 20.14,150.82C21.06,150.56 21.97,150.26 22.88,149.91C23.8,149.55 24.73,149.15 25.63,148.69C26.56,148.21 27.48,147.67 28.38,147.08C29.31,146.47 30.22,145.79 31.12,145.07C32.05,144.32 32.96,143.49 33.87,142.65C34.8,141.79 35.71,140.87 36.62,139.95C37.54,139.02 38.45,138.06 39.36,137.11C40.28,136.16 41.19,135.21 42.11,134.27C43.02,133.33 43.94,132.42 44.85,131.47C45.77,130.51 46.7,129.57 47.6,128.56C48.53,127.52 49.46,126.45 50.35,125.3C51.29,124.09 52.2,122.8 53.09,121.44C54.03,119.99 54.95,118.45 55.84,116.85C56.78,115.17 57.68,113.39 58.58,111.59C59.51,109.73 60.42,107.79 61.33,105.86C62.25,103.91 63.16,101.92 64.08,99.97C64.99,98.04 65.89,96.09 66.82,94.21C67.72,92.38 68.63,90.56 69.57,88.83C70.47,87.17 71.38,85.55 72.32,84.01C73.21,82.55 74.12,81.15 75.06,79.83C75.95,78.58 76.87,77.39 77.81,76.28C78.7,75.23 79.61,74.24 80.55,73.33C81.44,72.47 82.36,71.66 83.3,70.94C84.19,70.26 85.11,69.62 86.05,69.12C86.94,68.64 87.86,68.23 88.79,67.97C89.69,67.72 90.62,67.56 91.54,67.57C92.45,67.58 93.39,67.73 94.28,68.02C95.22,68.33 96.15,68.82 97.03,69.4C97.99,70.03 98.9,70.84 99.78,71.73C100.74,72.7 101.64,73.84 102.52,75.03C103.47,76.32 104.38,77.75 105.27,79.22C106.22,80.78 107.12,82.47 108.02,84.17C108.95,85.94 109.86,87.8 110.76,89.67C111.69,91.59 112.6,93.56 113.51,95.53C114.43,97.52 115.33,99.55 116.25,101.55C117.16,103.55 118.08,105.56 119,107.53C119.91,109.47 120.82,111.4 121.75,113.27C122.65,115.08 123.55,116.87 124.49,118.58C125.39,120.21 126.3,121.8 127.24,123.3C128.13,124.72 129.04,126.09 129.98,127.37C130.87,128.57 131.79,129.71 132.73,130.77C133.62,131.78 134.54,132.71 135.48,133.59C136.38,134.43 137.29,135.21 138.22,135.93C139.12,136.63 140.04,137.27 140.97,137.86C141.87,138.43 142.79,138.95 143.72,139.42C144.62,139.87 145.54,140.28 146.46,140.63C147.37,140.97 148.29,141.25 149.21,141.48C150.12,141.71 151.03,141.87 151.95,142C152.86,142.13 153.78,142.19 154.7,142.26C155.62,142.32 156.53,142.35 157.45,142.39C158.36,142.43 159.28,142.45 160.19,142.51C161.11,142.57 162.03,142.64 162.94,142.74C163.86,142.84 164.77,142.97 165.68,143.12C166.6,143.27 167.52,143.44 168.43,143.64C169.35,143.84 170.27,144.07 171.18,144.3C172.1,144.54 173.01,144.79 173.92,145.05C174.84,145.31 175.75,145.59 176.67,145.85C177.59,146.11 178.5,146.38 179.42,146.62C180.33,146.86 181.24,147.1 182.16,147.3C183.07,147.49 183.99,147.66 184.91,147.79C185.82,147.92 186.73,148 187.65,148.07C188.56,148.13 189.48,148.16 190.4,148.18C191.32,148.2 192.23,148.19 193.15,148.21C194.06,148.23 194.98,148.24 195.89,148.29C196.81,148.34 197.73,148.41 198.64,148.51C199.56,148.61 200.47,148.76 201.38,148.91C202.3,149.07 203.21,149.25 204.13,149.44C205.05,149.63 205.96,149.84 206.88,150.04C207.79,150.24 208.7,150.44 209.62,150.62C210.53,150.8 211.45,150.98 212.37,151.14C213.29,151.29 214.2,151.43 215.12,151.55C216.03,151.67 216.95,151.78 217.86,151.87C218.78,151.96 219.69,152.03 220.61,152.09C221.52,152.15 222.44,152.2 223.35,152.24Q224.27,152.28 226.1,152.33L226.1,152.43" style="vector-effect: non-scaling-stroke; stroke-width: 2px; stroke: rgb(239, 85, 59); stroke-opacity: 1; fill: rgb(239, 85, 59); fill-opacity: 0.5;"/></g><g class="trace violins" style="opacity: 1;"><path class="violin" d="M111.33,95.86L111.33,11L111.33,95.86" style="vector-effect: non-scaling-stroke; stroke-width: 2px; stroke: rgb(0, 204, 150); stroke-opacity: 1; fill: rgb(0, 204, 150); fill-opacity: 0.5;"/></g></g></g><g class="overplot"/><path class="xlines-above crisp" d="M0,0" style="fill: none;"/><path class="ylines-above crisp" d="M0,0" style="fill: none;"/><g class="overlines-above"/><g class="xaxislayer-above"><g class="xtick"><text text-anchor="middle" x="0" y="333" transform="translate(116.67,0)" style="font-family: 'Open Sans', verdana, arial, sans-serif; font-size: 12px; fill: rgb(42, 63, 95); fill-opacity: 1; white-space: pre;">50</text></g><g class="xtick"><text text-anchor="middle" x="0" y="333" transform="translate(193.32999999999998,0)" style="font-family: 'Open Sans', verdana, arial, sans-serif; font-size: 12px; fill: rgb(42, 63, 95); fill-opacity: 1; white-space: pre;">100</text></g><g class="xtick"><text text-anchor="middle" x="0" y="333" transform="translate(270,0)" style="font-family: 'Open Sans', verdana, arial, sans-serif; font-size: 12px; fill: rgb(42, 63, 95); fill-opacity: 1; white-space: pre;">150</text></g></g><g class="yaxislayer-above"><g class="ytick"><text text-anchor="end" x="81" y="4.199999999999999" transform="translate(0,309)" style="font-family: 'Open Sans', verdana, arial, sans-serif; font-size: 12px; fill: rgb(42, 63, 95); fill-opacity: 1; white-space: pre;">transfer</text></g><g class="ytick"><text text-anchor="end" x="81" y="4.199999999999999" transform="translate(0,252.43)" style="font-family: 'Open Sans', verdana, arial, sans-serif; font-size: 12px; fill: rgb(42, 63, 95); fill-opacity: 1; white-space: pre;">admit</text></g><g class="ytick"><text text-anchor="end" x="81" y="4.199999999999999" transform="translate(0,195.86)" style="font-family: 'Open Sans', verdana, arial, sans-serif; font-size: 12px; fill: rgb(42, 63, 95); fill-opacity: 1; white-space: pre;">readmit</text></g></g><g class="overaxes-above"/></g></g><g class="polarlayer"/><g class="ternarylayer"/><g class="geolayer"/><g class="funnelarealayer"/><g class="pielayer"/><g class="treemaplayer"/><g class="sunburstlayer"/><g class="glimages"/><defs id="topdefs-0cbbf8"><g class="clips"/></defs><g class="layer-above"><g class="imagelayer"/><g class="shapelayer"/></g><g class="infolayer"><g class="g-gtitle"/><g class="g-xtitle"><text class="xtitle" x="201" y="361.3" text-anchor="middle" style="font-family: 'Open Sans', verdana, arial, sans-serif; font-size: 14px; fill: rgb(42, 63, 95); opacity: 1; font-weight: normal; white-space: pre;">Icu Stay Type</text></g><g class="g-ytitle" transform="translate(3.4091796875,0)"><text class="ytitle" transform="rotate(-90,11.590625000000003,210)" x="11.590625000000003" y="210" text-anchor="middle" style="font-family: 'Open Sans', verdana, arial, sans-serif; font-size: 14px; fill: rgb(42, 63, 95); opacity: 1; font-weight: normal; white-space: pre;">D1 Diasbp Noninvasive Max</text></g></g></svg>